<svg width="316" height="311" viewBox="0 0 316 311" fill="none" xmlns="http://www.w3.org/2000/svg">
<path opacity="0.7" d="M62.7351 157.121C55.2539 142.228 45.7817 105.501 66.8977 75.1836C63.6804 75.9971 60.4767 76.9728 57.2993 78.1558C39.8158 84.6893 36.0382 107.941 35.2748 124.163C34.5085 140.425 37.5797 140.414 42.2318 155.953C46.8021 171.244 52.3069 186.351 59.6272 200.558C53.7396 185.721 52.4128 170.307 62.7351 157.121Z" fill="#53B1FD"/>
<path opacity="0.6" d="M141.804 251.5C131.079 250.276 118.031 248.312 107.12 243.619C102.377 245.429 97.4382 244.476 92.9035 242.025C79.2074 234.613 68.9917 217.815 61.7657 204.626C61.028 203.28 60.3354 201.922 59.635 200.561C64.7948 213.564 73.4499 226.105 80.8225 236.284C138.069 315.322 202.086 271.675 217.975 253.48C220.228 250.9 222.275 248.163 224.227 245.35C214.235 248.388 203.864 250.231 193.799 251.207C176.542 252.867 159.059 253.473 141.804 251.5Z" fill="#2E90FA"/>
<path opacity="0.6" d="M208.972 54.0951C210.763 58.3323 211.935 62.6989 212.759 67.1448C215.306 66.8299 217.87 66.6616 220.478 66.6972C256.809 67.1537 263.657 108.892 267.08 137.173C268.184 146.29 268.497 154.646 268.145 162.302C272.428 167.66 275.927 173.536 278.947 179.696C281.054 183.995 281.837 188.504 281.482 193.209C285.843 178.571 282.022 159.927 278.452 145.695C274.161 128.605 267.35 112.22 259.59 96.4327C248.414 73.684 231.554 51.0186 207.96 40.077C203.163 37.8536 197.383 35.5929 191.818 35.2755C199.038 38.8753 205.06 44.8212 208.972 54.0951Z" fill="#2E90FA"/>
<path opacity="0.7" d="M231.445 99.0005C237.05 107.516 235.212 119.048 227.752 125.786C226.865 126.583 225.874 127.335 224.803 127.982C227.152 132.707 229.749 137.316 232.556 141.8C233.118 141.88 233.669 141.965 234.227 142.061C242.146 143.453 249.351 146.381 255.976 150.835C259.72 153.343 263.032 156.357 266.013 159.755C266.742 160.59 267.45 161.435 268.13 162.298C268.482 154.642 268.169 146.285 267.064 137.169C263.642 108.888 256.796 67.1414 220.462 66.6927C217.854 66.6571 215.29 66.8254 212.744 67.1403C213.425 70.838 213.865 74.5941 214.191 78.369C220.169 85.1113 226.545 91.555 231.445 99.0005Z" fill="#53B1FD"/>
<path opacity="0.6" d="M231.445 99.0005C237.05 107.516 235.212 119.048 227.752 125.786C226.865 126.583 225.874 127.335 224.803 127.982C227.152 132.707 229.749 137.316 232.556 141.8C233.118 141.88 233.669 141.965 234.227 142.061C242.146 143.453 249.351 146.381 255.976 150.835C259.72 153.343 263.032 156.357 266.013 159.755C266.742 160.59 267.45 161.435 268.13 162.298C268.482 154.642 268.169 146.285 267.064 137.169C263.642 108.888 256.796 67.1414 220.462 66.6927C217.854 66.6571 215.29 66.8254 212.744 67.1403C213.425 70.838 213.865 74.5941 214.191 78.369C220.169 85.1113 226.545 91.555 231.445 99.0005Z" fill="#2E90FA"/>
<path opacity="0.7" d="M92.8979 242.014C97.4325 244.465 102.38 245.421 107.114 243.608C102.948 241.817 99.0935 239.621 95.7953 236.919C91.3711 233.281 88.4685 228.479 89.0701 222.609C89.2717 220.639 89.7219 218.704 90.1644 216.766C90.5249 215.157 90.8756 213.553 91.0592 211.919C91.3884 208.942 91.1565 205.943 90.519 203.025C90.255 202.168 90.0185 201.303 89.8426 200.429C89.1379 198.117 88.2075 195.868 87.1047 193.73C80.6181 181.095 70.0997 170.866 63.35 158.308C63.1522 157.937 62.9454 157.538 62.7407 157.132C52.4185 170.317 53.7509 185.741 59.6329 200.568C60.3332 201.929 61.0258 203.287 61.7635 204.633C68.986 217.804 79.2017 234.602 92.8979 242.014Z" fill="#53B1FD"/>
<path opacity="0.6" d="M92.8979 242.014C97.4325 244.465 102.38 245.421 107.114 243.608C102.948 241.817 99.0935 239.621 95.7953 236.919C91.3711 233.281 88.4685 228.479 89.0701 222.609C89.2717 220.639 89.7219 218.704 90.1644 216.766C90.5249 215.157 90.8756 213.553 91.0592 211.919C91.3884 208.942 91.1565 205.943 90.519 203.025C90.255 202.168 90.0185 201.303 89.8426 200.429C89.1379 198.117 88.2075 195.868 87.1047 193.73C80.6181 181.095 70.0997 170.866 63.35 158.308C63.1522 157.937 62.9454 157.538 62.7407 157.132C52.4185 170.317 53.7509 185.741 59.6329 200.568C60.3332 201.929 61.0258 203.287 61.7635 204.633C68.986 217.804 79.2017 234.602 92.8979 242.014Z" fill="#2E90FA"/>
<path opacity="0.6" d="M151.814 80.4266C153.776 77.091 155.738 73.7554 157.686 70.4077C159.285 67.6639 161.005 65.0867 163.356 62.9089C163.803 62.4985 164.258 62.1157 164.712 61.7405C165.088 61.0106 165.465 60.2807 165.833 59.5487C170.61 50.0279 176.067 36.6765 188.325 35.338C189.468 35.2115 190.639 35.2007 191.813 35.2661C173.167 25.9723 146.443 32.3339 126.804 37.706C96.1536 46.0943 77.5982 59.8105 66.8997 75.1764C83.5709 70.9533 100.623 71.5457 115.89 75.5305C127.601 78.5932 139.715 80.133 151.814 80.4266Z" fill="#1849A9"/>
<path opacity="0.6" d="M267.865 215.44C261.705 219.152 254.077 220.3 247.097 218.616C246.777 218.537 246.461 218.441 246.136 218.352C243.115 221.445 239.895 224.175 236.557 226.573C232.265 232.676 228.483 239.195 224.221 245.339C238.935 240.868 252.825 233.819 263.706 223.113C266.965 219.91 270.516 216.012 272.835 211.716C271.365 213.087 269.705 214.33 267.865 215.44Z" fill="#1849A9"/>
<path opacity="0.7" d="M243.769 217.565C243.547 217.796 243.33 218.036 243.116 218.269C240.744 220.883 238.596 223.684 236.56 226.565C239.897 224.167 243.118 221.437 246.138 218.343C245.366 218.122 244.592 217.875 243.836 217.592C243.821 217.588 243.8 217.573 243.769 217.565Z" fill="#53B1FD"/>
<path opacity="0.6" d="M243.769 217.565C243.547 217.796 243.33 218.036 243.116 218.269C240.744 220.883 238.596 223.684 236.56 226.565C239.897 224.167 243.118 221.437 246.138 218.343C245.366 218.122 244.592 217.875 243.836 217.592C243.821 217.588 243.8 217.573 243.769 217.565Z" fill="#1849A9"/>
<path opacity="0.7" d="M62.7353 157.122C63.9945 155.518 65.4207 153.944 67.0272 152.411C83.3045 136.95 107.469 133.851 123.894 118.639C129.269 113.66 134.239 108.244 138.857 102.531C139.724 101.019 140.601 99.5022 141.484 97.9948C144.903 92.1264 148.366 86.2786 151.814 80.4265C139.715 80.1329 127.601 78.5931 115.888 75.5381C100.621 71.5533 83.5691 70.961 66.8979 75.1841C45.784 105.494 55.2463 142.226 62.7353 157.122Z" fill="#53B1FD"/>
<path opacity="0.6" d="M62.7353 157.122C63.9945 155.518 65.4207 153.944 67.0272 152.411C83.3045 136.95 107.469 133.851 123.894 118.639C129.269 113.66 134.239 108.244 138.857 102.531C139.724 101.019 140.601 99.5022 141.484 97.9948C144.903 92.1264 148.366 86.2786 151.814 80.4265C139.715 80.1329 127.601 78.5931 115.888 75.5381C100.621 71.5533 83.5691 70.961 66.8979 75.1841C45.784 105.494 55.2463 142.226 62.7353 157.122Z" fill="#1849A9"/>
<path opacity="0.6" d="M165.841 59.5506C165.472 60.2827 165.096 61.0126 164.72 61.7425C172.725 55.2378 183.324 53.9257 193.02 57.4331C198.697 59.4905 202.685 63.4998 206.113 68.2717C208.312 67.7944 210.526 67.413 212.762 67.1373C211.945 62.6935 210.765 58.3248 208.974 54.0876C205.052 44.8193 199.04 38.8678 191.813 35.2659C190.639 35.2005 189.469 35.2113 188.325 35.3378C176.067 36.6763 170.618 50.0298 165.841 59.5506Z" fill="#2E90FA"/>
<path opacity="0.6" d="M165.841 59.5506C165.472 60.2827 165.096 61.0126 164.72 61.7425C172.725 55.2378 183.324 53.9257 193.02 57.4331C198.697 59.4905 202.685 63.4998 206.113 68.2717C208.312 67.7944 210.526 67.413 212.762 67.1373C211.945 62.6935 210.765 58.3248 208.974 54.0876C205.052 44.8193 199.04 38.8678 191.813 35.2659C190.639 35.2005 189.469 35.2113 188.325 35.3378C176.067 36.6763 170.618 50.0298 165.841 59.5506Z" fill="#1849A9"/>
<path opacity="0.6" d="M178.671 242.366C164.375 240.849 150.82 234.919 136.548 233.676C130.223 233.124 123.628 233.881 118.054 236.921C116.602 237.713 115.226 238.651 113.864 239.601C112.222 240.749 110.585 241.906 108.825 242.847C108.259 243.149 107.689 243.4 107.12 243.619C118.037 248.321 131.079 250.276 141.804 251.499C159.067 253.475 176.542 252.867 193.803 251.191C203.861 250.213 214.239 248.373 224.231 245.334C228.495 239.182 232.275 232.671 236.567 226.568C215.927 241.376 190.685 243.636 178.671 242.366Z" fill="#2E90FA"/>
<path opacity="0.6" d="M178.671 242.366C164.375 240.849 150.82 234.919 136.548 233.676C130.223 233.124 123.628 233.881 118.054 236.921C116.602 237.713 115.226 238.651 113.864 239.601C112.222 240.749 110.585 241.906 108.825 242.847C108.259 243.149 107.689 243.4 107.12 243.619C118.037 248.321 131.079 250.276 141.804 251.499C159.067 253.475 176.542 252.867 193.803 251.191C203.861 250.213 214.239 248.373 224.231 245.334C228.495 239.182 232.275 232.671 236.567 226.568C215.927 241.376 190.685 243.636 178.671 242.366Z" fill="#1849A9"/>
<path opacity="0.7" d="M93.9986 179.674C98.4135 172.372 102.581 164.909 106.854 157.517C110.161 151.809 113.456 146.09 116.791 140.407C121.045 133.143 125.372 125.916 129.615 118.632C132.733 113.281 135.778 107.893 138.857 102.531C134.237 108.252 129.267 113.668 123.894 118.639C107.469 133.851 83.2964 136.948 67.027 152.411C65.4127 153.942 63.9865 155.516 62.735 157.122C62.9397 157.529 63.1465 157.928 63.3442 158.299C70.094 170.856 80.6145 181.077 87.099 193.72C88.1996 195.866 89.1322 198.108 89.8369 200.42C89.3376 197.998 89.1776 195.494 89.4331 192.905C89.9231 188.105 91.503 183.797 93.9986 179.674Z" fill="#53B1FD"/>
<path opacity="0.6" d="M93.9986 179.674C98.4135 172.372 102.581 164.909 106.854 157.517C110.161 151.809 113.456 146.09 116.791 140.407C121.045 133.143 125.372 125.916 129.615 118.632C132.733 113.281 135.778 107.893 138.857 102.531C134.237 108.252 129.267 113.668 123.894 118.639C107.469 133.851 83.2964 136.948 67.027 152.411C65.4127 153.942 63.9865 155.516 62.735 157.122C62.9397 157.529 63.1465 157.928 63.3442 158.299C70.094 170.856 80.6145 181.077 87.099 193.72C88.1996 195.866 89.1322 198.108 89.8369 200.42C89.3376 197.998 89.1776 195.494 89.4331 192.905C89.9231 188.105 91.503 183.797 93.9986 179.674Z" fill="#2E90FA"/>
<path opacity="0.6" d="M93.9986 179.674C98.4135 172.372 102.581 164.909 106.854 157.517C110.161 151.809 113.456 146.09 116.791 140.407C121.045 133.143 125.372 125.916 129.615 118.632C132.733 113.281 135.778 107.893 138.857 102.531C134.237 108.252 129.267 113.668 123.894 118.639C107.469 133.851 83.2964 136.948 67.027 152.411C65.4127 153.942 63.9865 155.516 62.735 157.122C62.9397 157.529 63.1465 157.928 63.3442 158.299C70.094 170.856 80.6145 181.077 87.099 193.72C88.1996 195.866 89.1322 198.108 89.8369 200.42C89.3376 197.998 89.1776 195.494 89.4331 192.905C89.9231 188.105 91.503 183.797 93.9986 179.674Z" fill="#1849A9"/>
<path opacity="0.7" d="M214.209 78.3666C213.883 74.5918 213.443 70.8356 212.762 67.1379C210.527 67.4136 208.312 67.795 206.113 68.2723C206.209 68.4073 206.3 68.5323 206.396 68.6672C208.789 72.0532 211.453 75.239 214.209 78.3666Z" fill="#53B1FD"/>
<path opacity="0.6" d="M214.209 78.3666C213.883 74.5918 213.443 70.8356 212.762 67.1379C210.527 67.4136 208.312 67.795 206.113 68.2723C206.209 68.4073 206.3 68.5323 206.396 68.6672C208.789 72.0532 211.453 75.239 214.209 78.3666Z" fill="#2E90FA"/>
<path opacity="0.6" d="M212.762 67.1379C210.527 67.4136 208.312 67.795 206.113 68.2723C206.209 68.4073 213.443 70.8356 212.762 67.1379Z" fill="#1849A9"/>
<path opacity="0.7" d="M224.803 127.982C222.32 129.49 219.43 130.477 216.528 130.327C211.223 130.065 209.233 126.098 205.782 122.829C200.837 118.147 195.025 110.05 187.63 110.02C179.976 109.993 171.58 112.838 167.002 119.221C163.752 123.752 162.398 128.873 163.287 134.354C164.043 138.989 166.192 143.016 169.743 146.255C172.507 148.776 175.711 150.46 179.309 151.169C182.015 151.698 184.803 151.833 187.524 150.675C191.029 149.182 194.635 147.925 198.195 146.564C200.564 145.65 202.903 144.636 205.309 143.832C208.588 142.736 211.915 141.827 215.402 141.638C217.399 141.531 219.395 141.156 221.388 141.155C225.121 141.159 228.839 141.284 232.562 141.81C229.759 137.311 227.162 132.701 224.803 127.982Z" fill="#53B1FD"/>
<path opacity="0.6" d="M224.803 127.982C222.32 129.49 219.43 130.477 216.528 130.327C211.223 130.065 209.233 126.098 205.782 122.829C200.837 118.147 195.025 110.05 187.63 110.02C179.976 109.993 171.58 112.838 167.002 119.221C163.752 123.752 162.398 128.873 163.287 134.354C164.043 138.989 166.192 143.016 169.743 146.255C172.507 148.776 175.711 150.46 179.309 151.169C182.015 151.698 184.803 151.833 187.524 150.675C191.029 149.182 194.635 147.925 198.195 146.564C200.564 145.65 202.903 144.636 205.309 143.832C208.588 142.736 211.915 141.827 215.402 141.638C217.399 141.531 219.395 141.156 221.388 141.155C225.121 141.159 228.839 141.284 232.562 141.81C229.759 137.311 227.162 132.701 224.803 127.982Z" fill="#2E90FA"/>
<path opacity="0.6" d="M224.803 127.982C222.32 129.49 219.43 130.477 216.528 130.327C211.223 130.065 209.233 126.098 205.782 122.829C200.837 118.147 195.025 110.05 187.63 110.02C179.976 109.993 171.58 112.838 167.002 119.221C163.752 123.752 162.398 128.873 163.287 134.354C164.043 138.989 166.192 143.016 169.743 146.255C172.507 148.776 175.711 150.46 179.309 151.169C182.015 151.698 184.803 151.833 187.524 150.675C191.029 149.182 194.635 147.925 198.195 146.564C200.564 145.65 202.903 144.636 205.309 143.832C208.588 142.736 211.915 141.827 215.402 141.638C217.399 141.531 219.395 141.156 221.388 141.155C225.121 141.159 228.839 141.284 232.562 141.81C229.759 137.311 227.162 132.701 224.803 127.982Z" fill="#1849A9"/>
<path opacity="0.7" d="M243.768 217.566C238.409 215.504 233.498 211.79 230.437 206.895C227.614 202.381 224.707 197.895 220.886 194.098C216.218 189.468 210.979 185.73 204.769 183.493C201.811 182.427 198.805 181.264 195.721 180.839C191.181 180.221 186.607 179.243 181.969 180.19C180.31 180.524 178.59 180.625 176.949 181.04C173.848 181.827 170.697 182.55 167.719 183.705C162.708 185.641 158.264 188.576 154.214 192.136C151.661 194.383 149.927 197.223 148.053 199.966C145.056 204.367 142.262 208.907 139.182 213.243C136.18 217.476 131.983 220.12 127.072 221.784C123.734 222.914 120.343 223.33 116.866 223.271C111.446 223.185 106.496 221.545 102.005 218.573C97.8327 215.805 94.4812 212.238 92.3229 207.699C91.5935 206.173 90.9896 204.614 90.5013 203.029C91.1444 205.957 91.3784 208.948 91.0415 211.923C90.8579 213.556 90.5128 215.17 90.1467 216.77C89.712 218.709 89.2617 220.644 89.0524 222.613C88.4508 228.483 91.3512 233.293 95.7775 236.922C99.0737 239.632 102.93 241.821 107.097 243.612C107.666 243.394 108.235 243.142 108.802 242.84C110.57 241.902 112.198 240.742 113.84 239.594C115.203 238.644 116.571 237.704 118.031 236.915C123.605 233.875 130.197 233.125 136.525 233.67C150.797 234.912 164.353 240.835 178.648 242.359C190.659 243.637 215.901 241.378 236.544 226.561C238.575 223.67 240.721 220.877 243.1 218.265C243.332 218.029 243.554 217.798 243.768 217.566Z" fill="#53B1FD"/>
<path opacity="0.6" d="M243.768 217.566C238.409 215.504 233.498 211.79 230.437 206.895C227.614 202.381 224.707 197.895 220.886 194.098C216.218 189.468 210.979 185.73 204.769 183.493C201.811 182.427 198.805 181.264 195.721 180.839C191.181 180.221 186.607 179.243 181.969 180.19C180.31 180.524 178.59 180.625 176.949 181.04C173.848 181.827 170.697 182.55 167.719 183.705C162.708 185.641 158.264 188.576 154.214 192.136C151.661 194.383 149.927 197.223 148.053 199.966C145.056 204.367 142.262 208.907 139.182 213.243C136.18 217.476 131.983 220.12 127.072 221.784C123.734 222.914 120.343 223.33 116.866 223.271C111.446 223.185 106.496 221.545 102.005 218.573C97.8327 215.805 94.4812 212.238 92.3229 207.699C91.5935 206.173 90.9896 204.614 90.5013 203.029C91.1444 205.957 91.3784 208.948 91.0415 211.923C90.8579 213.556 90.5128 215.17 90.1467 216.77C89.712 218.709 89.2617 220.644 89.0524 222.613C88.4508 228.483 91.3512 233.293 95.7775 236.922C99.0737 239.632 102.93 241.821 107.097 243.612C107.666 243.394 108.235 243.142 108.802 242.84C110.57 241.902 112.198 240.742 113.84 239.594C115.203 238.644 116.571 237.704 118.031 236.915C123.605 233.875 130.197 233.125 136.525 233.67C150.797 234.912 164.353 240.835 178.648 242.359C190.659 243.637 215.901 241.378 236.544 226.561C238.575 223.67 240.721 220.877 243.1 218.265C243.332 218.029 243.554 217.798 243.768 217.566Z" fill="#2E90FA"/>
<path opacity="0.6" d="M243.768 217.566C238.409 215.504 233.498 211.79 230.437 206.895C227.614 202.381 224.707 197.895 220.886 194.098C216.218 189.468 210.979 185.73 204.769 183.493C201.811 182.427 198.805 181.264 195.721 180.839C191.181 180.221 186.607 179.243 181.969 180.19C180.31 180.524 178.59 180.625 176.949 181.04C173.848 181.827 170.697 182.55 167.719 183.705C162.708 185.641 158.264 188.576 154.214 192.136C151.661 194.383 149.927 197.223 148.053 199.966C145.056 204.367 142.262 208.907 139.182 213.243C136.18 217.476 131.983 220.12 127.072 221.784C123.734 222.914 120.343 223.33 116.866 223.271C111.446 223.185 106.496 221.545 102.005 218.573C97.8327 215.805 94.4812 212.238 92.3229 207.699C91.5935 206.173 90.9896 204.614 90.5013 203.029C91.1444 205.957 91.3784 208.948 91.0415 211.923C90.8579 213.556 90.5128 215.17 90.1467 216.77C89.712 218.709 89.2617 220.644 89.0524 222.613C88.4508 228.483 91.3512 233.293 95.7775 236.922C99.0737 239.632 102.93 241.821 107.097 243.612C107.666 243.394 108.235 243.142 108.802 242.84C110.57 241.902 112.198 240.742 113.84 239.594C115.203 238.644 116.571 237.704 118.031 236.915C123.605 233.875 130.197 233.125 136.525 233.67C150.797 234.912 164.353 240.835 178.648 242.359C190.659 243.637 215.901 241.378 236.544 226.561C238.575 223.67 240.721 220.877 243.1 218.265C243.332 218.029 243.554 217.798 243.768 217.566Z" fill="#1849A9"/>
</svg>
