<svg width="405" height="266" viewBox="0 0 405 266" fill="none" xmlns="http://www.w3.org/2000/svg">
<path opacity="0.38" d="M386.559 221.781C386.215 227.009 383.176 232.109 377.869 236.966C372.956 241.462 366.095 245.752 357.629 249.729H48.2968C42.0701 245.563 36.6785 240.501 32.1314 234.237C30.5159 232.01 29.0421 229.682 27.719 227.269C-10.8129 157.034 80.7536 22.7017 111.539 29.3087C125.675 32.3404 117.325 63.0097 140.589 77.8941C184.607 106.054 268.81 31.0598 293.594 53.6003C306.869 65.675 284.658 88.9376 292.948 124.612C307.026 185.179 388.461 192.994 386.559 221.781Z" fill="url(#paint0_linear_53_1453)"/>
<path opacity="0.26" d="M173.339 64.8182C187.62 64.8182 199.197 53.217 199.197 38.9062C199.197 24.5953 187.62 12.9941 173.339 12.9941C159.058 12.9941 147.481 24.5953 147.481 38.9062C147.481 53.217 159.058 64.8182 173.339 64.8182Z" fill="url(#paint1_linear_53_1453)"/>
<path d="M171.281 40.8746L171.28 40.8739C170.776 40.4552 170.028 40.5253 169.611 41.0306L160.352 52.2252C159.934 52.7305 160.004 53.4796 160.509 53.8983L160.509 53.899C161.014 54.3177 161.761 54.2476 162.179 53.7423L171.437 42.5477C171.855 42.0425 171.785 41.2934 171.281 40.8746Z" fill="white"/>
<path d="M184.362 24.407L184.362 24.4064C183.965 24.1159 183.409 24.2023 183.119 24.5994L175.153 35.5108C174.863 35.9079 174.949 36.4653 175.345 36.7558L175.346 36.7564C175.742 37.047 176.299 36.9606 176.589 36.5635L184.555 25.6521C184.845 25.255 184.759 24.6976 184.362 24.407Z" fill="white"/>
<path d="M173.37 42.4912C175.508 42.4912 177.242 40.754 177.242 38.6111C177.242 36.4681 175.508 34.731 173.37 34.731C171.231 34.731 169.498 36.4681 169.498 38.6111C169.498 40.754 171.231 42.4912 173.37 42.4912Z" fill="white"/>
<path opacity="0.22" d="M123.81 79.6038V170.639C123.81 175.349 119.296 179.203 113.778 179.203H43.8981C42.0017 179.212 40.1338 178.74 38.4684 177.831C35.7047 176.301 33.8662 173.644 33.8662 170.639V79.6038C33.8662 76.5986 35.7037 73.9418 38.4684 72.4116C40.1338 71.5026 42.0017 71.0306 43.8981 71.0397H113.777C119.295 71.0397 123.81 74.8943 123.81 79.6038Z" fill="url(#paint2_linear_53_1453)"/>
<path opacity="0.08" d="M123.81 106.428V170.639C123.81 175.35 119.296 179.203 113.778 179.203H43.8981C38.3804 179.203 33.8662 175.35 33.8662 170.639V126.947C38.9971 122.78 45.4018 119.332 52.2176 119.889C61.6561 120.657 61.7917 128.277 71.1476 130.428C89.446 134.627 108.783 110.031 123.81 106.428Z" fill="#2E90FA"/>
<path opacity="0.22" d="M38.6888 73.3113V176.925C38.6884 177.239 38.6128 177.549 38.4684 177.828C35.7047 176.298 33.8662 173.641 33.8662 170.636V79.6008C33.8662 76.5957 35.7037 73.9389 38.4684 72.4087C38.6128 72.6876 38.6884 72.9971 38.6888 73.3113Z" fill="url(#paint3_linear_53_1453)"/>
<path opacity="0.22" d="M84.9233 72.729V176.342C84.9233 177.593 83.7301 178.616 82.2593 178.616H81.7549V71.0396H84.048C84.5853 71.459 84.9233 72.0632 84.9233 72.729Z" fill="url(#paint4_linear_53_1453)"/>
<path d="M123.809 102.985H33.8662V107.255H123.809V102.985Z" fill="white"/>
<path d="M123.809 94.4468H33.8662V98.7166H123.809V94.4468Z" fill="white"/>
<path d="M123.809 85.9082H33.8662V90.178H123.809V85.9082Z" fill="white"/>
<path d="M123.809 77.3696H33.8662V81.6395H123.809V77.3696Z" fill="white"/>
<path d="M81.7557 71.0396H75.9243V178.616H81.7557V71.0396Z" fill="white"/>
<path d="M320.339 220.293C313.735 220.293 308.295 225.958 308.295 232.945C308.295 239.953 314.195 245.613 320.799 245.613V241.684C316.242 241.684 312.018 237.77 312.018 232.947C312.018 228.141 315.914 224.276 320.476 224.276L320.339 220.293Z" fill="#194185"/>
<path d="M320.3 218.186L320.814 245.013C320.845 246.607 321.498 248.126 322.634 249.242C323.77 250.359 325.297 250.985 326.888 250.985H342.472C343.338 250.986 344.194 250.801 344.983 250.442C346.046 249.958 346.947 249.178 347.579 248.195C348.211 247.211 348.547 246.066 348.547 244.897V218.074C348.547 217.784 348.49 217.497 348.378 217.228C348.267 216.96 348.105 216.717 347.899 216.512C347.694 216.307 347.451 216.145 347.183 216.034C346.915 215.924 346.628 215.868 346.338 215.869L324.739 215.933L322.495 215.939C322.203 215.939 321.914 215.998 321.645 216.112C321.376 216.226 321.132 216.392 320.928 216.601C320.723 216.81 320.563 217.058 320.455 217.33C320.347 217.602 320.295 217.893 320.3 218.186Z" fill="url(#paint5_linear_53_1453)"/>
<path opacity="0.27" d="M315.195 141.191C314.206 146.459 313.879 153.403 317.715 158.865C321.388 164.096 325.27 162.826 329.054 168.017C334.164 175.026 333.456 186.082 330.943 193.266C329.34 197.85 326.599 200.187 326.705 204.705C326.811 209.281 329.797 213.538 331.638 215.989H340.082C342.448 214.725 345.727 212.472 347.011 208.73C348.887 203.259 344.561 200.257 345.122 194.844C346.045 185.933 358.696 185.074 364.334 174.645C366.501 170.636 368.389 163.808 364.963 152.24L315.195 141.191Z" fill="url(#paint6_linear_53_1453)"/>
<path d="M320.3 218.185L320.814 245.013C320.845 246.607 321.498 248.125 322.634 249.242C323.77 250.359 325.297 250.984 326.888 250.985H337.263C333.73 250.475 330.326 249.048 327.832 246.454C324.667 243.162 324.197 238.977 323.675 234.337C322.608 224.819 325.695 219.717 324.742 215.933L322.498 215.938C322.206 215.939 321.916 215.997 321.647 216.111C321.377 216.224 321.133 216.391 320.929 216.6C320.724 216.809 320.563 217.057 320.455 217.329C320.347 217.601 320.295 217.892 320.3 218.185Z" fill="#194185"/>
<path d="M339.859 226.7H340.93V215.869H339.859V226.7Z" fill="white"/>
<path d="M337.321 233.39H343.151C343.681 233.39 344.112 232.958 344.112 232.427V227.537C344.112 227.005 343.681 226.573 343.151 226.573H337.321C336.791 226.573 336.36 227.005 336.36 227.537V232.427C336.36 232.958 336.791 233.39 337.321 233.39Z" fill="url(#paint7_linear_53_1453)"/>
<path d="M94.7508 226.482C94.7508 226.482 86.7185 222.749 81.4159 219.625C75.9977 216.433 72.167 208.607 70.2013 203.378C70.1373 203.208 70.1212 203.022 70.1548 202.843C70.1884 202.664 70.2704 202.497 70.3919 202.362C70.5134 202.226 70.6698 202.126 70.8439 202.073C71.0181 202.02 71.2034 202.016 71.3797 202.061C75.6512 203.158 87.3649 206.78 94.7508 226.482Z" fill="url(#paint8_linear_53_1453)"/>
<path d="M88.0269 189.671C87.9286 189.614 87.8187 189.581 87.7055 189.573C87.5922 189.566 87.4788 189.584 87.3739 189.628C87.269 189.671 87.1754 189.738 87.1003 189.823C87.0252 189.908 86.9706 190.01 86.9407 190.119C86.4247 192.031 84.4399 195.126 85.9616 201.608C87.3159 207.377 95.7805 217.536 95.8716 224.308C95.8716 224.311 103.011 198.361 88.0269 189.671Z" fill="url(#paint9_linear_53_1453)"/>
<path d="M98.4935 226.825C98.4935 226.825 97.0025 208.145 112.721 201.898C112.869 201.838 113.031 201.815 113.19 201.831C113.35 201.847 113.503 201.902 113.637 201.99C113.771 202.078 113.882 202.197 113.96 202.338C114.038 202.478 114.081 202.635 114.085 202.796C114.153 205.402 113.979 211.079 111.462 214.125C108.123 218.161 102.228 220.918 98.4935 226.825Z" fill="url(#paint10_linear_53_1453)"/>
<path d="M112.888 230.97L107.957 245.345L107.526 246.598L107.314 247.216C106.978 248.197 106.343 249.049 105.5 249.652C104.657 250.255 103.646 250.578 102.611 250.578H90.774C89.709 250.577 88.6723 250.235 87.8165 249.599C86.9607 248.964 86.331 248.071 86.0203 247.05L81.0885 230.882C80.9675 230.484 80.9412 230.063 81.0119 229.652C81.0826 229.242 81.2482 228.854 81.4955 228.52C81.7427 228.186 82.0648 227.914 82.4358 227.727C82.8068 227.54 83.2164 227.442 83.6318 227.442H110.376C110.799 227.442 111.216 227.544 111.592 227.738C111.968 227.932 112.293 228.213 112.538 228.558C112.784 228.903 112.944 229.302 113.005 229.721C113.066 230.141 113.026 230.569 112.888 230.97Z" fill="#2E90FA"/>
<g opacity="0.67">
<path opacity="0.2" d="M73.3018 204.851C75.0764 206.072 76.7849 207.387 78.42 208.791C79.2434 209.486 80.0413 210.211 80.8308 210.945C81.6202 211.679 82.3864 212.439 83.1409 213.209C83.8953 213.979 84.6297 214.77 85.3471 215.575C86.0645 216.38 86.7681 217.197 87.4421 218.038C88.8044 219.709 90.0778 221.45 91.2569 223.254C89.9005 221.582 88.5282 219.93 87.1157 218.315C86.4057 217.511 85.6936 216.708 84.9624 215.924C84.2313 215.141 83.5001 214.356 82.7488 213.588C82.3779 213.202 81.9985 212.822 81.6213 212.442L80.4737 211.317C79.7086 210.566 78.9223 209.836 78.1371 209.106C76.5592 207.656 74.9347 206.248 73.3018 204.851ZM88.6533 193.543C89.9663 195.414 91.1094 197.398 92.0686 199.474C92.555 200.509 92.9906 201.569 93.3869 202.643C93.5787 203.183 93.7747 203.721 93.9432 204.269C94.029 204.542 94.1202 204.814 94.2018 205.089L94.4402 205.914C95.0522 208.122 95.4817 210.378 95.7245 212.657C95.9746 214.93 96.0239 217.221 95.8718 219.503C95.8315 218.363 95.7775 217.226 95.68 216.094C95.5825 214.962 95.4575 213.833 95.2996 212.711C95.2212 212.149 95.1247 211.591 95.0347 211.031L94.88 210.195C94.8301 209.916 94.774 209.64 94.7115 209.363C94.6489 209.086 94.6055 208.807 94.5345 208.532L94.3427 207.705C94.2802 207.429 94.2028 207.156 94.1308 206.882C94.0587 206.608 93.9909 206.333 93.9093 206.063L93.6793 205.245C93.6009 204.973 93.513 204.704 93.4303 204.434C93.2703 203.89 93.0743 203.359 92.9005 202.821C92.536 201.748 92.1153 200.697 91.6797 199.649C90.7886 197.557 89.7781 195.518 88.6533 193.543ZM99.3899 223.622C99.8204 221.799 100.421 220.022 101.185 218.312C101.561 217.453 101.983 216.613 102.433 215.79C102.884 214.967 103.381 214.169 103.895 213.384C104.409 212.599 104.973 211.848 105.559 211.114C106.145 210.38 106.76 209.672 107.412 208.997C108.7 207.637 110.114 206.404 111.634 205.313C110.26 206.564 108.956 207.89 107.727 209.285C107.121 209.986 106.527 210.697 105.968 211.434C105.41 212.17 104.864 212.92 104.35 213.688C103.322 215.228 102.393 216.833 101.572 218.493C100.751 220.161 100.023 221.873 99.3899 223.622Z" fill="#194185"/>
</g>
<path d="M107.958 245.345L107.527 246.598L107.315 247.216C106.979 248.197 106.344 249.049 105.501 249.652C104.658 250.255 103.647 250.578 102.612 250.578H90.775C89.71 250.577 88.6733 250.235 87.8175 249.599C86.9617 248.964 86.332 248.071 86.0213 247.05L81.0895 230.882C80.9684 230.484 80.9422 230.063 81.0129 229.652C81.0835 229.242 81.2492 228.854 81.4964 228.52C81.7437 228.186 82.0658 227.914 82.4368 227.727C82.8078 227.54 83.2174 227.442 83.6327 227.442H85.0909C86.6475 231.584 88.4246 238.683 94.5951 242.627C99.2651 245.603 104.251 245.367 107.958 245.345Z" fill="#194185"/>
<path opacity="0.42" d="M377.59 251.984C377.588 252.24 377.532 252.493 377.427 252.726C377.321 252.96 377.168 253.169 376.978 253.339C376.575 253.705 376.049 253.906 375.506 253.903H45.1898C44.0433 253.903 43.1055 253.04 43.1055 251.984C43.1076 251.728 43.1632 251.475 43.2687 251.242C43.3742 251.009 43.5272 250.801 43.718 250.63C44.1209 250.264 44.6461 250.063 45.1898 250.066H375.506C376.651 250.066 377.59 250.931 377.59 251.984Z" fill="#2E90FA"/>
<path d="M242.975 249.782H157.65C155.225 249.782 152.899 248.817 151.185 247.099C149.47 245.38 148.507 243.05 148.507 240.62V153.263C148.507 152.06 148.743 150.869 149.203 149.757C149.662 148.646 150.336 147.636 151.185 146.785C152.034 145.934 153.042 145.259 154.151 144.799C155.26 144.339 156.449 144.102 157.65 144.102H220.816C222.016 144.102 223.205 144.339 224.315 144.799C225.424 145.259 226.432 145.934 227.281 146.785C228.13 147.636 228.803 148.646 229.263 149.757C229.722 150.869 229.959 152.06 229.959 153.263V236.735C229.96 243.913 235.815 249.782 242.975 249.782Z" fill="#2E90FA"/>
<path d="M245.833 199.6C248.258 199.6 250.584 200.565 252.298 202.283C254.013 204.001 254.976 206.332 254.976 208.762V236.735C254.976 244.21 249.627 250.268 242.065 249.746C235.203 249.272 229.958 243.39 229.958 236.498V199.6H245.833Z" fill="url(#paint11_linear_53_1453)"/>
<path opacity="0.37" d="M212.559 213.604H159.105C157.037 213.604 155.36 215.284 155.36 217.357V217.966C155.36 220.039 157.037 221.719 159.105 221.719H212.559C214.627 221.719 216.304 220.039 216.304 217.966V217.357C216.304 215.284 214.627 213.604 212.559 213.604Z" fill="#194185"/>
<path opacity="0.37" d="M212.559 233.235H159.105C157.037 233.235 155.36 234.915 155.36 236.988V237.597C155.36 239.67 157.037 241.35 159.105 241.35H212.559C214.627 241.35 216.304 239.67 216.304 237.597V236.988C216.304 234.915 214.627 233.235 212.559 233.235Z" fill="#194185"/>
<path opacity="0.14" d="M216.526 160.875V179.033C216.524 180.381 215.988 181.673 215.037 182.627C214.085 183.58 212.796 184.117 211.451 184.12H160.213C158.868 184.117 157.578 183.58 156.627 182.627C155.676 181.673 155.14 180.381 155.137 179.033V160.875C155.14 159.527 155.676 158.235 156.627 157.281C157.578 156.328 158.868 155.791 160.213 155.789H211.451C212.796 155.791 214.085 156.328 215.037 157.281C215.988 158.235 216.524 159.527 216.526 160.875Z" fill="#194185"/>
<path opacity="0.37" d="M194.056 194.804H159.409C157.173 194.804 155.36 196.621 155.36 198.862C155.36 201.103 157.173 202.919 159.409 202.919H194.056C196.292 202.919 198.105 201.103 198.105 198.862C198.105 196.621 196.292 194.804 194.056 194.804Z" fill="#194185"/>
<g opacity="0.47">
<path opacity="0.47" d="M290.637 150.076C290.964 149.297 291.275 148.514 291.57 147.726C291.867 146.937 292.144 146.142 292.41 145.343C292.412 145.327 292.416 145.311 292.424 145.297C292.433 145.283 292.444 145.271 292.457 145.262C292.471 145.253 292.486 145.248 292.502 145.245C292.518 145.243 292.534 145.245 292.549 145.25C292.565 145.255 292.579 145.263 292.59 145.275C292.602 145.286 292.611 145.3 292.616 145.315C292.621 145.33 292.623 145.347 292.621 145.363C292.62 145.379 292.614 145.394 292.605 145.408C292.311 146.199 291.996 146.983 291.668 147.76C291.339 148.537 290.995 149.312 290.637 150.076ZM293.816 140.497C294.017 139.68 294.205 138.861 294.375 138.038C294.545 137.215 294.693 136.389 294.833 135.561C294.838 135.527 294.851 135.495 294.869 135.465C294.887 135.436 294.91 135.411 294.938 135.391C294.966 135.371 294.998 135.357 295.031 135.349C295.064 135.341 295.099 135.34 295.133 135.345C295.167 135.351 295.199 135.363 295.228 135.381C295.257 135.399 295.282 135.423 295.302 135.451C295.322 135.479 295.337 135.51 295.344 135.544C295.352 135.577 295.353 135.612 295.348 135.646V135.653C295.187 136.485 295.011 137.313 294.818 138.137C294.625 138.961 294.413 139.78 294.182 140.594C294.168 140.641 294.136 140.681 294.094 140.705C294.051 140.729 294.001 140.736 293.953 140.723C293.906 140.711 293.865 140.68 293.84 140.638C293.815 140.596 293.807 140.546 293.818 140.498L293.816 140.497ZM295.439 130.564C295.573 128.892 295.634 127.217 295.62 125.54C295.62 125.49 295.629 125.44 295.648 125.393C295.667 125.346 295.695 125.304 295.73 125.268C295.765 125.232 295.807 125.203 295.853 125.184C295.9 125.164 295.949 125.154 296 125.153C296.05 125.153 296.1 125.163 296.146 125.181C296.193 125.2 296.235 125.228 296.271 125.263C296.307 125.299 296.335 125.341 296.355 125.387C296.375 125.433 296.385 125.483 296.385 125.534C296.385 125.534 296.385 125.54 296.385 125.542C296.362 127.241 296.263 128.935 296.09 130.623C296.082 130.71 296.04 130.789 295.973 130.845C295.907 130.901 295.821 130.927 295.735 130.919C295.648 130.912 295.569 130.87 295.513 130.803C295.458 130.736 295.431 130.65 295.439 130.564ZM295.353 120.527C295.19 118.862 294.947 117.208 294.623 115.567C294.599 115.443 294.624 115.315 294.694 115.21C294.764 115.106 294.872 115.033 294.995 115.009C295.119 114.984 295.247 115.01 295.351 115.08C295.455 115.15 295.528 115.258 295.552 115.382V115.389C295.856 117.064 296.077 118.751 296.215 120.448C296.225 120.563 296.189 120.677 296.116 120.766C296.042 120.854 295.936 120.909 295.821 120.92C295.707 120.93 295.593 120.894 295.505 120.82C295.417 120.747 295.361 120.641 295.351 120.526L295.353 120.527ZM293.401 110.714C293.154 109.918 292.893 109.121 292.605 108.343C292.318 107.564 292.012 106.785 291.683 106.02C291.638 105.891 291.643 105.748 291.698 105.622C291.753 105.496 291.854 105.396 291.981 105.342C292.107 105.288 292.249 105.284 292.378 105.331C292.507 105.378 292.613 105.473 292.675 105.596C293.005 106.383 293.311 107.179 293.596 107.983C293.88 108.787 294.145 109.598 294.382 110.417C294.421 110.547 294.406 110.688 294.342 110.808C294.277 110.927 294.168 111.017 294.037 111.056C293.907 111.095 293.767 111.081 293.647 111.017C293.527 110.952 293.438 110.843 293.398 110.713L293.401 110.714ZM289.45 101.557C288.62 100.117 287.702 98.7292 286.701 97.4022C286.65 97.3408 286.612 97.2697 286.589 97.1932C286.566 97.1167 286.559 97.0364 286.569 96.9571C286.578 96.8777 286.603 96.8011 286.642 96.7318C286.682 96.6625 286.735 96.6019 286.799 96.5538C286.862 96.5056 286.935 96.4709 287.012 96.4516C287.089 96.4324 287.17 96.4291 287.248 96.4419C287.327 96.4547 287.402 96.4834 287.47 96.5261C287.537 96.5689 287.595 96.6249 287.64 96.6907C288.656 98.0654 289.586 99.5017 290.426 100.991C290.495 101.121 290.511 101.273 290.471 101.415C290.43 101.556 290.336 101.677 290.208 101.75C290.08 101.823 289.929 101.843 289.787 101.807C289.645 101.77 289.522 101.679 289.445 101.553L289.45 101.557ZM283.47 93.6198C282.313 92.4284 281.084 91.3092 279.791 90.2685C279.67 90.1663 279.594 90.021 279.579 89.8636C279.564 89.7062 279.611 89.5491 279.71 89.4258C279.809 89.3025 279.952 89.2228 280.108 89.2037C280.265 89.1845 280.423 89.2275 280.548 89.3234C281.877 90.3993 283.138 91.5557 284.325 92.7862C284.38 92.8426 284.423 92.9092 284.451 92.9823C284.48 93.0553 284.495 93.1333 284.493 93.2118C284.492 93.2904 284.475 93.3679 284.444 93.44C284.413 93.5121 284.368 93.5773 284.312 93.632C284.256 93.6866 284.189 93.7297 284.116 93.7586C284.043 93.7875 283.966 93.8017 283.887 93.8005C283.809 93.7993 283.731 93.7826 283.659 93.7514C283.588 93.7202 283.522 93.6751 283.468 93.6187L283.47 93.6198ZM275.736 87.378C274.33 86.4929 272.877 85.683 271.385 84.9516C271.248 84.8764 271.145 84.7513 271.098 84.6022C271.05 84.453 271.061 84.2912 271.129 84.1502C271.197 84.0092 271.317 83.8998 271.463 83.8446C271.61 83.7894 271.771 83.7926 271.915 83.8536C273.452 84.5964 274.945 85.426 276.387 86.3384C276.455 86.3815 276.514 86.4375 276.561 86.5034C276.607 86.5692 276.64 86.6436 276.658 86.7223C276.676 86.801 276.678 86.8824 276.665 86.962C276.651 87.0415 276.622 87.1176 276.579 87.1858C276.536 87.2541 276.48 87.3132 276.414 87.3598C276.349 87.4064 276.274 87.4396 276.196 87.4574C276.117 87.4753 276.036 87.4774 275.957 87.4638C275.877 87.4502 275.801 87.421 275.733 87.378H275.736ZM266.799 82.9988C265.238 82.4268 263.648 81.9313 262.031 81.5122C261.885 81.4676 261.761 81.3683 261.687 81.2349C261.612 81.1015 261.591 80.9444 261.629 80.7961C261.667 80.6479 261.76 80.5199 261.889 80.4389C262.019 80.3579 262.175 80.33 262.324 80.3611C263.974 80.7816 265.601 81.2821 267.205 81.8626C267.355 81.917 267.477 82.0288 267.545 82.1734C267.613 82.3181 267.62 82.4838 267.566 82.6341C267.512 82.7843 267.4 82.9068 267.256 82.9746C267.111 83.0424 266.946 83.05 266.796 82.9956L266.799 82.9988ZM257.149 80.4928C255.505 80.2252 253.851 80.0326 252.186 79.9151C252.044 79.9002 251.913 79.8308 251.821 79.7212C251.729 79.6117 251.682 79.4707 251.692 79.3277C251.701 79.1847 251.765 79.0508 251.871 78.9543C251.977 78.8577 252.115 78.8059 252.258 78.8097C253.954 78.913 255.644 79.0932 257.328 79.3502C257.475 79.3776 257.606 79.4615 257.693 79.5839C257.78 79.7063 257.816 79.8578 257.793 80.0063C257.771 80.1548 257.691 80.2887 257.572 80.3796C257.453 80.4706 257.303 80.5116 257.154 80.4938L257.149 80.4928ZM247.188 79.7834C246.354 79.7972 245.521 79.8333 244.688 79.8801C243.855 79.9268 243.023 79.9947 242.194 80.0786C242.129 80.0856 242.064 80.0798 242.002 80.0615C241.939 80.0432 241.881 80.0128 241.831 79.972C241.78 79.9312 241.738 79.8809 241.707 79.8239C241.676 79.7668 241.656 79.7042 241.65 79.6395C241.643 79.5749 241.648 79.5095 241.667 79.4472C241.685 79.3848 241.715 79.3266 241.756 79.276C241.797 79.2253 241.847 79.1832 241.904 79.1521C241.961 79.1209 242.023 79.1012 242.088 79.0943C242.93 78.9952 243.775 78.9145 244.622 78.8522C245.47 78.7885 246.318 78.746 247.166 78.7258C247.306 78.7219 247.443 78.774 247.545 78.8708C247.647 78.9676 247.706 79.1011 247.71 79.2419C247.714 79.3827 247.662 79.5193 247.566 79.6217C247.469 79.724 247.336 79.7837 247.195 79.7877L247.188 79.7834ZM237.237 80.7922C236.416 80.9458 235.598 81.1172 234.783 81.3062C233.97 81.4941 233.159 81.7001 232.353 81.9189C232.248 81.9486 232.136 81.9354 232.041 81.8822C231.946 81.8291 231.876 81.7403 231.846 81.6354C231.816 81.5304 231.829 81.418 231.883 81.3228C231.936 81.2277 232.024 81.1575 232.129 81.1278C232.941 80.8857 233.759 80.6634 234.582 80.4609C235.405 80.2584 236.232 80.0716 237.063 79.9002C237.121 79.8883 237.181 79.888 237.24 79.8994C237.298 79.9108 237.354 79.9336 237.404 79.9665C237.453 79.9994 237.496 80.0419 237.529 80.0913C237.563 80.1408 237.586 80.1964 237.598 80.2549C237.61 80.3134 237.61 80.3737 237.599 80.4323C237.587 80.4909 237.565 80.5467 237.532 80.5965C237.499 80.6463 237.457 80.6891 237.407 80.7225C237.358 80.7559 237.302 80.7792 237.244 80.7912L237.237 80.7922ZM227.57 83.4352C226.783 83.7184 226.003 84.02 225.228 84.34C224.454 84.6585 223.685 84.992 222.923 85.3381C222.854 85.3629 222.778 85.3611 222.711 85.3331C222.643 85.3051 222.588 85.253 222.557 85.1867C222.526 85.1205 222.52 85.045 222.541 84.9748C222.562 84.9047 222.609 84.8449 222.671 84.8072C223.431 84.4341 224.199 84.0802 224.975 83.7453C225.751 83.4105 226.534 83.088 227.322 82.7779C227.366 82.7611 227.412 82.7529 227.458 82.754C227.505 82.755 227.551 82.7652 227.593 82.784C227.636 82.8028 227.674 82.8298 227.706 82.8634C227.739 82.8971 227.764 82.9368 227.781 82.9802C227.797 83.0237 227.806 83.07 227.805 83.1166C227.803 83.1632 227.793 83.2091 227.775 83.2518C227.756 83.2944 227.729 83.3329 227.695 83.3651C227.662 83.3974 227.622 83.4226 227.579 83.4395L227.57 83.4352ZM218.432 87.6031C217.698 88.0098 216.974 88.4346 216.255 88.8689C215.537 89.3032 214.827 89.7524 214.125 90.2154C214.094 90.2301 214.06 90.2334 214.027 90.2247C213.994 90.216 213.965 90.1959 213.946 90.1679C213.926 90.1399 213.918 90.1059 213.921 90.072C213.924 90.038 213.94 90.0064 213.964 89.9828C214.652 89.4944 215.35 89.019 216.057 88.5567C216.764 88.0948 217.483 87.6509 218.209 87.2187C218.234 87.2029 218.263 87.1924 218.292 87.1877C218.321 87.1829 218.351 87.1842 218.38 87.1912C218.409 87.1983 218.437 87.2111 218.46 87.2289C218.484 87.2467 218.505 87.269 218.52 87.2947C218.535 87.3204 218.545 87.3489 218.549 87.3784C218.553 87.408 218.551 87.4381 218.543 87.4669C218.536 87.4957 218.522 87.5227 218.504 87.5463C218.486 87.5699 218.463 87.5896 218.437 87.6042L218.432 87.6031ZM210.021 93.1483L208.209 94.5978L209.962 93.0729C209.971 93.0646 209.984 93.0604 209.996 93.0613C210.009 93.0622 210.021 93.0681 210.029 93.0777C210.037 93.0873 210.041 93.0997 210.041 93.1124C210.04 93.125 210.034 93.1368 210.024 93.1451L210.021 93.1483Z" fill="#2E90FA"/>
</g>
<path d="M202.165 117.815C210.533 117.815 217.317 111.017 217.317 102.632C217.317 94.2468 210.533 87.4492 202.165 87.4492C193.798 87.4492 187.014 94.2468 187.014 102.632C187.014 111.017 193.798 117.815 202.165 117.815Z" fill="url(#paint12_linear_53_1453)"/>
<path d="M294.314 176.689C302.776 176.689 309.636 169.815 309.636 161.336C309.636 152.856 302.776 145.982 294.314 145.982C285.852 145.982 278.993 152.856 278.993 161.336C278.993 169.815 285.852 176.689 294.314 176.689Z" fill="url(#paint13_linear_53_1453)"/>
<path d="M302.234 159.249C302.292 160.265 301.992 161.268 301.386 162.084L301.042 162.493L294.896 169.785C294.826 169.869 294.738 169.936 294.639 169.982C294.54 170.028 294.432 170.052 294.323 170.052C294.214 170.052 294.106 170.028 294.007 169.982C293.908 169.936 293.821 169.869 293.75 169.785L287.717 162.624L287.633 162.541L287.209 162.032C286.851 161.566 286.59 161.032 286.443 160.463C286.297 159.893 286.267 159.299 286.355 158.717C286.444 158.136 286.649 157.578 286.959 157.078C287.269 156.578 287.677 156.147 288.158 155.809C288.638 155.471 289.183 155.235 289.757 155.114C290.332 154.993 290.925 154.99 291.501 155.105C292.077 155.22 292.623 155.451 293.108 155.784C293.592 156.117 294.004 156.545 294.318 157.042C294.831 156.295 295.564 155.727 296.415 155.418C297.265 155.108 298.191 155.073 299.062 155.316C299.934 155.559 300.708 156.068 301.277 156.774C301.845 157.479 302.18 158.344 302.234 159.249Z" fill="white"/>
<path d="M279.541 104.464C287.021 104.464 293.084 98.3873 293.084 90.8917C293.084 83.3962 287.021 77.3198 279.541 77.3198C272.061 77.3198 265.997 83.3962 265.997 90.8917C265.997 98.3873 272.061 104.464 279.541 104.464Z" fill="url(#paint14_linear_53_1453)"/>
<path d="M272.272 100.41C272.272 100.41 274.406 85.166 286.774 82.6016C286.774 82.6016 288.415 87.5276 284.499 88.1583C281.016 88.719 280.66 89.2457 280.909 90.0464C281.042 90.4711 282.037 90.4063 282.682 90.2216C282.732 90.2062 282.786 90.2074 282.836 90.2248C282.886 90.2422 282.929 90.275 282.96 90.3186C282.99 90.3621 283.005 90.4141 283.004 90.4671C283.003 90.52 282.985 90.5713 282.953 90.6134C282.567 91.1178 281.941 91.9248 279.311 92.5184C278.393 92.7255 277.588 93.2734 276.945 93.9615C275.98 94.9936 274.471 96.9008 272.272 100.41Z" fill="white"/>
<path opacity="0.15" d="M254.567 169.954L241.479 203.738C241.4 203.943 241.275 204.128 241.113 204.277C240.952 204.426 240.758 204.536 240.547 204.597C240.336 204.659 240.114 204.671 239.898 204.632C239.681 204.594 239.477 204.506 239.3 204.375L228.718 196.53L219.878 202.949C219.65 203.106 219.383 203.198 219.107 203.213C218.831 203.228 218.556 203.166 218.313 203.034C218.07 202.902 217.868 202.705 217.729 202.465C217.591 202.225 217.521 201.952 217.528 201.675L217.913 189.751L207.168 183.014C206.928 182.865 206.738 182.647 206.622 182.389C206.506 182.131 206.469 181.844 206.516 181.565C206.563 181.286 206.693 181.027 206.887 180.822C207.082 180.617 207.333 180.474 207.609 180.413L254.567 169.954Z" fill="#194185"/>
<path d="M223.334 184.036L225.196 185.916L216.381 192.319C216.154 192.483 215.886 192.581 215.606 192.6C215.327 192.62 215.048 192.56 214.801 192.429C214.554 192.297 214.348 192.099 214.208 191.856C214.067 191.614 213.998 191.336 214.007 191.056L214.393 179.141L203.644 172.405C203.404 172.255 203.215 172.037 203.099 171.778C202.983 171.52 202.947 171.232 202.995 170.953C203.043 170.674 203.173 170.415 203.368 170.21C203.563 170.005 203.814 169.863 204.09 169.801L251.052 159.348L223.334 184.036Z" fill="url(#paint15_linear_53_1453)"/>
<path d="M214.393 179.141L251.052 159.348L225.196 185.916L216.263 192.405C216.047 192.561 215.792 192.654 215.526 192.673C215.26 192.691 214.995 192.635 214.759 192.509C214.524 192.384 214.328 192.195 214.195 191.964C214.061 191.733 213.995 191.469 214.004 191.202L214.393 179.141Z" fill="url(#paint16_linear_53_1453)"/>
<path d="M251.052 159.348L237.96 193.133C237.881 193.338 237.755 193.521 237.594 193.669C237.432 193.817 237.239 193.926 237.028 193.987C236.818 194.048 236.596 194.06 236.381 194.021C236.165 193.982 235.962 193.894 235.785 193.764L225.198 185.916L224.396 185.106C224.26 184.968 224.153 184.804 224.082 184.624C224.011 184.443 223.978 184.25 223.984 184.056C223.99 183.863 224.035 183.672 224.117 183.496C224.199 183.32 224.316 183.163 224.461 183.034L251.052 159.348Z" fill="url(#paint17_linear_53_1453)"/>
<defs>
<linearGradient id="paint0_linear_53_1453" x1="202.501" y1="-19.1046" x2="202.501" y2="327.672" gradientUnits="userSpaceOnUse">
<stop stop-color="white"/>
<stop offset="0.958333" stop-color="#1B91FB"/>
</linearGradient>
<linearGradient id="paint1_linear_53_1453" x1="173.339" y1="126.754" x2="173.339" y2="-13.3012" gradientUnits="userSpaceOnUse">
<stop stop-color="white"/>
<stop offset="0.11" stop-color="#FAFCFF"/>
<stop offset="0.24" stop-color="#EAF5FF"/>
<stop offset="0.38" stop-color="#D1E9FE"/>
<stop offset="0.54" stop-color="#ADD8FE"/>
<stop offset="0.71" stop-color="#80C2FD"/>
<stop offset="0.87" stop-color="#49A7FC"/>
<stop offset="1" stop-color="#1B91FB"/>
</linearGradient>
<linearGradient id="paint2_linear_53_1453" x1="78.8387" y1="174.915" x2="78.8387" y2="-49.485" gradientUnits="userSpaceOnUse">
<stop stop-color="white"/>
<stop offset="0.16" stop-color="#D4EAFE"/>
<stop offset="0.46" stop-color="#85C4FD"/>
<stop offset="0.71" stop-color="#4CA9FC"/>
<stop offset="0.9" stop-color="#2897FB"/>
<stop offset="1" stop-color="#1B91FB"/>
</linearGradient>
<linearGradient id="paint3_linear_53_1453" x1="4539.12" y1="250646" x2="4539.12" y2="33524" gradientUnits="userSpaceOnUse">
<stop stop-color="white"/>
<stop offset="0.16" stop-color="#D4EAFE"/>
<stop offset="0.46" stop-color="#85C4FD"/>
<stop offset="0.71" stop-color="#4CA9FC"/>
<stop offset="0.9" stop-color="#2897FB"/>
<stop offset="1" stop-color="#1B91FB"/>
</linearGradient>
<linearGradient id="paint4_linear_53_1453" x1="4448.85" y1="260804" x2="4448.85" y2="151820" gradientUnits="userSpaceOnUse">
<stop stop-color="white"/>
<stop offset="0.16" stop-color="#D4EAFE"/>
<stop offset="0.46" stop-color="#85C4FD"/>
<stop offset="0.71" stop-color="#4CA9FC"/>
<stop offset="0.9" stop-color="#2897FB"/>
<stop offset="1" stop-color="#1B91FB"/>
</linearGradient>
<linearGradient id="paint5_linear_53_1453" x1="349.683" y1="233.427" x2="308.041" y2="233.427" gradientUnits="userSpaceOnUse">
<stop stop-color="#1B91FB"/>
<stop offset="1" stop-color="#2A4C95"/>
</linearGradient>
<linearGradient id="paint6_linear_53_1453" x1="169707" y1="151805" x2="169707" y2="238788" gradientUnits="userSpaceOnUse">
<stop stop-color="white"/>
<stop offset="0.42" stop-color="#A1D2FD"/>
<stop offset="1" stop-color="#1B91FB"/>
</linearGradient>
<linearGradient id="paint7_linear_53_1453" x1="340.237" y1="235.22" x2="340.237" y2="222.092" gradientUnits="userSpaceOnUse">
<stop stop-color="#FF851A"/>
<stop offset="0.4" stop-color="#FF9A23"/>
<stop offset="1" stop-color="#FFB52F"/>
</linearGradient>
<linearGradient id="paint8_linear_53_1453" x1="82.4406" y1="197.388" x2="82.4406" y2="244.673" gradientUnits="userSpaceOnUse">
<stop stop-color="#61D2A7"/>
<stop offset="0.48" stop-color="#4EB98E"/>
<stop offset="1" stop-color="#36996E"/>
</linearGradient>
<linearGradient id="paint9_linear_53_1453" x1="17799.9" y1="90518.7" x2="17799.9" y2="105986" gradientUnits="userSpaceOnUse">
<stop stop-color="#61D2A7"/>
<stop offset="0.48" stop-color="#4EB98E"/>
<stop offset="1" stop-color="#36996E"/>
</linearGradient>
<linearGradient id="paint10_linear_53_1453" x1="25042" y1="65210.8" x2="25042" y2="76342.6" gradientUnits="userSpaceOnUse">
<stop stop-color="#61D2A7"/>
<stop offset="0.48" stop-color="#4EB98E"/>
<stop offset="1" stop-color="#36996E"/>
</linearGradient>
<linearGradient id="paint11_linear_53_1453" x1="72281.1" y1="128508" x2="72281.1" y2="159294" gradientUnits="userSpaceOnUse">
<stop stop-color="#1B91FB"/>
<stop offset="1" stop-color="#2A4C95"/>
</linearGradient>
<linearGradient id="paint12_linear_53_1453" x1="72327.4" y1="51955.7" x2="80992.4" y2="51955.7" gradientUnits="userSpaceOnUse">
<stop stop-color="#61D2A7"/>
<stop offset="0.48" stop-color="#4EB98E"/>
<stop offset="1" stop-color="#36996E"/>
</linearGradient>
<linearGradient id="paint13_linear_53_1453" x1="99830" y1="69574" x2="108692" y2="69574" gradientUnits="userSpaceOnUse">
<stop stop-color="#FF851A"/>
<stop offset="0.4" stop-color="#FF9A23"/>
<stop offset="1" stop-color="#FFB52F"/>
</linearGradient>
<linearGradient id="paint14_linear_53_1453" x1="84941.9" y1="43441.2" x2="91866" y2="43441.2" gradientUnits="userSpaceOnUse">
<stop stop-color="#1B91FB"/>
<stop offset="1" stop-color="#2A4C95"/>
</linearGradient>
<linearGradient id="paint15_linear_53_1453" x1="107230" y1="92668.9" x2="119834" y2="70642.6" gradientUnits="userSpaceOnUse">
<stop stop-color="#FF851A"/>
<stop offset="0.4" stop-color="#FF9A23"/>
<stop offset="1" stop-color="#FFB52F"/>
</linearGradient>
<linearGradient id="paint16_linear_53_1453" x1="102273" y1="79481.5" x2="90808.3" y2="94650.7" gradientUnits="userSpaceOnUse">
<stop stop-color="#FF851A"/>
<stop offset="0.4" stop-color="#FF9A23"/>
<stop offset="1" stop-color="#FFB52F"/>
</linearGradient>
<linearGradient id="paint17_linear_53_1453" x1="68236.7" y1="104614" x2="82755.1" y2="91146.3" gradientUnits="userSpaceOnUse">
<stop stop-color="#FF851A"/>
<stop offset="0.4" stop-color="#FF9A23"/>
<stop offset="1" stop-color="#FFB52F"/>
</linearGradient>
</defs>
</svg>
