<svg width="28" height="29" viewBox="0 0 28 29" fill="none" xmlns="http://www.w3.org/2000/svg">
<g clip-path="url(#clip0_427_5041)">
<path d="M0 16.383C0.134167 16.1978 0.291667 16.0454 0.543958 16.1387C0.79625 16.232 0.825417 16.4406 0.820312 16.6739C0.81375 17.0188 0.820312 17.3637 0.820312 17.748H1.12073C6.2249 17.748 11.3276 17.7497 16.4289 17.7531C16.6425 17.7531 16.7482 17.6802 16.8503 17.5037C17.7793 15.8786 18.7136 14.2567 19.6532 12.638C20.1549 11.7688 20.7827 11.6047 21.657 12.1101C22.9549 12.8601 24.2531 13.6097 25.5515 14.3588C26.3433 14.8174 26.5205 15.4773 26.0677 16.2648C25.7928 16.7439 25.5165 17.2222 25.2241 17.729H27.1097V4.37578H25.5595C25.4596 4.37578 25.359 4.38016 25.2591 4.37578C25.1533 4.37418 25.0521 4.33209 24.9764 4.25816C24.9007 4.18424 24.8563 4.08411 24.8522 3.97839C24.8508 3.92346 24.8606 3.86881 24.881 3.81779C24.9014 3.76677 24.9319 3.72044 24.9708 3.68162C25.0097 3.6428 25.0561 3.6123 25.1072 3.59199C25.1582 3.57168 25.2129 3.56199 25.2678 3.56349C25.8045 3.55401 26.3411 3.56349 26.8778 3.56349H27.125C27.1327 3.41606 27.1327 3.26832 27.125 3.12089C27.1201 3.02405 27.0794 2.93248 27.0108 2.86392C26.9423 2.79536 26.8507 2.75467 26.7539 2.74974C26.6632 2.7422 26.5721 2.74049 26.4811 2.74464H10.3228C9.88531 2.74464 9.68917 2.61411 9.69719 2.32318C9.70521 2.04536 9.89187 1.92578 10.3199 1.92578H26.5285C27.4633 1.92578 27.9453 2.40266 27.9453 3.32943V19.3405C27.9453 20.2716 27.467 20.7492 26.5344 20.7499C26.0436 20.7499 25.5522 20.7499 25.0615 20.7499C24.7355 20.7499 24.5576 20.6041 24.5547 20.3467C24.5518 20.0893 24.7297 19.934 25.0498 19.9326C25.5682 19.9326 26.0867 19.9326 26.6051 19.9326C26.9872 19.9326 27.1243 19.7867 27.1265 19.4017C27.1265 19.1378 27.1265 18.8745 27.1265 18.569H26.5854C26.0575 18.569 25.5296 18.5792 25.0024 18.5632C24.8026 18.5581 24.6998 18.6244 24.6006 18.7972C23.153 21.3187 21.7012 23.8377 20.2453 26.3543C20.0783 26.646 19.8858 26.9005 19.565 27.0339C19.3947 27.1124 19.2079 27.1485 19.0206 27.1391C18.8333 27.1297 18.6511 27.0751 18.4895 26.9799C17.0555 26.1574 15.6234 25.3311 14.1932 24.5008C14.1006 24.4468 13.9898 24.3834 13.9446 24.2952C13.7987 24.013 13.5625 24.0239 13.3007 24.0246C11.418 24.0312 9.53531 24.029 7.6526 24.0283C6.8024 24.0283 6.3576 23.407 6.62667 22.5998C6.72648 22.2996 6.91867 22.0387 7.17576 21.8543C7.43284 21.6699 7.74165 21.5715 8.05802 21.5732C9.00594 21.5673 9.94948 21.5732 10.8959 21.5732C11.3816 21.5732 11.6754 21.291 11.7286 20.7543H11.4049C8.11198 20.7543 4.81906 20.7427 1.52688 20.7631C0.766354 20.7674 0.248646 20.5035 0 19.7714L0 16.383ZM25.5412 15.4526C25.4209 15.3337 25.3145 15.1755 25.1665 15.088C23.8335 14.307 22.4941 13.5385 21.156 12.7678C20.7987 12.5621 20.6165 12.6081 20.4152 12.9559C18.4557 16.347 16.4972 19.7384 14.5396 23.1299C14.3332 23.4887 14.3777 23.6615 14.7328 23.8671C16.0774 24.6449 17.4227 25.4227 18.7687 26.2005C19.1166 26.401 19.2981 26.3499 19.503 25.9941C21.462 22.603 23.4194 19.2112 25.375 15.8186C25.4304 15.7267 25.4654 15.6232 25.5412 15.4526ZM16.2181 18.5836H0.818854V19.304C0.818854 19.8224 0.925313 19.9311 1.435 19.9311H15.1521C15.2061 19.9387 15.261 19.9375 15.3147 19.9274C15.3876 19.909 15.4534 19.8691 15.5035 19.813C15.742 19.4178 15.9687 19.0153 16.2181 18.5836ZM14 22.3906C11.9773 22.3906 9.98958 22.3906 7.99823 22.3949C7.74448 22.3949 7.55344 22.5452 7.43823 22.7727C7.28219 23.0826 7.35875 23.2058 7.70073 23.2058H13.588C13.7295 22.9287 13.8542 22.6801 14 22.3906ZM12.6241 20.7609C12.5285 21.0329 12.4389 21.2866 12.339 21.5681C13.0317 21.5681 13.7098 21.5681 14.3879 21.5644C14.4175 21.5621 14.4462 21.5536 14.4722 21.5394C14.4982 21.5252 14.5209 21.5056 14.5389 21.482C14.6803 21.2538 14.8101 21.019 14.9589 20.7609H12.6241Z" fill="#C10037"/>
<path d="M0.000729167 2.902C0.249375 2.17283 0.767083 1.90231 1.5276 1.91033C3.77417 1.93512 6.02146 1.91908 8.26802 1.91981C8.3588 1.91316 8.45005 1.91683 8.54 1.93075C8.63143 1.94485 8.71463 1.99165 8.77417 2.06245C8.83371 2.13325 8.86554 2.22325 8.86375 2.31575C8.87148 2.41272 8.84213 2.50902 8.78164 2.58521C8.72115 2.6614 8.63401 2.71181 8.53781 2.72627C8.44813 2.74043 8.35713 2.74434 8.26656 2.73793H1.55313C0.869896 2.73793 0.783125 2.83127 0.834896 3.55679H23.361C23.4609 3.55105 23.5611 3.553 23.6607 3.56262C23.8868 3.59762 24.0253 3.73033 24.0253 3.96658C24.0253 4.20283 23.8882 4.33481 23.6607 4.36981C23.5611 4.37882 23.4609 4.38052 23.361 4.37491H0.819583V14.5373C0.819583 14.6007 0.819583 14.6642 0.819583 14.7276C0.831979 14.961 0.794062 15.1717 0.543229 15.2636C0.292396 15.3554 0.134896 15.2038 0 15.0186L0.000729167 2.902Z" fill="#C10037"/>
<path d="M15.4084 16.3816C11.3579 16.3014 7.69818 13.1565 7.0412 9.17747C6.96172 8.69477 6.92599 8.20404 6.89099 7.71914C6.86693 7.38445 7.03245 7.18175 7.28911 7.17591C7.54578 7.17008 7.6887 7.35966 7.7062 7.7031C7.8739 11.0388 9.46227 13.4324 12.4713 14.8839C13.4156 15.3375 14.4328 15.5343 15.4798 15.5679C15.5616 15.5656 15.6434 15.568 15.7248 15.5752C15.9523 15.6087 16.0851 15.7436 16.0974 15.9748C16.1 16.0808 16.0605 16.1836 15.9875 16.2607C15.9146 16.3377 15.8141 16.3828 15.7081 16.386C15.6089 16.3889 15.5083 16.3816 15.4084 16.3816Z" fill="#666666"/>
<path d="M16.0002 13.6506C12.7416 13.5776 9.92187 10.9162 9.65646 7.659C9.6426 7.4964 9.62583 7.33379 9.62146 7.17046C9.61271 6.83359 9.76219 6.63306 10.0189 6.62431C10.2755 6.61556 10.4235 6.80442 10.4389 7.14713C10.5315 9.20775 11.4349 10.8141 13.1616 11.9429C14.013 12.4936 14.999 12.8007 16.0126 12.831C16.4603 12.8499 16.6528 12.9703 16.6492 13.2488C16.6455 13.5273 16.4362 13.66 16.0002 13.6506Z" fill="#666666"/>
<path d="M16.608 10.9223C14.3243 10.8669 12.3737 8.89301 12.3438 6.60634C12.3395 6.28988 12.4838 6.09593 12.7325 6.07915C12.9811 6.06238 13.1459 6.25124 13.162 6.58957C13.2502 8.50728 14.7574 10.0363 16.6248 10.102C17.0112 10.1158 17.2081 10.2646 17.1884 10.5358C17.1687 10.8071 16.977 10.931 16.608 10.9223Z" fill="#666666"/>
<path d="M17.2435 8.19381C16.1023 8.17777 15.0859 7.15693 15.0742 6.01433C15.0742 5.74308 15.2201 5.55277 15.4563 5.53454C15.6926 5.51631 15.8617 5.6862 15.8902 5.95818C15.9784 6.81277 16.4655 7.30277 17.3004 7.37714C17.5745 7.4012 17.7452 7.56745 17.7379 7.80152C17.7306 8.03558 17.5352 8.19818 17.2435 8.19381Z" fill="#666666"/>
<path d="M20.6654 15.623C21.5696 15.7317 22.4468 16.1619 23.009 17.0814C23.4968 17.8769 23.041 18.6513 22.1048 18.6032C21.0533 18.5492 20.2024 18.0621 19.6366 17.1667C19.1385 16.3748 19.5855 15.6252 20.6654 15.623ZM20.2666 16.517C20.4124 17.2279 21.7679 17.9994 22.3724 17.7165C22.2565 17.0209 20.8798 16.2363 20.2666 16.517Z" fill="#666666"/>
<path d="M16.2122 23.1045C16.1554 23.1044 16.0991 23.0931 16.0467 23.0713C15.9943 23.0494 15.9467 23.0174 15.9067 22.9771C15.8666 22.9368 15.8349 22.889 15.8134 22.8364C15.7919 22.7838 15.781 22.7275 15.7813 22.6707C15.7859 22.5561 15.8343 22.4477 15.9166 22.3678C15.9988 22.2879 16.1085 22.2426 16.2231 22.2412C16.3373 22.2441 16.4457 22.2914 16.5254 22.3732C16.6051 22.4549 16.6497 22.5645 16.6497 22.6787C16.65 22.7357 16.6388 22.7922 16.6168 22.8448C16.5948 22.8974 16.5624 22.9449 16.5215 22.9847C16.4807 23.0245 16.4322 23.0556 16.3791 23.0762C16.3259 23.0968 16.2692 23.1064 16.2122 23.1045Z" fill="#666666"/>
<path d="M18.0664 23.5012C18.0665 23.558 18.0551 23.6143 18.0329 23.6666C18.0108 23.7189 17.9783 23.7663 17.9375 23.8058C17.8967 23.8453 17.8483 23.8762 17.7953 23.8967C17.7423 23.9171 17.6857 23.9267 17.6289 23.9249C17.5144 23.9247 17.4046 23.879 17.3237 23.798C17.2427 23.7169 17.1973 23.607 17.1973 23.4925C17.2013 23.3783 17.2489 23.2701 17.3303 23.19C17.4117 23.1098 17.5206 23.0639 17.6348 23.0615C17.7502 23.0631 17.8603 23.1101 17.9411 23.1925C18.022 23.2748 18.067 23.3858 18.0664 23.5012Z" fill="#666666"/>
<path d="M18.684 18.8526C18.5699 18.8555 18.4593 18.8136 18.3756 18.7359C18.292 18.6583 18.242 18.551 18.2363 18.437C18.2359 18.3223 18.2799 18.2118 18.3592 18.1289C18.4384 18.0459 18.5468 17.9969 18.6614 17.9922C18.7757 17.9906 18.8861 18.0338 18.969 18.1126C19.0519 18.1914 19.1006 18.2994 19.1048 18.4137C19.1066 18.4703 19.0971 18.5267 19.0769 18.5796C19.0566 18.6325 19.026 18.6808 18.9868 18.7217C18.9476 18.7626 18.9006 18.7953 18.8486 18.8177C18.7966 18.8402 18.7407 18.8521 18.684 18.8526Z" fill="#666666"/>
<path d="M20.5227 19.2313C20.5246 19.2879 20.5151 19.3442 20.4948 19.397C20.4745 19.4498 20.4439 19.498 20.4047 19.5388C20.3655 19.5796 20.3185 19.6121 20.2665 19.6344C20.2145 19.6568 20.1586 19.6684 20.102 19.6688C19.9877 19.6716 19.8768 19.6295 19.7931 19.5515C19.7094 19.4736 19.6596 19.366 19.6543 19.2517C19.6538 19.1371 19.6979 19.0267 19.7772 18.9438C19.8565 18.861 19.9648 18.8122 20.0794 18.8077C20.1941 18.8061 20.3048 18.8496 20.3877 18.9288C20.4706 19.008 20.5191 19.1167 20.5227 19.2313Z" fill="#666666"/>
<path d="M21.5227 20.4904C21.466 20.4926 21.4094 20.4837 21.3562 20.464C21.3029 20.4444 21.2541 20.4144 21.2124 20.3759C21.1708 20.3374 21.1371 20.291 21.1134 20.2395C21.0897 20.1879 21.0764 20.1322 21.0742 20.0755C21.073 19.9608 21.1165 19.8502 21.1954 19.767C21.2744 19.6839 21.3826 19.6347 21.4972 19.63C21.6115 19.6278 21.7221 19.6704 21.8054 19.7488C21.8887 19.8271 21.9379 19.935 21.9427 20.0492C21.9448 20.106 21.9356 20.1626 21.9155 20.2157C21.8954 20.2688 21.8649 20.3173 21.8258 20.3584C21.7866 20.3995 21.7396 20.4324 21.6876 20.4551C21.6355 20.4777 21.5795 20.4897 21.5227 20.4904Z" fill="#666666"/>
<path d="M17.4683 21.2617C17.4689 21.3185 17.4581 21.3748 17.4364 21.4273C17.4148 21.4798 17.3828 21.5274 17.3424 21.5673C17.302 21.6072 17.2539 21.6385 17.2012 21.6594C17.1484 21.6803 17.0919 21.6904 17.0352 21.689C16.9783 21.6896 16.9218 21.679 16.8691 21.6577C16.8163 21.6365 16.7682 21.6051 16.7276 21.5653C16.687 21.5255 16.6546 21.478 16.6323 21.4257C16.61 21.3734 16.5982 21.3172 16.5977 21.2603C16.6007 21.1456 16.6478 21.0365 16.7294 20.9558C16.8109 20.8751 16.9205 20.829 17.0352 20.8271C17.1499 20.8283 17.2596 20.8745 17.3407 20.9558C17.4217 21.0371 17.4675 21.147 17.4683 21.2617Z" fill="#666666"/>
<path d="M21.1238 21.4836C21.1237 21.5405 21.1123 21.5968 21.0901 21.6491C21.0679 21.7015 21.0355 21.7489 20.9947 21.7885C20.9539 21.8281 20.9056 21.8592 20.8527 21.8798C20.7997 21.9005 20.7431 21.9103 20.6863 21.9088C20.5717 21.9088 20.4619 21.8633 20.3808 21.7824C20.2997 21.7014 20.2541 21.5916 20.2539 21.4771C20.2571 21.3627 20.3044 21.2541 20.386 21.1739C20.4676 21.0937 20.577 21.0481 20.6914 21.0469C20.8064 21.0482 20.9163 21.0948 20.9972 21.1765C21.0781 21.2583 21.1236 21.3686 21.1238 21.4836Z" fill="#666666"/>
<path d="M18.2864 19.829C18.2887 19.8857 18.2795 19.9423 18.2595 19.9954C18.2395 20.0485 18.2091 20.097 18.17 20.1382C18.1309 20.1793 18.0839 20.2122 18.0319 20.2348C17.9799 20.2575 17.9239 20.2695 17.8671 20.2701C17.7525 20.2745 17.6408 20.2332 17.5566 20.1552C17.4724 20.0773 17.4225 19.9692 17.418 19.8545C17.4175 19.7399 17.4612 19.6295 17.5402 19.5463C17.6191 19.4632 17.7271 19.4137 17.8416 19.4083C17.9561 19.4063 18.0667 19.4492 18.1499 19.5279C18.233 19.6065 18.282 19.7146 18.2864 19.829Z" fill="#666666"/>
<path d="M19.2632 20.2276C19.3777 20.2266 19.4879 20.2704 19.5704 20.3497C19.6528 20.4291 19.7009 20.5376 19.7044 20.6519C19.7062 20.7087 19.6966 20.7653 19.6762 20.8183C19.6557 20.8713 19.6248 20.9197 19.5853 20.9605C19.5458 21.0013 19.4984 21.0338 19.4461 21.0559C19.3938 21.0781 19.3375 21.0895 19.2807 21.0894C19.1664 21.0914 19.0559 21.0486 18.9727 20.9701C18.8896 20.8916 18.8405 20.7837 18.8359 20.6694C18.8364 20.5549 18.8811 20.445 18.9608 20.3626C19.0404 20.2803 19.1488 20.2319 19.2632 20.2276Z" fill="#666666"/>
<path d="M18.886 22.0689C18.8879 22.1256 18.8784 22.182 18.858 22.2348C18.8377 22.2877 18.807 22.3359 18.7677 22.3767C18.7284 22.4175 18.6813 22.45 18.6293 22.4723C18.5772 22.4946 18.5212 22.5062 18.4646 22.5064C18.3499 22.5102 18.2385 22.4683 18.1547 22.39C18.0709 22.3116 18.0216 22.2033 18.0176 22.0886C18.0175 21.9741 18.0616 21.8639 18.1409 21.7812C18.2201 21.6984 18.3282 21.6495 18.4427 21.6446C18.5575 21.643 18.6683 21.6866 18.7512 21.766C18.8342 21.8454 18.8826 21.9542 18.886 22.0689Z" fill="#666666"/>
<path d="M20.3047 22.9023C20.3046 22.9592 20.2932 23.0154 20.271 23.0677C20.2488 23.12 20.2164 23.1674 20.1756 23.2069C20.1348 23.2465 20.0865 23.2775 20.0335 23.2981C19.9806 23.3186 19.924 23.3284 19.8672 23.3267C19.7527 23.3265 19.6429 23.2809 19.5619 23.1998C19.481 23.1187 19.4355 23.0089 19.4355 22.8943C19.4393 22.7802 19.4868 22.6719 19.5683 22.592C19.6498 22.512 19.7589 22.4665 19.873 22.4648C19.9881 22.4664 20.0979 22.5131 20.1786 22.595C20.2594 22.6769 20.3047 22.7873 20.3047 22.9023Z" fill="#666666"/>
<path d="M19.0665 23.8819C19.1811 23.8868 19.2893 23.9366 19.3675 24.0205C19.4458 24.1043 19.488 24.2156 19.4851 24.3303C19.484 24.3871 19.4714 24.4431 19.4482 24.495C19.425 24.5469 19.3916 24.5935 19.3499 24.6322C19.3083 24.6708 19.2592 24.7007 19.2058 24.72C19.1523 24.7393 19.0955 24.7476 19.0388 24.7445C18.9821 24.7433 18.9261 24.731 18.8741 24.7081C18.8222 24.6853 18.7753 24.6524 18.7361 24.6113C18.6969 24.5702 18.6662 24.5218 18.6459 24.4688C18.6255 24.4158 18.6158 24.3593 18.6173 24.3026C18.6234 24.188 18.6735 24.0802 18.7572 24.0018C18.841 23.9234 18.9518 23.8804 19.0665 23.8819Z" fill="#666666"/>
<path d="M23.9646 16.2369C23.8507 16.2369 23.7415 16.1916 23.6609 16.1111C23.5804 16.0306 23.5352 15.9213 23.5352 15.8074C23.5352 15.6935 23.5804 15.5843 23.6609 15.5037C23.7415 15.4232 23.8507 15.3779 23.9646 15.3779C24.0785 15.3779 24.1878 15.4232 24.2683 15.5037C24.3489 15.5843 24.3941 15.6935 24.3941 15.8074C24.3941 15.9213 24.3489 16.0306 24.2683 16.1111C24.1878 16.1916 24.0785 16.2369 23.9646 16.2369Z" fill="#666666"/>
</g>
<defs>
<clipPath id="clip0_427_5041">
<rect width="28" height="28" fill="white" transform="translate(0 0.5)"/>
</clipPath>
</defs>
</svg>
