<svg width="28" height="29" viewBox="0 0 28 29" fill="none" xmlns="http://www.w3.org/2000/svg">
<g clip-path="url(#clip0_427_5113)">
<path d="M0 0.554757L11.7031 7.65247L13.5494 5.67715C13.2454 5.18957 13.0664 4.63459 13.028 4.06132C12.9733 3.20533 13.2535 2.3616 13.8095 1.70846C14.3655 1.05532 15.1537 0.643944 16.0074 0.561287C16.8612 0.47863 17.7136 0.731165 18.3846 1.26552C19.0555 1.79987 19.4924 2.57417 19.6029 3.42476C19.7648 4.67236 19.3266 5.69465 18.3517 6.47632C18.2651 6.5363 18.1957 6.61783 18.1503 6.71284C18.1049 6.80786 18.0851 6.91307 18.0928 7.01809C18.1023 8.41882 18.0972 9.81955 18.0972 11.2203V11.5768H18.418C19.8457 11.5768 21.2734 11.5768 22.7019 11.5725C22.8929 11.5725 22.9862 11.6293 23.0665 11.8058C23.5803 12.9783 24.1038 14.1469 24.6371 15.3116C24.7129 15.4714 24.8318 15.6068 24.9805 15.7025C25.8985 16.2741 26.8253 16.8312 27.7514 17.3854C27.8914 17.4692 27.9541 17.5575 27.9504 17.7274C27.9387 18.2728 27.946 18.8211 27.946 19.4219L26.0021 18.2487L25.962 18.2823C26.2033 18.8248 26.444 19.3673 26.6962 19.9353L22.6224 21.7677L22.6304 21.8158H24.9178V23.4382H10.3921V21.8406H12.9062L12.9114 21.8041C12.6197 21.7312 12.328 21.6714 12.0458 21.5752C9.80146 20.811 8.41313 19.2586 8.1025 16.9151C7.77802 14.4629 8.77771 12.559 10.8799 11.2502C10.9465 11.2171 11.0014 11.1645 11.0373 11.0993C11.0731 11.0341 11.0882 10.9596 11.0804 10.8856C11.0688 10.4036 11.0673 9.9209 11.0804 9.43965C11.0863 9.2508 11.0206 9.14799 10.8617 9.05392C7.50215 7.02198 4.14507 4.98688 0.790417 2.94861C0.526458 2.78819 0.263229 2.62632 0 2.46882V0.554757ZM15.2855 12.4584V15.895H11.0666V13.146C10.0151 13.9481 9.24365 15.7819 9.93344 17.5939C10.6101 19.3636 12.3667 20.3939 14.3084 20.1518C16.0665 19.9331 17.5211 18.4164 17.7282 16.5862C17.9236 14.8647 16.8481 13.0206 15.2855 12.4584ZM14.5884 21.7968H22.4335C22.3876 21.6867 22.3555 21.6029 22.3191 21.5212C21.5529 19.8057 20.7861 18.0905 20.0185 16.3755C19.8479 15.9956 19.8399 15.9919 19.4221 16.0838C19.2011 19.2025 17.5685 21.1027 14.5884 21.7998V21.7968ZM12.7145 14.2616H13.6588V9.52934H15.2884C15.2884 9.86913 15.2841 10.1856 15.2884 10.505C15.2884 10.5779 15.314 10.6902 15.3614 10.7106C15.7128 10.8637 16.0723 11.0023 16.4412 11.1481V7.25361L14.6971 6.84382C14.0911 7.49497 13.4378 8.19059 12.7947 8.89642C12.7327 8.96424 12.7181 9.09403 12.7174 9.19611C12.7123 10.1965 12.7174 11.1969 12.7174 12.1974L12.7145 14.2616ZM18.5938 13.2109C18.7556 13.5755 18.9131 13.8912 19.0364 14.2201C19.0969 14.3798 19.1822 14.4177 19.3353 14.4148C19.7626 14.406 20.1906 14.4257 20.6172 14.4053C20.8498 14.3943 20.9672 14.4636 21.062 14.6838C21.5082 15.7178 21.9742 16.7423 22.4335 17.7697C22.7143 18.3975 22.9957 19.0245 23.2852 19.6655L24.5 19.1201C24.5037 19.093 24.5037 19.0655 24.5 19.0384C23.6512 17.1426 22.8006 15.2467 21.9479 13.3509C21.927 13.3154 21.8983 13.2851 21.8639 13.2623C21.8296 13.2396 21.7905 13.225 21.7496 13.2197C20.7083 13.2087 19.6612 13.2109 18.5938 13.2109ZM16.3239 5.53132C16.655 5.53276 16.9791 5.43575 17.255 5.25262C17.5309 5.06948 17.7461 4.80849 17.8734 4.50277C18.0006 4.19706 18.0341 3.86042 17.9697 3.53561C17.9052 3.21081 17.7457 2.91249 17.5113 2.67854C17.277 2.4446 16.9784 2.28558 16.6534 2.22168C16.3285 2.15779 15.9919 2.19191 15.6865 2.31969C15.381 2.44748 15.1203 2.66318 14.9377 2.93939C14.755 3.21561 14.6586 3.53987 14.6606 3.87101C14.6639 4.31085 14.8402 4.73171 15.1515 5.04246C15.4628 5.35321 15.884 5.52884 16.3239 5.53132Z" fill="#C10037"/>
<path d="M0 16.6562H1.63406V20.2605H4.92552V23.5564H8.23156V26.8522H27.9453V28.5001H6.60406V25.2035H6.28031C5.37104 25.2035 4.4625 25.1977 3.55396 25.2079C3.34979 25.2079 3.29 25.1503 3.29219 24.9461C3.3024 24.0376 3.29656 23.1291 3.29656 22.2198V21.896H0V16.6562Z" fill="#666666"/>
</g>
<defs>
<clipPath id="clip0_427_5113">
<rect width="28" height="28" fill="white" transform="translate(0 0.5)"/>
</clipPath>
</defs>
</svg>
