<svg width="28" height="29" viewBox="0 0 28 29" fill="none" xmlns="http://www.w3.org/2000/svg">
<g clip-path="url(#clip0_427_5096)">
<path d="M17.1425 28.5C16.9048 28.3141 16.8866 28.0815 16.9479 27.7993C17.3664 25.8736 17.7696 23.9449 18.1874 22.0192C18.2641 21.6669 18.3615 21.3195 18.4791 20.9787C18.727 20.2561 19.3249 19.8434 20.2335 19.7486C20.2517 19.6757 20.2729 19.6027 20.2933 19.5298C20.5244 18.6585 21.2412 18.0883 22.1417 18.0773C22.798 18.07 23.4498 18.0773 24.117 18.0773C24.3883 17.1972 24.6537 16.3273 24.9191 15.4647C25.2567 14.3775 25.9224 13.9284 27.0614 14.0064C27.1201 14.0108 27.1783 13.9925 27.224 13.9553C27.3881 13.7913 27.5711 13.7504 27.765 13.8751C27.9743 14.01 27.9758 14.2069 27.9065 14.43C27.3815 16.1202 26.8597 17.8117 26.341 19.5043C26.1222 20.2152 25.878 20.9203 25.6942 21.6408C25.6213 21.9361 25.6373 22.2686 25.6745 22.5763C25.8933 24.3525 26.1237 26.1281 26.3592 27.8992C26.3949 28.1653 26.3257 28.3608 26.0982 28.5H25.8255C25.7427 28.4461 25.6737 28.3736 25.6239 28.2883C25.5742 28.2029 25.5451 28.1072 25.5389 28.0086C25.4623 27.3181 25.3632 26.6297 25.272 25.9392H18.1882C18.0423 26.6239 17.9067 27.2998 17.7434 27.9677C17.6967 28.1559 17.5633 28.3236 17.4699 28.5H17.1425ZM18.3741 25.0824H25.1692C25.062 24.2556 24.9395 23.4564 24.8637 22.6521C24.836 22.3604 24.7281 22.3065 24.4641 22.3079C22.7353 22.3189 21.0064 22.3138 19.2775 22.3138H18.9574C18.7577 23.258 18.5659 24.1622 18.3741 25.0824ZM21.072 21.4927C22.3218 21.4927 23.5461 21.4927 24.7704 21.4876C24.8185 21.4876 24.8921 21.4147 24.9096 21.3586C25.167 20.5477 25.4164 19.734 25.6774 18.8911C25.4128 18.8911 25.1787 18.8998 24.9483 18.8911C24.7886 18.883 24.704 18.9253 24.661 19.0952C24.5837 19.4022 24.4831 19.7041 24.3824 20.0052C24.2519 20.3953 24.0018 20.5798 23.5898 20.5842C23.0991 20.59 22.6084 20.5842 22.1177 20.5842H21.0749L21.072 21.4927ZM25.9312 18.0657C26.2652 16.9836 26.5955 15.9124 26.9258 14.8384C26.3979 14.7297 25.9385 14.9959 25.77 15.5172C25.5112 16.3193 25.2684 17.1258 25.0212 17.9308C25.0149 17.9755 25.0149 18.0209 25.0212 18.0657H25.9312ZM21.0888 19.7646C21.8814 19.7646 22.6521 19.7646 23.4221 19.7588C23.4624 19.7559 23.5014 19.7437 23.5361 19.723C23.5708 19.7024 23.6002 19.6739 23.6219 19.6399C23.7116 19.4044 23.7736 19.1594 23.8516 18.8998C23.215 18.8998 22.5989 18.8765 21.9849 18.9078C21.5423 18.9304 21.2025 19.2819 21.0888 19.7646ZM20.2138 20.6068C19.6859 20.5667 19.2221 20.975 19.2265 21.4687H20.2138V20.6068Z" fill="#C10037"/>
<path d="M0 14.0894C0.246458 13.7423 0.400312 13.7183 0.735 13.9582C0.792807 13.9921 0.860399 14.0055 0.926771 13.9961C2.02417 13.8729 2.95312 14.5889 3.09385 15.6775C3.10393 15.7272 3.10408 15.7783 3.0943 15.828C3.08452 15.8776 3.06501 15.9249 3.03687 15.967C3.00874 16.0091 2.97255 16.0452 2.9304 16.0732C2.88824 16.1013 2.84095 16.1207 2.79125 16.1304C2.5725 16.1901 2.41281 16.0961 2.32312 15.9014C2.25823 15.7629 2.22979 15.6097 2.17729 15.4639C2.0967 15.2373 1.9358 15.0482 1.72507 14.9324C1.51434 14.8165 1.26844 14.782 1.03396 14.8354C1.365 15.9109 1.69604 16.9842 2.02854 18.0626H2.96917C2.93198 17.927 2.89625 17.8089 2.86708 17.6886C2.80875 17.4465 2.92104 17.2438 3.14708 17.1782C3.35417 17.1162 3.55906 17.2205 3.64365 17.448C3.71656 17.6499 3.77562 17.8585 3.84417 18.075H5.5475C6.77688 18.075 7.40906 18.5599 7.71167 19.6989C8.03396 19.8002 8.35042 19.86 8.62823 19.9979C9.10875 20.2348 9.4099 20.6454 9.53531 21.1645C9.75601 22.0881 9.96868 23.0134 10.1733 23.9405C10.4599 25.2435 10.7304 26.5501 11.0177 27.8532C11.0768 28.1215 11.0177 28.33 10.8099 28.5014H10.4825C10.2317 28.3279 10.2149 28.0471 10.1588 27.7854C10.026 27.1685 9.89479 26.5516 9.765 25.9435H2.68042C2.58927 26.6427 2.49083 27.3252 2.41573 28.0099C2.40919 28.1082 2.37989 28.2037 2.33016 28.2887C2.28043 28.3737 2.21163 28.446 2.12917 28.4999H1.85646C1.65958 28.3701 1.55604 28.2083 1.58885 27.9531C1.82024 26.1967 2.04701 24.4392 2.26917 22.6805C2.32021 22.2867 2.37125 21.9061 2.24073 21.5007C1.68219 19.7638 1.15646 18.016 0.614688 16.2733C0.415625 15.6345 0.204896 14.9994 0 14.3621V14.0894ZM9.5849 25.094L9.00156 22.3407C8.96683 22.3296 8.93121 22.3216 8.8951 22.3166C7.03865 22.3166 5.18243 22.3149 3.32646 22.3115C3.16896 22.3115 3.12885 22.3793 3.11354 22.5208C3.07052 22.9182 3.01146 23.3141 2.96187 23.7108C2.905 24.1665 2.85104 24.623 2.79344 25.0962L9.5849 25.094ZM6.88698 20.5834H6.5749C5.85667 20.5834 5.13917 20.5834 4.42167 20.5834C3.94698 20.5834 3.70125 20.3989 3.55833 19.9483C3.465 19.6566 3.3826 19.3569 3.28052 19.066C3.25646 18.9974 3.17698 18.9048 3.11719 18.9005C2.84958 18.883 2.58052 18.8932 2.28448 18.8932C2.53312 19.7055 2.77667 20.4828 3.00635 21.2637C3.05885 21.4423 3.14052 21.5029 3.32937 21.5007C4.42896 21.4912 5.52781 21.4963 6.6274 21.4956C6.70687 21.4956 6.78708 21.4868 6.88333 21.481L6.88698 20.5834ZM4.09573 18.8939C4.16865 19.1374 4.2474 19.3496 4.29917 19.5684C4.3349 19.72 4.4049 19.7711 4.56094 19.7674C4.99844 19.758 5.43156 19.7674 5.8676 19.7674H6.86583C6.73313 19.2454 6.36052 18.9129 5.88 18.8997C5.30031 18.8822 4.7199 18.8939 4.09573 18.8939ZM7.74156 20.606V21.4686H8.74198C8.67708 20.9326 8.2549 20.5724 7.73792 20.606H7.74156Z" fill="#C10037"/>
<path d="M11.7925 28.4999C11.4753 28.2082 11.4622 28.0842 11.7101 27.7102C12.0324 27.226 12.3591 26.7448 12.6748 26.257C12.7404 26.1613 12.7787 26.0497 12.7856 25.9339C12.7856 24.5157 12.7995 23.0967 12.7703 21.6792C12.7638 20.8287 12.5299 19.9954 12.0929 19.2657C11.9908 19.1047 11.8778 18.951 11.7546 18.8056C11.4775 18.4665 11.1523 18.2339 10.6761 18.312C10.504 18.3295 10.3306 18.3295 10.1584 18.312C9.89156 18.3003 9.72823 18.1515 9.72093 17.924C9.71364 17.6965 9.87916 17.5223 10.1584 17.4997C10.2314 17.4938 10.3043 17.4997 10.3772 17.4997H17.6346C17.7347 17.497 17.8348 17.5016 17.9343 17.5135C18.164 17.5492 18.2989 17.6907 18.2894 17.9226C18.2926 17.9734 18.2851 18.0243 18.2674 18.072C18.2497 18.1198 18.2222 18.1633 18.1867 18.1998C18.1512 18.2362 18.1085 18.2649 18.0612 18.2838C18.014 18.3028 17.9633 18.3116 17.9124 18.3098C17.6134 18.3258 17.3094 18.2915 17.0141 18.3273C16.8117 18.3461 16.618 18.4189 16.4533 18.538C15.8612 19.0222 15.52 19.6791 15.3596 20.4098C15.233 20.9669 15.1597 21.5348 15.1408 22.1058C15.1087 23.36 15.127 24.6156 15.1357 25.8698C15.141 26.0116 15.1837 26.1495 15.2597 26.2694C15.5769 26.7674 15.9123 27.2545 16.2382 27.7474C16.4665 28.0915 16.4387 28.2461 16.1121 28.5021H15.8394C15.7315 28.3948 15.63 28.2813 15.5353 28.1623C15.3362 27.8801 15.1109 27.6066 14.9666 27.2975C14.6939 26.7141 14.2644 26.4896 13.646 26.6201C13.5213 26.6407 13.4072 26.7029 13.3223 26.7965C13 27.2472 12.7047 27.7175 12.389 28.1732C12.2929 28.2918 12.1868 28.4018 12.0718 28.5021L11.7925 28.4999ZM15.4777 18.3419H12.4371C13.2589 19.3627 13.5308 20.5337 13.6096 21.7689H14.311C14.3876 20.5257 14.6676 19.3583 15.4777 18.3419ZM14.287 25.7794V22.6235H13.6264V25.7772L14.287 25.7794Z" fill="#666666"/>
<path d="M11.3438 5.35553C11.3466 4.78149 11.537 4.2241 11.8861 3.76837C12.2351 3.31265 12.7237 2.9836 13.2772 2.83143C13.8307 2.67925 14.4188 2.7123 14.9518 2.92552C15.4848 3.13875 15.9334 3.52045 16.2292 4.01241C16.315 4.15504 16.3464 4.3239 16.3175 4.48783C16.2868 4.59866 16.0987 4.74158 15.9842 4.73428C15.9034 4.72287 15.8257 4.69506 15.756 4.65255C15.6863 4.61004 15.626 4.55374 15.5788 4.4871C15.2952 4.04376 14.9284 3.73168 14.4122 3.60553C14.0826 3.52341 13.7367 3.5352 13.4135 3.63955C13.0904 3.74391 12.8029 3.93667 12.5836 4.19601C12.3644 4.45534 12.2221 4.77089 12.173 5.10691C12.1238 5.44293 12.1698 5.786 12.3055 6.09727C12.4413 6.40853 12.6616 6.67556 12.9413 6.8681C13.2211 7.06064 13.5491 7.17101 13.8884 7.1867C14.2276 7.20239 14.5644 7.12278 14.8608 6.95688C15.1571 6.79099 15.401 6.54544 15.565 6.24803C15.5919 6.20064 15.6138 6.15033 15.6379 6.1022C15.7699 5.87033 15.9733 5.79158 16.1826 5.88783C16.4013 5.99064 16.4852 6.21595 16.3685 6.46241C15.9806 7.28272 15.336 7.79533 14.4464 7.96158C14.0657 8.03111 13.6744 8.01577 13.3003 7.91666C12.9262 7.81755 12.5786 7.63711 12.2822 7.3882C11.9859 7.1393 11.7482 6.82807 11.5859 6.47671C11.4237 6.12535 11.3411 5.74252 11.3438 5.35553Z" fill="#666666"/>
<path d="M13.5625 1.30205C13.5629 1.15766 13.5729 1.01346 13.5924 0.870386C13.6051 0.779423 13.6517 0.696598 13.7228 0.638469C13.7939 0.580339 13.8843 0.551189 13.976 0.556845C14.1794 0.556845 14.3405 0.664761 14.361 0.868928C14.3872 1.15659 14.3872 1.44605 14.361 1.73372C14.3427 1.93934 14.1816 2.04289 13.976 2.04289C13.7703 2.04289 13.626 1.93934 13.5873 1.73445C13.5702 1.59096 13.562 1.44656 13.5625 1.30205Z" fill="#666666"/>
<path d="M14.3926 9.45207C14.3924 9.58759 14.3841 9.72296 14.3678 9.85749C14.3563 9.94885 14.3107 10.0325 14.2401 10.0916C14.1695 10.1507 14.0791 10.1809 13.9872 10.1761C13.7684 10.1805 13.608 10.0711 13.5876 9.85166C13.5635 9.58149 13.562 9.30978 13.5832 9.03937C13.5985 8.82062 13.7502 8.69593 13.966 8.69155C14.1957 8.68645 14.343 8.81478 14.3736 9.0452C14.3824 9.18044 14.3824 9.3161 14.3736 9.45134L14.3926 9.45207Z" fill="#666666"/>
<path d="M9.90567 4.96855C10.0325 4.96855 10.1602 4.95834 10.2863 4.96855C10.3833 4.96989 10.4759 5.00933 10.5442 5.07836C10.6124 5.14739 10.6507 5.24047 10.6509 5.33751C10.6677 5.55626 10.5575 5.72834 10.3461 5.75314C10.0588 5.78632 9.7686 5.78632 9.4813 5.75314C9.25598 5.72689 9.14442 5.54678 9.17213 5.31564C9.19838 5.09689 9.33546 4.97876 9.55421 4.96418C9.67161 4.95689 9.78973 4.96418 9.90713 4.96418L9.90567 4.96855Z" fill="#666666"/>
<path d="M18.0381 4.96837C18.1649 4.96837 18.2933 4.95889 18.4187 4.96837C18.515 4.96969 18.6069 5.00853 18.675 5.07661C18.7431 5.1447 18.7819 5.23667 18.7833 5.33295C18.8022 5.5517 18.6936 5.72524 18.4814 5.75077C18.1941 5.78394 17.9039 5.78394 17.6166 5.75077C17.3913 5.72524 17.2783 5.54733 17.3045 5.31327C17.3293 5.09452 17.4649 4.97493 17.6837 4.95962C17.8011 4.9516 17.9192 4.95962 18.0366 4.95962L18.0381 4.96837Z" fill="#666666"/>
<path d="M11.793 7.97607C11.7237 8.11169 11.6946 8.21159 11.6318 8.28159C11.481 8.45055 11.3216 8.61166 11.1542 8.7643C10.9596 8.94221 10.7379 8.93784 10.5709 8.77013C10.4039 8.60242 10.409 8.37565 10.5848 8.1868C10.7379 8.01982 10.8866 7.83753 11.0718 7.71576C11.138 7.67674 11.2114 7.6514 11.2875 7.64126C11.3637 7.63111 11.4411 7.63636 11.5152 7.65669C11.6311 7.69534 11.7018 7.86451 11.793 7.97607Z" fill="#666666"/>
<path d="M16.5737 7.5459C16.7144 7.61882 16.8223 7.65163 16.8996 7.72017C17.0692 7.8704 17.2298 8.03036 17.3808 8.19923C17.4563 8.27349 17.4993 8.37457 17.5006 8.48043C17.5018 8.58629 17.4611 8.68835 17.3874 8.76434C17.2248 8.93569 16.9973 8.94444 16.8041 8.76944C16.6219 8.61841 16.4575 8.44718 16.3141 8.25902C16.2755 8.19674 16.2502 8.12715 16.2398 8.05462C16.2294 7.98209 16.234 7.90819 16.2536 7.83757C16.298 7.72236 16.4592 7.64579 16.5737 7.5459Z" fill="#666666"/>
<path d="M11.7605 2.81158C11.7007 2.88449 11.6329 3.03543 11.5221 3.0821C11.4112 3.12876 11.2136 3.12804 11.121 3.05876C10.8938 2.89432 10.6952 2.69353 10.5333 2.46449C10.4604 2.35804 10.4801 2.10501 10.5632 2.00658C10.6463 1.90814 10.922 1.83158 11.0058 1.8921C11.2705 2.08606 11.4878 2.34564 11.7167 2.58626C11.7481 2.61908 11.7394 2.68762 11.7605 2.81158Z" fill="#666666"/>
<path d="M16.5343 3.15412C16.4614 3.09214 16.3104 3.02433 16.263 2.91277C16.2157 2.80121 16.2171 2.60433 16.2864 2.51318C16.4514 2.28746 16.6524 2.09039 16.8814 1.92985C16.9886 1.85693 17.2416 1.87662 17.3408 1.95902C17.4399 2.04141 17.5136 2.31704 17.4516 2.40089C17.2584 2.66558 16.9988 2.88287 16.7582 3.11183C16.7253 3.14027 16.6546 3.13152 16.5343 3.15412Z" fill="#666666"/>
</g>
<defs>
<clipPath id="clip0_427_5096">
<rect width="28" height="28" fill="white" transform="translate(0 0.5)"/>
</clipPath>
</defs>
</svg>
