<svg width="28" height="29" viewBox="0 0 28 29" fill="none" xmlns="http://www.w3.org/2000/svg">
<path d="M21.2821 22.0945C22.0733 22.7587 22.3168 23.5987 22.2701 24.559C22.2483 25.0038 22.2701 25.4508 22.2643 25.8971C22.2475 26.8727 21.5009 27.6339 20.5289 27.6347C15.2789 27.6405 10.0304 27.6405 4.78327 27.6347C4.55727 27.635 4.33341 27.5909 4.12451 27.5046C3.91561 27.4184 3.72577 27.2918 3.56586 27.1321C3.40595 26.9724 3.27911 26.7827 3.1926 26.5739C3.10609 26.3651 3.06161 26.1413 3.06171 25.9153C3.0566 25.1701 3.02598 24.4176 3.11785 23.6819C3.27025 22.4671 4.37202 21.5454 5.59702 21.5257C6.38817 21.5133 7.18004 21.5257 7.97119 21.5221H8.29421C8.29421 20.8556 8.30004 20.2096 8.28619 19.5693C8.28619 19.4964 8.17973 19.414 8.10463 19.3659C6.01046 18.0425 4.67754 16.1787 4.12848 13.7608C3.05077 8.99571 6.2591 4.17956 11.0745 3.32716C15.7908 2.49154 20.2124 5.45852 21.218 10.1296C21.9778 13.6719 20.3947 17.3746 17.2805 19.312C17.0982 19.4257 17.0194 19.5395 17.026 19.7597C17.0428 20.3321 17.0311 20.9052 17.0311 21.471C17.053 21.49 17.0661 21.5126 17.0792 21.5126C18.3917 21.4929 19.7144 21.6409 21.0087 21.2566C23.2837 20.5814 25.0424 18.4858 25.2787 16.1299C25.2947 15.9702 25.31 15.8098 25.3181 15.723C24.9134 15.7522 24.5123 15.8513 24.1346 15.7959C23.2261 15.6581 22.626 14.8261 22.7128 13.9256C22.7561 13.5055 22.9496 13.1151 23.2577 12.8262C23.5658 12.5372 23.9678 12.3692 24.3898 12.3528C25.2991 12.3258 26.1201 12.9755 26.1748 13.884C26.2478 15.136 26.2725 16.3967 25.8467 17.6101C25.0996 19.7407 23.6692 21.2032 21.5556 21.9975C21.4783 22.0252 21.401 22.0514 21.2821 22.0945ZM12.659 19.775C16.9786 19.775 20.5085 16.256 20.5201 11.9328C20.532 10.8945 20.3381 9.86411 19.9495 8.9012C19.5608 7.93829 18.9853 7.06193 18.256 6.32275C17.5267 5.58357 16.6582 4.99623 15.7006 4.59465C14.7431 4.19307 13.7154 3.98521 12.677 3.98309C11.6386 3.98097 10.6101 4.18463 9.65093 4.5823C8.69173 4.97997 7.82082 5.56376 7.08854 6.29996C6.35626 7.03616 5.77712 7.91016 5.38457 8.87147C4.99202 9.83279 4.79385 10.8624 4.8015 11.9007C4.79713 16.2349 8.32775 19.7721 12.659 19.775ZM12.6524 26.764C15.2439 26.764 17.8358 26.764 20.4283 26.764C21.0422 26.764 21.39 26.414 21.393 25.7979C21.393 25.2517 21.3981 24.7041 21.393 24.1602C21.3813 23.1532 20.6317 22.3985 19.6269 22.3978C14.9797 22.3944 10.3325 22.3944 5.68525 22.3978C4.6965 22.3978 3.94473 23.1554 3.93088 24.1441C3.92358 24.6721 3.93088 25.2 3.93088 25.7272C3.93088 26.4403 4.25317 26.764 4.96119 26.764H12.6524ZM9.1816 21.5053H16.1386V19.9296C13.8104 20.8877 11.496 20.8818 9.1816 19.9383V21.5053ZM24.4489 13.2241C24.2753 13.2242 24.1057 13.2758 23.9615 13.3725C23.8174 13.4692 23.7052 13.6066 23.6394 13.7672C23.5735 13.9278 23.5569 14.1044 23.5917 14.2745C23.6265 14.4445 23.7111 14.6004 23.8347 14.7223C23.9583 14.8441 24.1154 14.9265 24.2859 14.9588C24.4565 14.9912 24.6328 14.9721 24.7924 14.9039C24.9521 14.8358 25.0879 14.7217 25.1825 14.5762C25.2771 14.4307 25.3264 14.2603 25.3239 14.0867C25.3206 13.8568 25.227 13.6374 25.0633 13.476C24.8995 13.3146 24.6788 13.2241 24.4489 13.2241Z" fill="#C10037"/>
<path d="M7.03287 1.99245C6.95193 2.06537 6.83308 2.22797 6.67485 2.31839C5.62558 2.92068 4.68058 3.65495 3.89089 4.57006C3.45339 5.08047 3.07933 5.63829 2.67756 6.17422C2.62943 6.23985 2.59516 6.32006 2.54631 6.38131C2.38954 6.58985 2.15256 6.63579 1.94766 6.50308C1.74277 6.37037 1.68808 6.15818 1.81131 5.93141C1.91922 5.73235 2.04391 5.54204 2.16933 5.35318C3.20704 3.78606 4.60301 2.48857 6.24172 1.56808C6.31114 1.5246 6.38436 1.4875 6.46047 1.45724C6.74485 1.35589 7.04599 1.5812 7.03287 1.99245Z" fill="#666666"/>
<path d="M23.6255 6.18733C23.5205 6.30692 23.4389 6.479 23.312 6.52348C23.1851 6.56796 23.0036 6.52348 22.8628 6.46661C22.7841 6.43744 22.7345 6.32077 22.6827 6.23546C21.6896 4.6058 20.2973 3.25637 18.6373 2.31473C18.5391 2.26661 18.4505 2.20115 18.3755 2.1215C18.3116 2.04821 18.2774 1.95374 18.2794 1.85652C18.2814 1.75931 18.3196 1.66634 18.3865 1.59577C18.5396 1.40838 18.7438 1.36973 18.9472 1.49515C19.411 1.77952 19.882 2.05661 20.321 2.37744C21.5792 3.29848 22.6385 4.46415 23.4352 5.80452C23.4994 5.90806 23.5461 6.02546 23.6255 6.18733Z" fill="#666666"/>
<path d="M7.09594 3.85414C6.99532 3.99997 6.9399 4.14581 6.8349 4.22456C6.0187 4.83184 5.29552 5.55502 4.68823 6.37122C4.51323 6.60675 4.24709 6.64029 4.04657 6.48206C3.84605 6.32383 3.81761 6.09487 3.99188 5.85425C4.63213 4.95923 5.41817 4.17812 6.31719 3.54352C6.38894 3.50413 6.46793 3.47969 6.54939 3.47167C6.63085 3.46365 6.71309 3.47221 6.79115 3.49685C6.90855 3.53695 6.98146 3.70831 7.09594 3.85414Z" fill="#666666"/>
<path d="M21.0157 6.64174C20.8699 6.53966 20.7241 6.48497 20.6453 6.37997C20.0305 5.55796 19.2993 4.8299 18.4746 4.21872C18.2478 4.05028 18.2274 3.79653 18.3878 3.59747C18.4233 3.5529 18.4673 3.51579 18.5172 3.48828C18.5671 3.46077 18.622 3.4434 18.6786 3.43717C18.7353 3.43093 18.7926 3.43596 18.8473 3.45196C18.902 3.46795 18.953 3.49461 18.9974 3.53039C19.9024 4.17333 20.6914 4.96558 21.3307 5.8732C21.3699 5.94466 21.394 6.02336 21.4017 6.10449C21.4093 6.18562 21.4003 6.26745 21.3752 6.34497C21.3336 6.45726 21.1601 6.52726 21.0157 6.64174Z" fill="#666666"/>
<path d="M12.6524 17.1534C11.6159 17.1517 10.6031 16.8426 9.74217 16.2653C8.88124 15.688 8.21083 14.8684 7.81569 13.9101C7.42055 12.9518 7.31843 11.8979 7.52224 10.8816C7.72605 9.86526 8.22665 8.9322 8.96073 8.20036C9.6948 7.46853 10.6294 6.97079 11.6463 6.77009C12.6633 6.56938 13.7169 6.67473 14.674 7.0728C15.6311 7.47087 16.4486 8.14379 17.0233 9.00648C17.5979 9.86917 17.9039 10.8829 17.9024 11.9194C17.8982 13.309 17.3432 14.6403 16.3591 15.6214C15.375 16.6025 14.042 17.1534 12.6524 17.1534ZM12.6524 16.2784C13.5163 16.28 14.3612 16.0254 15.0804 15.5469C15.7995 15.0684 16.3607 14.3873 16.6929 13.5899C17.0251 12.7925 17.1135 11.9145 16.9467 11.0669C16.78 10.2193 16.3658 9.44018 15.7563 8.82798C15.1469 8.21578 14.3696 7.79801 13.5228 7.62748C12.6759 7.45696 11.7975 7.54134 10.9986 7.86995C10.1997 8.19856 9.51621 8.75665 9.03444 9.47367C8.55268 10.1907 8.29431 11.0345 8.292 11.8983C8.29047 12.4725 8.40216 13.0415 8.62067 13.5725C8.83919 14.1036 9.16026 14.5864 9.56551 14.9932C9.97076 15.4001 10.4522 15.7231 10.9824 15.9438C11.5126 16.1644 12.0811 16.2784 12.6553 16.2791L12.6524 16.2784Z" fill="#C10037"/>
<path d="M12.6539 15.4054C10.7858 15.4054 9.05327 13.6912 9.7715 11.4344C10.2389 9.96514 11.1453 8.89034 12.6466 8.39305C13.192 8.21222 13.4326 8.43753 13.3656 9.01284C13.3101 9.48024 13.273 9.94982 13.2591 10.4201C13.2591 10.5251 13.3758 10.7118 13.4516 10.722C13.5668 10.7322 13.717 10.6396 13.8089 10.5477C13.9008 10.4559 13.9547 10.2991 14.0276 10.1744C14.1844 9.91045 14.5308 9.84482 14.7182 10.0803C15.4371 10.9838 15.9359 11.9638 15.6253 13.1698C15.284 14.4947 14.0597 15.4091 12.6539 15.4054ZM11.3297 14.1002C11.4566 13.3864 11.9029 12.9095 12.3805 12.4596C12.5657 12.2853 12.7932 12.305 12.9711 12.48C13.4297 12.9328 13.8796 13.3966 13.9875 14.0776C14.9092 13.5169 15.1134 12.1818 14.4331 11.2113C14.4091 11.2236 14.3864 11.2383 14.3653 11.255C13.997 11.6065 13.5712 11.7246 13.0885 11.5416C12.6058 11.3586 12.4125 10.9583 12.379 10.4726C12.3564 10.1423 12.3746 9.80909 12.3746 9.45618C12.3301 9.47316 12.2867 9.49314 12.2448 9.51597C11.2138 10.1722 10.6224 11.1201 10.4948 12.3254C10.4132 13.0546 10.7362 13.6394 11.3297 14.1002ZM12.6626 13.3813C12.5117 13.6081 12.3863 13.7801 12.2784 13.9646C12.1705 14.1491 12.2434 14.3197 12.3987 14.4408C12.4722 14.5038 12.5658 14.5385 12.6626 14.5385C12.7595 14.5385 12.8531 14.5038 12.9266 14.4408C13.0812 14.3197 13.1578 14.1542 13.0462 13.9639C12.9346 13.7736 12.8129 13.6081 12.6626 13.3813Z" fill="#666666"/>
</svg>
