<svg width="28" height="29" viewBox="0 0 28 29" fill="none" xmlns="http://www.w3.org/2000/svg">
<g clip-path="url(#clip0_427_5021)">
<path d="M0 20.26C0.137083 19.7657 0.291667 19.2713 0.705833 18.9373C0.979045 18.7155 1.28128 18.532 1.60417 18.3919C1.81125 18.3037 1.8674 18.2147 1.86521 18.004C1.85573 16.7578 1.8601 15.5117 1.86083 14.2663C1.86083 13.2199 2.41354 12.6665 3.45771 12.6665C7.67812 12.6665 11.8993 12.6796 16.119 12.6563C17.0209 12.6512 17.7362 13.26 17.7085 14.2488C17.6728 15.4942 17.7042 16.7403 17.6954 17.9865C17.6954 18.2052 17.7341 18.3183 17.9725 18.389C18.4104 18.5218 18.7965 18.787 19.0775 19.1482C19.3585 19.5093 19.5207 19.9487 19.5417 20.4059C19.5745 21.5142 19.5606 22.624 19.5628 23.7338C19.5628 25.1068 19.5628 26.4798 19.5628 27.8528C19.5628 28.1445 19.4986 28.3735 19.2135 28.4967H17.0844C16.8321 28.3443 16.7504 28.1161 16.7599 27.8295C16.7723 27.4416 16.7599 27.0522 16.7599 26.6563H2.79052C2.79052 27.0741 2.77813 27.4737 2.7949 27.8711C2.80656 28.1576 2.71031 28.364 2.45656 28.4967H0V20.26ZM18.612 22.9025C18.612 22.0334 18.6171 21.189 18.6061 20.3453C18.5923 20.2093 18.5485 20.0781 18.4778 19.9611C18.1745 19.3777 17.6619 19.1801 17.0319 19.1801C12.2835 19.1845 7.53545 19.1845 2.7876 19.1801C2.66 19.1801 2.53312 19.1801 2.40552 19.1801C1.50208 19.2064 0.936979 19.7832 0.930417 20.6888C0.930417 21.1795 0.930417 21.6702 0.930417 22.1617V22.8996L18.612 22.9025ZM18.6178 23.8709H0.951562V27.5517H1.8601C1.8601 27.1383 1.8601 26.7401 1.8601 26.342C1.8601 25.8615 2.01615 25.7076 2.49958 25.7076H17.0742C17.5489 25.7076 17.6961 25.8535 17.6983 26.3223C17.6983 26.7285 17.6983 27.1353 17.6983 27.5481H18.6171L18.6178 23.8709ZM10.2528 18.2337V17.9267C10.2528 17.3813 10.2426 16.8329 10.2645 16.2897C10.2922 15.6182 10.8267 15.0407 11.4953 15.0195C12.522 14.9874 13.5491 14.9874 14.5768 15.0195C15.1725 15.037 15.5677 15.4023 15.7587 15.9565C15.8147 16.1574 15.8393 16.3657 15.8317 16.5741C15.8411 17.1253 15.8317 17.6766 15.8317 18.2264H16.7621V14.2758C16.7621 13.7311 16.6286 13.5969 16.0905 13.5969H3.4599C2.94219 13.5969 2.79125 13.7427 2.79125 14.259C2.79125 15.4961 2.79125 16.7331 2.79125 17.9697V18.2329H3.71C3.7151 18.1301 3.7224 18.0419 3.7224 17.9529C3.7224 17.4527 3.71365 16.9525 3.7224 16.4523C3.74281 15.6036 4.27146 15.0275 5.10781 15.0049C6.08854 14.9787 7.07219 14.9845 8.05365 15.0173C8.36693 15.0297 8.66488 15.1562 8.89142 15.373C9.11797 15.5897 9.2575 15.8818 9.28375 16.1942C9.33042 16.7637 9.31 17.3383 9.31875 17.9107C9.31875 18.0164 9.31875 18.1214 9.31875 18.2337H10.2528ZM4.66083 18.2271H8.37958C8.37958 17.5986 8.39271 16.9875 8.37448 16.3838C8.36573 16.0921 8.19146 15.9361 7.89615 15.9332C6.9774 15.9244 6.05889 15.9244 5.14062 15.9332C4.84896 15.9332 4.67323 16.0965 4.66448 16.3874C4.64771 16.9948 4.66083 17.6022 4.66083 18.2271ZM14.9012 18.2373C14.9012 17.5942 14.9115 16.9773 14.8961 16.3619C14.8987 16.3063 14.8897 16.2507 14.8697 16.1987C14.8497 16.1467 14.8191 16.0994 14.7799 16.0598C14.7408 16.0202 14.6938 15.9891 14.642 15.9686C14.5902 15.9481 14.5347 15.9385 14.4791 15.9404C13.5246 15.9295 12.5701 15.9317 11.6156 15.9404C11.3896 15.9404 11.2124 16.0863 11.2051 16.305C11.1832 16.946 11.1971 17.5876 11.1971 18.2402L14.9012 18.2373Z" fill="#C10037"/>
<path d="M0 6.9392C0.150208 6.81597 0.282187 6.65191 0.453542 6.57462C4.83389 4.60247 9.21618 2.63372 13.6004 0.668369C13.7173 0.610297 13.8461 0.580078 13.9767 0.580078C14.1072 0.580078 14.236 0.610297 14.3529 0.668369C18.7357 2.64052 23.1194 4.60636 27.5042 6.56587C27.817 6.70587 27.9606 6.89837 27.9577 7.25201C27.9453 8.96191 27.9519 10.6718 27.9519 12.3817V12.6464H27.0222V12.3547C27.0222 10.7812 27.0222 9.20837 27.0258 7.63483C27.0258 7.44743 26.9784 7.34899 26.7969 7.27024C22.592 5.39288 18.3903 3.51042 14.1918 1.62285C14.1251 1.58833 14.051 1.57031 13.9759 1.57031C13.9008 1.57031 13.8268 1.58833 13.7601 1.62285C9.56108 3.50993 5.35938 5.39215 1.155 7.26951C0.974167 7.35045 0.925312 7.44889 0.926042 7.6341C0.933333 9.19816 0.929687 10.7622 0.929687 12.3263V12.6683H0V6.9392Z" fill="#C10037"/>
<path d="M21.4302 22.9376V25.6982H20.4961V25.3956C20.4961 23.2494 20.4961 21.1037 20.4961 18.9585C20.4961 18.3854 20.6324 18.2498 21.2034 18.249H27.2598C27.8111 18.249 27.9511 18.3905 27.9511 18.9446V25.6931H27.0367V22.9368L21.4302 22.9376ZM27.001 21.9685V19.2028H21.4593V21.9685H27.001Z" fill="#666666"/>
<path d="M24.7004 14.9931V16.3742H25.5995V17.3024H22.8461V16.3917H23.7401V15.0106C23.638 15.0055 23.5425 14.9968 23.4484 14.9968C23.1028 14.9968 22.7572 15.0062 22.4123 14.9902C22.0426 14.9727 21.8289 14.7219 21.9288 14.3974C22.2263 13.4546 22.545 12.5183 22.8615 11.5813C22.938 11.3538 23.1269 11.2671 23.3544 11.2656C23.9377 11.2617 24.5196 11.2617 25.1 11.2656C25.3669 11.2656 25.5375 11.399 25.6243 11.6572C25.9159 12.5365 26.2142 13.4123 26.4993 14.2924C26.6334 14.7058 26.4438 14.9778 26.01 14.9917C25.5761 15.0055 25.1561 14.9931 24.7004 14.9931ZM23.0233 14.0255H25.4296C25.2371 13.4422 25.065 12.9019 24.8718 12.363C24.8533 12.3225 24.8256 12.2868 24.7909 12.2588C24.7562 12.2308 24.7155 12.2113 24.672 12.2019C24.373 12.1844 24.0719 12.1895 23.7722 12.2019C23.7388 12.2036 23.7062 12.213 23.677 12.2293C23.6478 12.2456 23.6228 12.2684 23.6037 12.2959C23.4061 12.8654 23.2158 13.4414 23.0226 14.0255H23.0233Z" fill="#C10037"/>
<path d="M15.0534 4.48353C14.9514 4.77082 14.8558 5.04134 14.753 5.33373C13.8649 5.09238 13.0635 5.22582 12.3854 5.85071C11.9078 6.28821 11.681 6.85186 11.649 7.49717C11.5884 8.72728 12.6231 9.81009 13.9334 9.86259C14.9864 9.90488 16.4483 9.04374 16.2916 7.15228L17.1629 7.00644C17.4546 8.3554 16.7254 9.8028 15.4501 10.4459C14.9704 10.6925 14.4369 10.816 13.8977 10.8053C13.3584 10.7945 12.8303 10.6499 12.3608 10.3843C11.8913 10.1188 11.4952 9.74072 11.2081 9.2841C10.9211 8.82748 10.752 8.30665 10.7162 7.76848C10.6803 7.2303 10.7789 6.69166 11.0029 6.20101C11.2269 5.71037 11.5694 5.28312 11.9996 4.9577C12.4297 4.63228 12.934 4.41891 13.4671 4.33677C14.0002 4.25464 14.5453 4.30632 15.0534 4.48717V4.48353Z" fill="#666666"/>
<path d="M12.7188 7.42745L13.3874 6.74422L13.9262 7.37057L16.8721 4.41016L17.5283 5.10141C17.4802 5.15245 17.4219 5.21953 17.3584 5.28297C16.3862 6.25519 15.414 7.22596 14.4418 8.19526C14.0714 8.56495 13.8767 8.55984 13.5026 8.19526C13.2459 7.93786 12.9834 7.68703 12.7188 7.42745Z" fill="#666666"/>
<path d="M25.1471 21.036H23.3242V20.1318H25.1471V21.036Z" fill="#666666"/>
</g>
<defs>
<clipPath id="clip0_427_5021">
<rect width="28" height="28" fill="white" transform="translate(0 0.5)"/>
</clipPath>
</defs>
</svg>
