<svg width="28" height="29" viewBox="0 0 28 29" fill="none" xmlns="http://www.w3.org/2000/svg">
<g clip-path="url(#clip0_427_5033)">
<path d="M6.1704 28.5001C5.95894 28.4535 5.74821 28.409 5.53748 28.3601C4.22498 28.0539 3.27706 27.2423 2.53112 26.1595C1.48915 24.6538 0.871541 22.9716 0.505499 21.2012C0.305531 20.2026 0.158037 19.1942 0.0636243 18.1802C-0.025334 17.2877 0.557999 16.7124 1.44904 16.7102C2.24967 16.7102 3.05029 16.709 3.85092 16.7066C3.86873 16.7044 3.88615 16.6997 3.90269 16.6927C4.07914 16.0263 4.32706 15.8367 5.02123 15.8367C6.22241 15.8367 7.42335 15.8367 8.62404 15.8367C9.25842 15.8367 9.6055 16.1823 9.60623 16.8138C9.60623 18.642 9.60623 20.4703 9.60623 22.2986C9.60623 22.9096 9.25112 23.2589 8.63498 23.2596C7.38859 23.2596 6.1422 23.2596 4.89581 23.2596C4.28185 23.2596 3.9304 22.9074 3.92967 22.2949C3.92967 20.8303 3.92967 19.3656 3.92967 17.901V17.586C3.04081 17.586 2.17967 17.5779 1.31706 17.5903C1.04727 17.5947 0.888312 17.7996 0.926958 18.1066C1.0429 19.0253 1.13769 19.9499 1.31925 20.8563C1.65977 22.5509 2.22196 24.1674 3.21071 25.6097C3.81737 26.4956 4.55237 27.2197 5.63519 27.4778C5.98713 27.5677 6.34827 27.6166 6.71144 27.6237C11.5516 27.6324 16.3919 27.6336 21.2321 27.6273C22.4439 27.6273 23.4597 27.1781 24.2515 26.2419C25.2221 25.0964 25.82 23.7627 26.256 22.3423C26.6475 21.0355 26.9016 19.6914 27.0144 18.3319C27.0712 17.7055 26.9582 17.5838 26.3384 17.5838H10.619C10.2508 17.5838 10.0481 17.4263 10.0488 17.1463C10.0496 16.8663 10.2508 16.7088 10.6198 16.7088H25.3161V13.2299H24.4594C24.4594 13.4888 24.4594 13.7491 24.4594 14.0087C24.4542 14.3645 24.2967 14.5227 23.9402 14.5256C23.4123 14.5295 22.8846 14.5295 22.3572 14.5256C22.0013 14.5256 21.8468 14.3638 21.8402 14.0065C21.8402 13.752 21.8402 13.4961 21.8402 13.2496C21.4552 13.087 21.4027 13.0126 21.4027 12.6138C21.4027 12.2492 21.3983 11.8846 21.4027 11.52C21.4078 11.1977 21.5704 11.0329 21.8941 11.0322C23.3408 11.0322 24.7875 11.0235 26.2341 11.0322C26.9582 11.038 27.5116 11.6155 27.5146 12.3564C27.5197 13.8483 27.5146 15.3401 27.5219 16.832C27.5219 16.9633 27.6021 17.0952 27.6465 17.2265C27.7326 17.4795 27.909 17.7369 27.8923 17.9855C27.6969 20.8862 27.0902 23.6687 25.435 26.1311C24.7532 27.1475 23.8862 27.9379 22.678 28.2828C22.3863 28.3667 22.0823 28.4287 21.7833 28.4958L6.1704 28.5001ZM4.82362 16.7234V22.3656H8.72248V16.7234H4.82362ZM26.6432 16.6971V16.463C26.6432 15.1355 26.6432 13.8077 26.6432 12.4796C26.6432 12.0516 26.4974 11.9072 26.0694 11.9065C24.8876 11.9065 23.7052 11.9065 22.522 11.9065C22.4432 11.9065 22.3652 11.916 22.2879 11.9203V12.3425H22.5664C23.4575 12.3425 24.349 12.3425 25.241 12.3425C25.8542 12.3425 26.2043 12.6947 26.2057 13.3087C26.2057 14.2996 26.2057 15.2913 26.2057 16.2829V16.6964L26.6432 16.6971ZM22.7283 13.2299V13.6353H23.5647V13.2299H22.7283Z" fill="#C10037"/>
<path d="M0 10.8698C0.153854 10.646 0.364583 10.5782 0.632917 10.592C1.01281 10.6102 1.3949 10.5964 1.79521 10.5964C1.90531 9.73597 2.01396 8.89159 2.12042 8.0443C2.19917 7.42013 2.41208 7.1919 3.04573 7.08034V6.2294C2.91594 6.2294 2.78396 6.23378 2.65271 6.2294C2.37271 6.21701 2.1875 6.04201 2.1875 5.79774C2.1875 5.55347 2.36687 5.36753 2.64469 5.36024C2.9225 5.35295 3.19083 5.35222 3.46354 5.36024C3.76542 5.36826 3.92583 5.53451 3.93094 5.8444C3.93677 6.25274 3.93094 6.66107 3.93094 7.01107C4.19125 7.1569 4.46615 7.23711 4.61927 7.41867C4.7724 7.60024 4.83219 7.87222 4.86865 8.11503C4.99042 8.93243 5.0874 9.7542 5.19021 10.5869H5.67802C5.67802 9.91024 5.67802 9.2394 5.67802 8.5693C5.6731 8.46032 5.67921 8.35112 5.69625 8.24336C5.73531 8.04493 5.84275 7.86649 5.99983 7.73911C6.15692 7.61173 6.35371 7.54349 6.55594 7.54628C7.2749 7.53996 7.99361 7.53996 8.71208 7.54628C9.23781 7.55065 9.60167 7.91597 9.60604 8.44388C9.6126 9.1519 9.60604 9.85992 9.60604 10.584H10.4001C10.2995 10.2405 10.2025 9.91097 10.1084 9.58065C9.98156 9.14315 10.0508 8.99732 10.4825 8.82232C10.4825 8.60867 10.4767 8.39065 10.4825 8.17336C10.4872 7.89164 10.6011 7.62275 10.8003 7.42345C10.9995 7.22414 11.2683 7.11001 11.55 7.10513C11.8592 7.09638 12.1683 7.09565 12.4775 7.10513C12.7583 7.1117 13.0255 7.2268 13.2232 7.42626C13.4209 7.62572 13.5336 7.89402 13.5377 8.17482C13.5443 8.38336 13.5377 8.59263 13.5377 8.80045C14.0029 9.0418 14.0394 9.13003 13.8921 9.63388C13.8017 9.94451 13.7134 10.2566 13.6157 10.5957C14.1575 10.5957 14.6657 10.5957 15.174 10.5957C15.5677 10.5957 15.7201 10.748 15.7223 11.1389C15.7223 11.6573 15.7223 12.1758 15.7223 12.6942C15.7223 13.0515 15.5619 13.2141 15.2068 13.2141C10.3126 13.2141 5.41819 13.2158 0.523542 13.2192C0.285833 13.2192 0.137083 13.1047 0 12.9421L0 10.8698ZM14.8371 11.4889H0.896146V12.3289H14.8371V11.4889ZM3.00563 7.98888C2.89698 8.86388 2.78687 9.71336 2.68042 10.5833H4.30792C4.19854 9.71336 4.08917 8.85513 3.98125 7.98888H3.00563ZM8.71427 10.5876V9.73597H6.56687V10.5854L8.71427 10.5876ZM11.3181 10.5876H12.7035L12.9485 9.73524H11.0709C11.1562 10.0291 11.2357 10.3047 11.3181 10.5876ZM12.0086 7.97649C11.8816 7.96905 11.7541 7.97076 11.6273 7.98159C11.5456 7.99326 11.4085 8.04357 11.4034 8.08951C11.3662 8.29982 11.3662 8.51503 11.4034 8.72534C11.4195 8.79315 11.6455 8.8267 11.779 8.84565C11.9245 8.85703 12.0707 8.85849 12.2165 8.85003C12.6437 8.85003 12.6656 8.82743 12.6656 8.40451C12.6656 8.00201 12.6394 7.97722 12.2281 7.97649H12.0086ZM6.55594 8.83399H8.71573V8.43368H6.55594V8.83399Z" fill="#666666"/>
<path d="M17.4692 2.30514H16.1793V3.17358C16.3193 3.17358 16.4615 3.16629 16.6037 3.17358C16.7183 3.17512 16.8275 3.22205 16.9075 3.30408C16.9875 3.38611 17.0316 3.49652 17.0303 3.61108C17.0299 3.72183 16.9864 3.82806 16.9089 3.90719C16.8314 3.98631 16.7261 4.03207 16.6154 4.03473C16.3157 4.04785 16.0146 4.04712 15.7149 4.03473C15.6576 4.03589 15.6008 4.02528 15.5478 4.00355C15.4948 3.98182 15.4469 3.94944 15.407 3.90842C15.367 3.8674 15.336 3.8186 15.3157 3.76507C15.2954 3.71154 15.2863 3.65441 15.289 3.59723C15.2813 3.02459 15.2813 2.45171 15.289 1.87858C15.2934 1.58181 15.4677 1.42577 15.7827 1.42285C16.3368 1.41848 16.891 1.42285 17.4393 1.42285C17.6165 0.74181 17.8674 0.547852 18.5623 0.547852H24.6741C25.3683 0.547852 25.6221 0.740352 25.7971 1.42285H27.3721C27.8037 1.42285 27.9503 1.56868 27.951 1.98869C27.951 2.48889 27.951 2.9891 27.951 3.48931C27.951 3.89327 27.7979 4.04129 27.3859 4.04275C26.8595 4.04275 26.333 4.04275 25.7679 4.04275V4.34462C25.7679 5.9449 25.7679 7.54518 25.7679 9.14546C25.7679 9.81629 25.431 10.1561 24.7653 10.1561H18.4624C17.8127 10.1561 17.47 9.81337 17.47 9.16296C17.47 6.98129 17.47 4.79914 17.47 2.6165L17.4692 2.30514ZM18.3625 1.43743V9.26431H24.8798V1.43743H18.3625ZM27.0643 3.16119V2.31535H25.7868V3.16119H27.0643Z" fill="#666666"/>
</g>
<defs>
<clipPath id="clip0_427_5033">
<rect width="28" height="28" fill="white" transform="translate(0 0.5)"/>
</clipPath>
</defs>
</svg>
