<svg width="28" height="29" viewBox="0 0 28 29" fill="none" xmlns="http://www.w3.org/2000/svg">
<g clip-path="url(#clip0_427_5066)">
<path d="M0 22.2223C0.153125 21.7028 0.429297 21.2885 0.950879 21.0664C1.01924 21.0383 1.06709 20.9119 1.07939 20.8251C1.38291 18.5692 3.05635 16.8828 5.29717 16.6148C5.66289 16.5704 6.03818 16.6087 6.43945 16.6087C6.31025 14.7418 6.18447 12.9323 6.05801 11.0962H4.78516C5.07773 10.1644 5.35937 9.26755 5.64443 8.36178H6.57959C6.75459 7.82038 6.93643 7.28991 7.0957 6.75329C7.15449 6.55436 7.24609 6.49147 7.45527 6.49352C8.70146 6.50446 9.94834 6.49899 11.1952 6.49899H11.509V1.64889L12.9445 1.29821C13.8469 1.07809 14.7458 0.855242 15.6468 0.636492C16.3987 0.456023 17.0475 0.816961 17.23 1.50534C17.42 2.22243 17.0174 2.88347 16.2559 3.0735C15.5039 3.26081 14.752 3.42966 13.9925 3.60876V6.49352H14.2762C15.5319 6.49352 16.7877 6.49968 18.0435 6.48805C18.2561 6.48805 18.3422 6.55641 18.4003 6.75261C18.5582 7.28239 18.7366 7.80671 18.9137 8.3529H19.8475C20.1332 9.26139 20.4128 10.1514 20.704 11.0784H6.88242C7.00957 12.9241 7.13467 14.7322 7.2625 16.5786C7.37392 16.5786 7.46758 16.5786 7.5667 16.5786C8.36719 16.5834 9.16836 16.5704 9.96816 16.5964C12.1796 16.6688 14.1723 18.5173 14.4184 20.7089C14.4402 20.9071 14.4915 21.0404 14.7014 21.1443C15.5463 21.5647 15.7691 22.6605 15.184 23.4002C15.145 23.4501 15.1047 23.4986 15.1348 23.5314C15.2585 23.8732 15.4444 24.2061 15.4916 24.5568C15.5764 25.183 15.2229 25.7469 14.6521 26.0149C14.5861 26.0399 14.528 26.082 14.4836 26.1369C14.4393 26.1918 14.4104 26.2575 14.3999 26.3273C14.1347 27.5216 13.1981 28.3323 11.9725 28.4465C11.9115 28.4574 11.8516 28.4734 11.7934 28.4943H3.7126C3.53623 28.4629 3.35781 28.441 3.18418 28.3972C2.06719 28.1163 1.37607 27.4115 1.0999 26.2938C1.08076 26.2138 1.03975 26.0997 0.978906 26.0758C0.453906 25.872 0.177051 25.4571 0 24.9512V24.4044L0.402637 23.5704L0 22.7166V22.2223ZM1.89902 20.9461H13.6069C13.5119 19.1373 11.8063 17.4714 9.96133 17.4228C8.54355 17.3859 7.12373 17.3927 5.70527 17.4167C4.47822 17.4372 3.48223 17.9724 2.71797 18.9254C2.24805 19.5013 1.96265 20.2055 1.89902 20.9461ZM7.74922 23.1541H12.5234C13.0149 23.1541 13.5058 23.1609 13.9973 23.1541C14.4471 23.1452 14.7731 22.7384 14.6761 22.3262C14.5995 21.9995 14.309 21.7896 13.918 21.7896C9.80775 21.7896 5.69707 21.7896 1.58594 21.7896C1.54031 21.7878 1.49461 21.7894 1.44922 21.7944C1.31749 21.8089 1.19257 21.8604 1.08898 21.9431C0.985399 22.0257 0.907402 22.1361 0.864062 22.2613C0.764941 22.5094 0.838769 22.7282 1.00078 22.9189C1.16279 23.1096 1.38838 23.1609 1.63789 23.1609C3.675 23.1536 5.71211 23.1513 7.74922 23.1541ZM6.05049 26.866C5.79072 26.6828 5.55557 26.4934 5.29853 26.343C5.14097 26.2464 4.96263 26.1888 4.77832 26.1749C4.13301 26.155 3.48633 26.1667 2.84033 26.1667H1.92295C1.94277 26.2521 1.95029 26.3034 1.9667 26.354C1.98813 26.4242 2.01463 26.4927 2.046 26.5591C2.43223 27.3192 3.06455 27.6528 3.90537 27.6528C6.4709 27.6487 9.03642 27.6528 11.602 27.648C11.8389 27.6493 12.075 27.6206 12.3047 27.5626C12.9623 27.3889 13.5304 26.7518 13.5639 26.1824C13.5468 26.1765 13.5292 26.1726 13.5112 26.1708C12.8837 26.1708 12.2527 26.2056 11.6286 26.1571C10.9033 26.101 10.2655 26.2302 9.73574 26.7546C9.68455 26.7951 9.62988 26.831 9.57236 26.8619L8.23115 25.9151C7.81484 25.6212 7.81553 25.6212 7.41084 25.9069L6.05049 26.866ZM5.91377 10.2547H19.5788C19.4899 9.97028 19.3936 9.71462 19.3341 9.45075C19.2849 9.23405 19.1857 9.17731 18.9622 9.17731C14.8151 9.18552 10.6679 9.18757 6.5208 9.18347H6.24736L5.91377 10.2547ZM7.45185 8.34059H18.038C17.9532 8.07468 17.8603 7.83747 17.8049 7.59206C17.7557 7.37604 17.6552 7.3152 17.4316 7.31862C14.8777 7.32751 12.3238 7.32409 9.76992 7.32409C9.1793 7.32409 8.58867 7.32409 7.99736 7.32888C7.91533 7.32888 7.78271 7.37194 7.76016 7.42936C7.64463 7.71442 7.55713 8.0193 7.45117 8.33581L7.45185 8.34059ZM13.1523 2.97643C13.2542 2.94909 13.339 2.92243 13.4258 2.90192C14.2919 2.69684 15.158 2.49929 16.0234 2.29557C16.3536 2.21764 16.4917 2.01872 16.4268 1.73161C16.3666 1.46843 16.1417 1.36589 15.7924 1.45134C14.7164 1.71384 13.6432 1.98454 12.5645 2.23679C12.3689 2.28259 12.3293 2.3653 12.3307 2.5485C12.3382 3.77897 12.3348 5.00329 12.3348 6.23034V6.48395H13.1551L13.1523 2.97643ZM12.1475 24.0421L12.1304 23.9887H7.00342C7.0123 24.0195 7.0123 24.0427 7.02256 24.0503C7.83672 24.6279 8.65088 25.2055 9.46982 25.7757C9.50229 25.7923 9.53826 25.801 9.57475 25.801C9.61125 25.801 9.64722 25.7923 9.67969 25.7757C10.5055 25.2035 11.3258 24.6217 12.1475 24.0421ZM7.10049 25.1167C6.55361 24.7318 6.04434 24.3729 5.53301 24.0154C5.50418 23.994 5.46974 23.9814 5.43389 23.9792C4.78538 23.9792 4.13711 23.9792 3.48906 23.9792C3.48906 24.0181 3.48906 24.0311 3.48906 24.0339C4.30937 24.619 5.12559 25.2055 5.95 25.7839C5.9836 25.799 6.02029 25.806 6.0571 25.8043C6.09391 25.8027 6.12981 25.7924 6.16191 25.7743C6.46475 25.5726 6.75801 25.3587 7.10049 25.1167ZM3.78506 25.3388L3.80762 25.2828L2.14648 24.1091C1.86416 23.9101 1.37881 23.919 1.10264 24.1268C0.995276 24.204 0.913352 24.3114 0.867327 24.4354C0.821302 24.5593 0.813263 24.6942 0.844238 24.8227C0.921484 25.1023 1.16621 25.3313 1.44648 25.3354C2.22578 25.3457 3.00781 25.3388 3.78506 25.3388ZM11.8139 25.2841L11.831 25.3429C12.5528 25.3429 13.274 25.347 13.9952 25.3429C14.1419 25.3452 14.2854 25.3003 14.4046 25.2147C14.5237 25.1292 14.6122 25.0075 14.6569 24.8678C14.7472 24.5944 14.6631 24.3647 14.4703 24.1719C14.2775 23.9792 13.8277 23.8821 13.6315 24.014C13.0177 24.4256 12.4188 24.859 11.8139 25.2841Z" fill="#C10037"/>
<path d="M17.0343 28.4998C16.9618 27.8962 16.8839 27.2933 16.8169 26.689C16.6036 24.7558 16.3924 22.8223 16.1832 20.8887C16.0323 19.5064 15.8815 18.1242 15.7306 16.742C15.7259 16.6996 15.7306 16.6559 15.7306 16.582H16.6877V11.9336H19.1582V13.1046H19.9539V11.9295H22.4217V13.1032H24.8894V11.332H27.3504V16.5643L27.954 16.5964C27.8918 17.1802 27.8316 17.7462 27.7701 18.3122C27.5787 20.0736 27.3864 21.8352 27.1931 23.5971C27.0136 25.2322 26.8313 26.8667 26.6463 28.5005L17.0343 28.4998ZM25.9217 27.6385C26.2949 24.215 26.664 20.8244 27.0366 17.4099C26.7563 17.4099 26.5205 17.4222 26.2846 17.4058C26.0885 17.3921 25.9996 17.4611 25.9346 17.6498C25.612 18.585 25.2695 19.5133 24.9441 20.4478C24.8826 20.6248 24.8074 20.702 24.6023 20.7014C22.7562 20.6909 20.9105 20.6909 19.0652 20.7014C18.8601 20.7014 18.7863 20.6234 18.7234 20.4471C18.3939 19.5042 18.0571 18.5642 17.7131 17.6272C17.6837 17.5459 17.6064 17.4263 17.5442 17.4222C17.2496 17.4003 16.9515 17.4126 16.6309 17.4126L17.7479 27.6385H25.9217ZM21.5877 19.8619V12.7525H20.8063V19.8619H21.5877ZM22.4531 13.9618V19.8517H23.2365V13.9618H22.4531ZM19.1958 13.9618C19.1821 13.9933 19.1691 14.009 19.1691 14.0254C19.1691 15.7344 19.1541 17.4434 19.1691 19.1523C19.1739 19.7184 19.3851 19.8947 19.8821 19.8653C19.8978 19.8653 19.9129 19.8503 19.9354 19.8387V13.9598L19.1958 13.9618ZM24.091 13.9618V19.8619L24.1594 19.9057C24.2175 19.8373 24.2995 19.7792 24.3296 19.7006C24.4724 19.328 24.6194 18.9555 24.7288 18.572C24.8189 18.2807 24.871 17.979 24.884 17.6744C24.9024 16.539 24.8915 15.4028 24.8915 14.2674V13.9618H24.091ZM25.7316 12.151V16.5602H26.5164V12.151H25.7316ZM18.3249 16.7693V12.7573H17.536V16.5465C17.7978 16.6682 18.1389 16.42 18.3249 16.7693Z" fill="#C10037"/>
<path d="M12.5232 11.9297V12.7213H8.2207V11.9297H12.5232Z" fill="#666666"/>
<path d="M14.4239 12.7246H13.3828V11.9282H14.4239V12.7246Z" fill="#666666"/>
<path d="M9.85156 19.0878V18.3003H10.6384V19.0878H9.85156Z" fill="#666666"/>
<path d="M6.52734 18.791H7.32031V19.5778H6.52734V18.791Z" fill="#666666"/>
<path d="M8.19336 19.5723V18.793H8.9877V19.5723H8.19336Z" fill="#666666"/>
<path d="M4.86914 19.0867V18.3047H5.65664V19.0867H4.86914Z" fill="#666666"/>
<path d="M25.7592 21.5308C25.5657 23.3081 25.375 25.054 25.1815 26.8266H24.8821C22.8457 26.8266 20.8086 26.8225 18.7722 26.832C18.5391 26.832 18.468 26.7685 18.444 26.534C18.282 24.9344 18.1022 23.3361 17.9279 21.7379C17.9211 21.675 17.917 21.6121 17.9102 21.5328L25.7592 21.5308ZM19.2213 25.983H24.446C24.5793 24.7614 24.7105 23.5576 24.8418 22.3538H18.8262C18.9588 23.5747 19.0894 24.7744 19.2213 25.983Z" fill="#666666"/>
<path d="M20.6257 23.7803V24.5548H19.832V23.7803H20.6257Z" fill="#666666"/>
<path d="M22.2614 24.5625H21.4746V23.7729H22.2614V24.5625Z" fill="#666666"/>
<path d="M23.8576 23.7744V24.5544H23.1152V23.7744H23.8576Z" fill="#666666"/>
</g>
<defs>
<clipPath id="clip0_427_5066">
<rect width="28" height="28" fill="white" transform="translate(0 0.5)"/>
</clipPath>
</defs>
</svg>
