<svg width="28" height="29" viewBox="0 0 28 29" fill="none" xmlns="http://www.w3.org/2000/svg">
<g clip-path="url(#clip0_427_5084)">
<path d="M8.89683 28.4969C7.87479 28.3463 7.14024 27.7284 6.47193 26.9977C6.17766 26.6763 5.85629 26.379 5.54772 26.0705L1.07197 21.597C-0.317344 20.2069 -0.321107 18.3081 1.06218 16.9188L2.93542 15.044C4.05004 16.1586 5.15336 17.2604 6.29205 18.3976C5.97746 18.7039 5.64029 19.0306 5.30538 19.3602C5.05251 19.6093 4.79888 19.8569 4.55278 20.1128C4.3729 20.301 4.33979 20.5584 4.50612 20.7292C5.01036 21.2478 5.53267 21.7497 6.06928 22.2788C6.13927 22.0809 6.19798 21.9025 6.26421 21.7264C6.69696 20.5764 7.51654 19.881 8.72373 19.653C9.63438 19.4806 10.5465 19.3211 11.4579 19.1547C11.5287 19.142 11.5979 19.1209 11.759 19.0795C11.6604 18.9508 11.6085 18.8326 11.5189 18.7724C10.5384 18.1367 9.83657 17.1516 9.55611 16.0171C9.54063 15.97 9.51569 15.9265 9.48282 15.8894C9.44995 15.8523 9.40984 15.8222 9.36495 15.8011C8.51676 15.476 8.08552 14.8732 8.08552 13.973C8.08552 12.9638 8.081 11.9546 8.08552 10.9446C8.09906 7.93413 10.2831 5.4716 13.2785 5.09379C16.4771 4.69114 19.5251 7.13411 19.7622 10.3447C19.8473 11.4849 19.8021 12.6342 19.8104 13.7796C19.8164 14.5804 19.8104 15.3804 19.8104 16.1812C19.8104 17.1189 19.2504 17.7075 18.3232 17.6721C17.8084 17.6525 17.4088 17.7368 17.0837 18.1801C16.9023 18.427 16.593 18.5783 16.3514 18.7822C16.2761 18.8477 16.2295 18.95 16.1346 19.0833L17.6986 19.3753C18.2608 19.4799 18.8275 19.5612 19.3844 19.6951C20.4478 19.9518 21.2042 20.6028 21.5843 21.6263C21.9704 22.6642 22.2962 23.7238 22.647 24.7745C22.6515 24.8102 22.6515 24.8464 22.647 24.8821H13.0888L13.0587 24.937L13.7617 25.5263C12.8217 26.3692 11.9652 27.1557 11.0862 27.9166C10.6858 28.2636 10.1672 28.3727 9.66373 28.4923L8.89683 28.4969ZM10.3554 22.2314C10.8897 22.768 11.409 23.2783 11.9125 23.7998C11.9691 23.8629 12.0389 23.9125 12.117 23.9452C12.1951 23.9779 12.2795 23.9927 12.3641 23.9887C15.2742 23.9832 18.1842 23.982 21.0943 23.985H21.4255C21.1997 23.3076 21.0018 22.6672 20.7752 22.0365C20.4742 21.1966 19.8721 20.6961 18.9923 20.5313C18.2608 20.3935 17.5112 20.322 16.7984 20.1188C16.1211 19.9269 15.6635 20.0752 15.23 20.6148C14.8537 21.0844 14.3818 21.4796 13.9453 21.9153C13.861 21.8401 13.7948 21.7761 13.7308 21.7121C13.1965 21.1793 12.6674 20.6411 12.1248 20.1166C12.0804 20.0771 12.0285 20.0471 11.9723 20.0282C11.916 20.0093 11.8565 20.002 11.7974 20.0067C10.813 20.1738 9.82855 20.3469 8.84866 20.5388C7.99671 20.7051 7.41344 21.2079 7.10938 22.0237C7.01079 22.2871 6.93553 22.5588 6.83769 22.8222C6.80915 22.8778 6.80106 22.9416 6.81481 23.0026C6.82857 23.0635 6.86331 23.1177 6.91295 23.1556C7.16658 23.3904 7.40365 23.6418 7.649 23.8856C7.97262 24.2085 8.16303 24.2115 8.50848 23.8992C9.11659 23.3543 9.72243 22.8064 10.3554 22.2344V22.2314ZM13.9325 9.81339C14.5391 10.4508 15.154 11.0176 15.9435 11.3766C16.733 11.7355 17.5759 11.8326 18.4474 11.8198V12.3203L18.8418 12.4708C18.8418 11.7009 18.9359 10.934 18.8237 10.198C18.5136 8.16217 17.3283 6.78038 15.3617 6.18356C13.3952 5.58675 11.68 6.11282 10.2688 7.59169C8.94876 8.97574 8.88253 10.6992 9.01197 12.4836L9.42365 12.3226C9.43118 12.1585 9.4387 11.999 9.44849 11.8078C11.2931 11.9252 12.7585 11.205 13.9325 9.82016V9.81339ZM10.3336 12.7132C10.3336 13.5215 10.3034 14.3034 10.3403 15.0824C10.4081 16.5123 11.0854 17.5848 12.3679 18.211C13.6202 18.8228 14.8515 18.6942 16.0127 17.919C16.0955 17.864 16.1693 17.7948 16.2468 17.7316L16.2167 17.6736H13.9589V16.775H14.2787C15.1247 16.775 15.9706 16.7682 16.8158 16.7803C16.895 16.7895 16.9751 16.7711 17.0425 16.7284C17.1099 16.6857 17.1605 16.6211 17.186 16.5455C17.419 16.051 17.5408 15.5115 17.5428 14.965C17.5428 14.2922 17.5375 13.6193 17.5473 12.9465C17.5473 12.7598 17.4871 12.6944 17.3042 12.6771C16.5229 12.6053 15.7678 12.3589 15.0945 11.9561C14.6911 11.7152 14.3179 11.424 13.9084 11.1402C12.9218 12.0562 11.7214 12.5845 10.3336 12.7132ZM1.82909 17.4493C0.723512 18.3367 0.621909 19.8419 1.60933 20.8617C1.75985 21.0182 1.9179 21.1702 2.07218 21.3245C3.92861 23.1809 5.78705 25.0374 7.6475 26.8938C8.66051 27.9016 10.2229 27.806 11.0651 26.7297L9.01197 24.6684C8.3256 25.2042 7.65728 25.1628 7.01681 24.5276C6.00079 23.5123 4.97875 22.5023 3.97553 21.4743C3.78828 21.2796 3.64484 21.0471 3.55482 20.7924C3.38624 20.3025 3.5631 19.866 3.87016 19.5025L1.82909 17.4493ZM11.8312 26.0652L12.3483 25.5767L10.2959 23.5048L9.7563 23.9955L11.8312 26.0652ZM2.51697 16.7562C3.2026 17.4456 3.87769 18.1259 4.53471 18.7882L4.97424 18.3728C4.29689 17.6894 3.61954 17.0121 2.93241 16.3249L2.51697 16.7562ZM12.702 19.3151L13.9431 20.5599L15.2029 19.3068C14.3861 19.5409 13.5203 19.5438 12.702 19.3151ZM18.8583 15.6431C18.6807 15.7387 18.4406 15.7868 18.3616 15.9268C18.2239 16.1707 18.1863 16.4702 18.1065 16.7479C18.8245 16.8473 19.0156 16.5756 18.8583 15.6453V15.6431ZM9.4229 13.3695C9.19034 13.4395 9.02627 13.6705 8.99542 13.9715C8.95703 14.3478 9.10379 14.6406 9.4229 14.7994V13.3695ZM18.4587 14.8393C18.8041 14.6 18.9298 14.308 18.8839 13.9475C18.8691 13.8162 18.8226 13.6904 18.7486 13.581C18.6745 13.4715 18.5751 13.3817 18.4587 13.319V14.8393Z" fill="#C10037"/>
<path d="M20.9928 9.57216C21.1508 8.64345 21.2984 7.77644 21.4534 6.86804H20.4637C19.4304 6.86804 18.8953 6.33595 18.8945 5.3109C18.8945 4.21962 18.8945 3.12834 18.8945 2.03706C18.8945 1.11662 19.4552 0.555928 20.3696 0.555176C22.3972 0.555176 24.4249 0.555176 26.453 0.555176C27.3478 0.555176 27.904 1.10307 27.9078 1.99567C27.9138 3.14113 27.9138 4.28685 27.9078 5.43282C27.9025 6.30886 27.3448 6.90793 26.4718 6.85299C25.656 6.80106 24.9861 7.02986 24.3216 7.48518C23.3266 8.16855 22.2775 8.77891 21.2555 9.41863C21.1877 9.46078 21.117 9.49916 20.9928 9.57216ZM22.2308 7.69064C22.279 7.69064 22.3001 7.69064 22.3136 7.68387C22.8532 7.34896 23.423 7.05093 23.9257 6.6671C24.6783 6.09211 25.4874 5.84375 26.4296 5.94836C26.8601 5.99577 27.0137 5.80461 27.0144 5.36283C27.0144 4.26352 27.0144 3.16371 27.0144 2.0634C27.0144 1.60205 26.8722 1.45605 26.4123 1.45605C24.4054 1.45605 22.3962 1.45605 20.3847 1.45605C19.9407 1.45605 19.8037 1.59754 19.8029 2.0476C19.8029 3.14741 19.8029 4.24747 19.8029 5.34778C19.8029 5.82644 19.9361 5.95588 20.4208 5.95664H22.5176C22.422 6.54969 22.3279 7.11038 22.2308 7.69441V7.69064Z" fill="#C10037"/>
<path d="M2.6044 11.6998L3.79427 10.9893C3.95081 11.2504 4.09531 11.4898 4.25562 11.7585L1.62149 13.3389L0.0410156 10.7048L0.807922 10.2374L1.64858 11.6388C3.47742 4.02316 11.3271 0.378284 17.6708 2.49085C17.5876 2.76229 17.5038 3.03449 17.4195 3.30743C10.4037 1.09025 3.82814 5.97843 2.6044 11.6998Z" fill="#666666"/>
<path d="M25.0474 10.7221C24.7569 11.2022 24.5086 11.6124 24.2452 12.0489L23.473 11.5898C24.0043 10.7047 24.5266 9.83549 25.0535 8.95117L27.6876 10.5316C27.5371 10.7883 27.3865 11.0336 27.2292 11.3053L25.9325 10.5324C27.2217 14.8923 26.497 18.854 23.7672 22.4718C23.6973 22.4243 23.6596 22.4025 23.6258 22.3754L23.0605 21.9171C25.6089 18.5447 26.287 14.8441 25.0474 10.7221Z" fill="#666666"/>
<path d="M26.0934 2.38135V3.24083H20.7168V2.38135H26.0934Z" fill="#666666"/>
<path d="M24.2911 4.17578V5.0458H20.7109V4.17578H24.2911Z" fill="#666666"/>
<path d="M26.0895 5.04966H25.2285V4.18115H26.0895V5.04966Z" fill="#666666"/>
</g>
<defs>
<clipPath id="clip0_427_5084">
<rect width="28" height="28" fill="white" transform="translate(0 0.5)"/>
</clipPath>
</defs>
</svg>
