<?xml version="1.0" encoding="utf-8"?><svg xmlns="http://www.w3.org/2000/svg" xmlns:xlink="http://www.w3.org/1999/xlink"><defs><svg fill="none" viewBox="0 0 65 65" id="Blazing-Fast" xmlns="http://www.w3.org/2000/svg"><g clip-path="url(#aaclip0_1452_62294)"><path d="M24.277 25.811a1.25 1.25 0 00-1.724-.394L17.15 28.81a1.25 1.25 0 101.33 2.117l5.402-3.391a1.25 1.25 0 00.395-1.724zM15.833 31.114a1.25 1.25 0 00-1.723-.396l-.025.015a1.25 1.25 0 001.327 2.12l.025-.016a1.25 1.25 0 00.396-1.723z" fill="#2E90FA"/><path d="M64.287 1.052a1.25 1.25 0 00-1.598-.419L25.686 19.214a1.25 1.25 0 00-.026 2.22l7.29 3.875-16.63 10.438a1.25 1.25 0 00.078 2.163l8.099 4.305L.939 62.299a1.25 1.25 0 001.418 2.044l37.996-21.085a1.25 1.25 0 00-.02-2.197l-7.403-3.935L50.2 26.01a1.25 1.25 0 00-.098-2.16l-6.393-3.335L64.073 2.691a1.25 1.25 0 00.214-1.638zm-23.6 18.785a1.25 1.25 0 00.246 2.048l6.106 3.186-17.255 11.107a1.25 1.25 0 00.09 2.155l7.254 3.855-25.056 13.904 15.445-13.167a1.25 1.25 0 00-.224-2.055l-7.814-4.154 16.629-10.438a1.25 1.25 0 00-.078-2.163l-7.06-3.752L55.047 7.267l-14.36 12.57z" fill="#9397AD"/><path d="M47.91 43.925a1.25 1.25 0 00-1.7-.484l-.026.014A1.25 1.25 0 1047.4 45.64l.026-.015a1.25 1.25 0 00.485-1.7zM44.745 45.682a1.25 1.25 0 00-1.7-.486l-5.578 3.096a1.25 1.25 0 001.213 2.185l5.578-3.095a1.25 1.25 0 00.486-1.7z" fill="#2E90FA"/></g><defs><clipPath id="aaclip0_1452_62294"><path fill="#fff" transform="translate(.5 .5)" d="M0 0h64v64H0z"/></clipPath></defs></svg><svg fill="none" viewBox="0 0 65 65" id="Code" xmlns="http://www.w3.org/2000/svg"><path d="M26.834 23.744h29.003c.521 0 .944-.455.944-1.017 0-.562-.422-1.018-.944-1.018H26.834c-.521 0-.944.456-.944 1.018s.422 1.017.944 1.017zM26.834 31.156h29.003c.521 0 .944-.455.944-1.017 0-.562-.422-1.018-.944-1.018H26.834c-.521 0-.944.456-.944 1.018s.422 1.017.944 1.017zM34.581 36.537H23.38c-.522 0-.945.456-.945 1.017 0 .562.423 1.018.945 1.018H34.58c.522 0 .945-.456.945-1.018s-.423-1.017-.945-1.017zM10.249 37.554c0 .562.423 1.018.945 1.018h7.19c.523 0 .945-.456.945-1.018s-.422-1.017-.944-1.017h-7.191c-.522 0-.945.456-.945 1.017z" fill="#9397AD"/><path d="M12.982 33.567c.522 0 .945-.456.945-1.017 0-.562-.423-1.018-.945-1.018-.527 0-1.156-.286-1.156-1.649v-1.434c0-.839-.227-1.407-.528-1.8.3-.392.528-.96.528-1.798v-1.434c0-1.363.629-1.65 1.156-1.65.522 0 .945-.454.945-1.016s-.423-1.018-.945-1.018c-1.516 0-3.045 1.14-3.045 3.684v1.434c0 .535-.09.57-.524.745-.1.04-.202.08-.306.133-.474.235-.68.84-.46 1.35.085.2.225.354.39.455.02.015.282.135.376.172.434.172.524.208.524.742v1.435c0 2.545 1.53 3.684 3.045 3.684zM19.052 29.723c0 1.363-.629 1.65-1.156 1.65-.522 0-.945.454-.945 1.016s.423 1.018.945 1.018c1.516 0 3.045-1.14 3.045-3.684v-1.43c0-.535.09-.57.524-.745a4.29 4.29 0 00.292-.126.981.981 0 00.478-.508c.215-.512.006-1.115-.47-1.348a4.115 4.115 0 00-.3-.128c-.434-.172-.524-.208-.524-.743v-1.434c0-2.544-1.53-3.684-3.045-3.684-.522 0-.945.456-.945 1.018s.423 1.017.945 1.017c.527 0 1.156.286 1.156 1.65v1.433c0 .839.227 1.407.528 1.8-.3.392-.528.96-.528 1.798v1.43z" fill="#2E90FA"/><path d="M33.958 43.95H11.07c-.522 0-.945.455-.945 1.017 0 .561.423 1.017.945 1.017h22.888c.522 0 .944-.456.944-1.017 0-.562-.422-1.018-.944-1.018zM33.834 51.365H10.946c-.522 0-.945.455-.945 1.017 0 .562.423 1.018.945 1.018h22.888c.521 0 .944-.456.944-1.018s-.422-1.017-.944-1.017zM54.578 11.064c1.627 0 2.95-1.425 2.95-3.176 0-1.752-1.323-3.177-2.95-3.177-1.628 0-2.953 1.425-2.953 3.177 0 1.751 1.325 3.176 2.953 3.176zm0-4.318c.585 0 1.06.512 1.06 1.142 0 .63-.475 1.142-1.06 1.142-.587 0-1.064-.513-1.064-1.142 0-.63.477-1.142 1.064-1.142zM46.055 11.064c1.627 0 2.95-1.425 2.95-3.176 0-1.752-1.323-3.177-2.95-3.177-1.626 0-2.95 1.425-2.95 3.177 0 1.751 1.324 3.176 2.95 3.176zm0-4.318c.585 0 1.06.512 1.06 1.142 0 .63-.475 1.142-1.06 1.142-.585 0-1.06-.513-1.06-1.142 0-.63.475-1.142 1.06-1.142zM37.532 11.064c1.626 0 2.95-1.425 2.95-3.176 0-1.752-1.324-3.177-2.95-3.177-1.627 0-2.95 1.425-2.95 3.177 0 1.751 1.323 3.176 2.95 3.176zm0-4.318c.585 0 1.06.512 1.06 1.142 0 .63-.476 1.142-1.06 1.142-.585 0-1.06-.513-1.06-1.142 0-.63.475-1.142 1.06-1.142z" fill="#9397AD"/><path d="M57.207.5H7.79C3.77.5.5 4.021.5 8.35v48.297c0 4.33 3.27 7.853 7.29 7.853h49.417c4.021 0 7.293-3.523 7.293-7.853V8.349C64.5 4.021 61.228.5 57.207.5zm0 61.966H7.79c-2.977 0-5.4-2.61-5.4-5.819V15.459H16.27c.522 0 .945-.456.945-1.018s-.423-1.017-.945-1.017H2.39V8.349c0-3.206 2.422-5.814 5.4-5.814h49.417c2.98 0 5.404 2.608 5.404 5.814v5.075H20.595c-.521 0-.944.456-.944 1.017 0 .562.423 1.018.944 1.018h42.016v41.188c0 3.208-2.424 5.819-5.404 5.819z" fill="#9397AD"/><path d="M56.587 42.904h-.252c-.067-.195-.14-.387-.22-.577l.177-.189c.363-.39.562-.911.56-1.466a2.121 2.121 0 00-.56-1.452l-1.828-1.973a1.84 1.84 0 00-1.357-.604 1.84 1.84 0 00-1.357.604l-.176.19a8.563 8.563 0 00-.535-.237v-.271c0-1.138-.861-2.063-1.92-2.063h-2.585c-1.058 0-1.919.925-1.919 2.063v.328c-.166.07-.33.146-.492.226l-.22-.236a1.838 1.838 0 00-1.356-.604h-.004a1.83 1.83 0 00-1.35.605l-1.828 1.968a2.124 2.124 0 00-.564 1.456 2.135 2.135 0 00.56 1.466l.273.293a9.97 9.97 0 00-.178.473h-.39c-1.056 0-1.915.927-1.915 2.066v2.785c0 1.14.859 2.066 1.915 2.066h.445c.052.144.107.286.166.427l-.315.339c-.748.805-.748 2.116 0 2.923l1.828 1.964c.36.39.84.606 1.353.608h.004c.513 0 .995-.215 1.357-.604l.313-.338c.131.063.264.123.398.18v.476c0 1.14.86 2.066 1.919 2.066h2.586c1.058 0 1.919-.927 1.919-2.066v-.42c.147-.059.294-.123.44-.19l.271.291c.362.39.844.605 1.357.605s.995-.215 1.357-.605l1.828-1.968c.362-.39.561-.909.561-1.461 0-.553-.2-1.072-.561-1.461l-.219-.236c.075-.175.145-.352.21-.53h.304c1.059 0 1.92-.927 1.92-2.066V44.97c0-1.14-.862-2.066-1.92-2.066zm.03 4.85c0 .015-.017.033-.03.033h-.977c-.418 0-.786.295-.906.726a7.748 7.748 0 01-.607 1.533c-.21.398-.147.897.154 1.22l.705.76c.01.01.01.034 0 .045l-1.828 1.968c-.004.005-.038.005-.042 0l-.744-.8a.895.895 0 00-1.107-.182 6.971 6.971 0 01-1.398.604c-.407.124-.688.524-.688.98v1.155c0 .015-.013.032-.03.032h-2.586c-.013 0-.029-.018-.029-.032v-1.202c0-.45-.274-.846-.675-.974a6.57 6.57 0 01-1.344-.607.89.89 0 00-1.124.172l-.793.854c-.002.003-.008.009-.021.009-.01 0-.014-.004-.019-.01l-1.83-1.967c-.01-.01-.01-.034 0-.045l.793-.855c.296-.319.362-.81.162-1.205a8.154 8.154 0 01-.567-1.458c-.121-.428-.488-.721-.904-.721h-1.116c-.011 0-.026-.016-.026-.032V44.97c0-.016.015-.031.026-.031h1.073c.423 0 .795-.303.91-.741a7.805 7.805 0 01.56-1.494c.197-.395.13-.882-.164-1.2l-.747-.804c-.002-.003-.008-.009-.008-.023 0-.01.003-.014.008-.019l1.831-1.972.003-.004c.001 0 .004-.004.015-.004.013 0 .018.006.02.008l.705.759c.3.322.762.39 1.132.167a6.801 6.801 0 011.427-.656c.4-.13.673-.525.673-.974v-1.053c0-.012.014-.028.03-.028h2.586a.03.03 0 01.029.028v1.007c0 .455.28.855.687.979a6.833 6.833 0 011.473.65.895.895 0 001.121-.173l.656-.706c.004-.005.038-.004.041 0l1.832 1.975c0 .002.004.005.004.016 0 .014-.005.02-.008.023l-.655.706c-.296.319-.362.81-.16 1.207.254.501.457 1.035.603 1.587.116.437.487.739.909.739h.935c.013 0 .03.017.03.031v2.785z" fill="#2E90FA"/><path d="M47.826 41.042c-2.724 0-4.94 2.387-4.94 5.32 0 2.934 2.216 5.32 4.94 5.32 2.725 0 4.94-2.386 4.94-5.32 0-2.933-2.215-5.32-4.94-5.32zm0 8.606c-1.682 0-3.051-1.474-3.051-3.285 0-1.812 1.369-3.286 3.051-3.286 1.683 0 3.052 1.474 3.052 3.286 0 1.811-1.37 3.285-3.052 3.285z" fill="#2E90FA"/></svg><svg fill="none" viewBox="0 0 65 65" id="Dashboard-Intro" xmlns="http://www.w3.org/2000/svg"><path d="M61.403.5H3.597A3.1 3.1 0 00.5 3.597v45.418a3.1 3.1 0 003.097 3.096h27.87v.568c0 1.109.26 2.22.754 3.213l2.344 4.719v3.84l18.58.049v-3.787l1.652-2.202a7.27 7.27 0 001.445-4.335V52.11h5.161a3.1 3.1 0 003.097-3.096V3.597A3.1 3.1 0 0061.403.5zM3.597 2.564h57.806c.569 0 1.032.464 1.032 1.033v9.29H2.566v-9.29c0-.57.463-1.033 1.032-1.033zm37.161 22.71a3.1 3.1 0 00-3.097 3.096v1.032H25.274V19.08h33.032v10.322H43.855V28.37a3.1 3.1 0 00-3.097-3.097zm-3.097 16.78a7.625 7.625 0 00-5.554-2.373 2.707 2.707 0 00-2.419 3.912l1.164 2.325h-5.578V35.596h12.387v6.458zm16.516 12.122a5.19 5.19 0 01-1.032 3.096l-2.064 2.753v2.406l-14.452-.039v-2.266l-2.559-5.152a5.185 5.185 0 01-.538-2.295v-4.24a7.56 7.56 0 00-.794-3.364l-1.202-2.406a.64.64 0 01-.068-.285c0-.352.287-.638.737-.638a5.463 5.463 0 015.456 5.457v3.833h2.065V28.37c0-.569.463-1.032 1.032-1.032s1.032.463 1.032 1.032v16.516h2.065v-4.13c0-.568.463-1.032 1.032-1.032s1.032.464 1.032 1.033v4.129h2.065v-4.13c0-.568.463-1.032 1.032-1.032s1.032.464 1.032 1.033v4.129h2.065V42.82c0-.569.463-1.032 1.032-1.032s1.032.463 1.032 1.032v11.355zm-1.032-14.452c-.408 0-.795.084-1.152.228a3.091 3.091 0 00-2.977-2.292c-.796 0-1.515.31-2.064.805a3.072 3.072 0 00-2.065-.805c-.363 0-.708.074-1.032.19v-2.254h14.451v10.322h-2.064V42.82a3.1 3.1 0 00-3.097-3.096zm8.258 10.323h-5.161v-2.065h4.129v-14.45H43.855v-2.065H60.37V17.016H23.21v14.45H37.66v2.065H23.21v14.451h8.23c.014.152.028.305.028.457v1.608H3.597a1.034 1.034 0 01-1.032-1.032V14.95h59.87v34.064c0 .568-.463 1.032-1.032 1.032z" fill="#9397AD"/><path d="M10.822 4.629H4.63v6.193h6.194V4.63zM8.758 8.758H6.693V6.693h2.065v2.065zM19.081 4.629h-6.193v6.193h6.193V4.63zm-2.064 4.129h-2.065V6.693h2.065v2.065zM27.339 4.629h-6.194v6.193h6.194V4.63zm-2.065 4.129H23.21V6.693h2.065v2.065zM27.339 21.145h2.064v2.064H27.34v-2.064zM31.468 21.145h24.774v2.064H31.468v-2.064zM45.92 25.273h10.322v2.065H45.919v-2.065zM27.339 25.273h8.258v2.065h-8.258v-2.065zM6.694 31.466h14.451v-14.45H6.694v14.45zM8.758 19.08h10.323v10.322H8.758V19.08z" fill="#9397AD"/><path d="M12.887 24.846l-1.335-1.334-1.46 1.459 2.795 2.794 5.891-5.89-1.46-1.46-4.43 4.431z" fill="#2E90FA"/><path d="M6.694 47.982h14.451v-14.45H6.694v14.45zm2.064-12.386h10.323v10.322H8.758V35.596z" fill="#9397AD"/><path d="M12.887 41.362l-1.335-1.335-1.46 1.46 2.795 2.794 5.891-5.891-1.46-1.46-4.43 4.432z" fill="#2E90FA"/></svg><svg fill="none" viewBox="0 0 65 65" id="Figma" xmlns="http://www.w3.org/2000/svg"><path d="M32.705 22.909V3.114h-9.898a9.898 9.898 0 100 19.795h9.898z" stroke="#9397AD" stroke-width="3" stroke-linecap="round" stroke-linejoin="round"/><path d="M32.705 42.704V22.909h-9.898a9.897 9.897 0 100 19.795h9.898zm0-19.795V3.114h9.897a9.898 9.898 0 010 19.795h-9.897zM32.705 42.704v9.898a9.898 9.898 0 11-9.898-9.898h9.898z" stroke="#9397AD" stroke-width="3" stroke-linecap="round" stroke-linejoin="round"/><path d="M42.602 42.704c5.467 0 9.898-4.431 9.898-9.898 0-5.466-4.431-9.897-9.898-9.897-5.466 0-9.897 4.431-9.897 9.897 0 5.467 4.431 9.898 9.897 9.898z" stroke="#2E90FA" stroke-width="3" stroke-linecap="round" stroke-linejoin="round"/></svg><svg fill="none" viewBox="0 0 65 65" id="Multivendor" xmlns="http://www.w3.org/2000/svg"><path d="M57.73.5H7.27C3.536.5.5 3.86.5 7.99v35.404c0 4.13 3.037 7.489 6.77 7.489h16.344l-1.97 10.894H15.27c-.68 0-1.23.61-1.23 1.361 0 .752.55 1.362 1.23 1.362h34.462c.68 0 1.23-.61 1.23-1.362 0-.752-.55-1.361-1.23-1.361h-6.376l-1.97-10.894h16.346c3.732 0 6.769-3.36 6.769-7.49V7.99C64.5 3.86 61.463.5 57.73.5zM24.156 61.777l1.97-10.894h12.75l1.97 10.894h-16.69zm37.883-18.383c0 2.628-1.932 4.766-4.307 4.766H7.269c-2.375 0-4.308-2.138-4.308-4.766V39.99h59.077v3.404zm0-6.128H2.962v-2.723h7.384c.68 0 1.23-.61 1.23-1.362 0-.752-.55-1.362-1.23-1.362H2.961V7.99c0-2.628 1.933-4.766 4.308-4.766h50.462c2.375 0 4.307 2.138 4.307 4.766v29.277z" fill="#9397AD"/><path d="M32.5 41.351c-1.358 0-2.462 1.222-2.462 2.723 0 1.502 1.104 2.724 2.462 2.724 1.357 0 2.461-1.222 2.461-2.724 0-1.501-1.104-2.723-2.461-2.723z" fill="#9397AD"/><path d="M42.576 26.579l-2.61-2.889 2.175-2.407c.317-.35.436-.862.313-1.338-.123-.476-.47-.84-.907-.952l-11.313-2.888a1.154 1.154 0 00-1.147.364 1.46 1.46 0 00-.33 1.269l2.612 12.517c.1.482.43.866.86 1.003.43.136.893.004 1.21-.346l2.175-2.407 2.61 2.888c.241.266.556.399.871.399.315 0 .63-.133.87-.399l2.611-2.889c.48-.531.48-1.393 0-1.925zm-3.48 1.925l-2.612-2.888a1.17 1.17 0 00-.87-.399c-.315 0-.63.133-.87.399l-1.476 1.633-1.669-8 7.231 1.846-1.475 1.632a1.466 1.466 0 000 1.926l2.61 2.889-.87.962zM27.433 12.714l-1.23-1.362a1.149 1.149 0 00-1.741 0 1.466 1.466 0 000 1.926l1.23 1.362c.241.266.556.399.871.399.315 0 .63-.133.87-.4.481-.531.481-1.393 0-1.925zM25.035 16.4h-1.74c-.68 0-1.232.61-1.232 1.362 0 .752.552 1.362 1.231 1.362h1.74c.68 0 1.232-.61 1.232-1.362 0-.752-.551-1.362-1.231-1.362zM27.434 20.884a1.149 1.149 0 00-1.74 0l-1.232 1.362a1.466 1.466 0 000 1.926c.24.266.556.398.87.398.316 0 .63-.132.871-.398l1.23-1.362c.481-.532.481-1.394 0-1.926zM36.05 11.352a1.149 1.149 0 00-1.741 0l-1.23 1.362a1.466 1.466 0 000 1.926c.24.266.555.399.87.399.315 0 .63-.133.87-.4l1.23-1.361c.481-.532.481-1.394 0-1.926zM30.256 8.697c-.68 0-1.23.61-1.23 1.362v1.926c0 .752.55 1.361 1.23 1.361.68 0 1.23-.61 1.23-1.361v-1.926c0-.752-.55-1.362-1.23-1.362z" fill="#2E90FA"/><path d="M15.245 32.915a1.436 1.436 0 00-.336-.697 1.216 1.216 0 00-.63-.372 1.098 1.098 0 00-.71.078 1.206 1.206 0 00-.553.501 1.437 1.437 0 00-.184.49 1.479 1.479 0 00.184 1.022 1.28 1.28 0 00.34.376 1.182 1.182 0 00.682.23 1.099 1.099 0 00.47-.105 1.206 1.206 0 00.4-.294 1.405 1.405 0 00.336-.697 1.479 1.479 0 000-.532z" fill="#9397AD"/></svg><svg fill="none" viewBox="0 0 65 65" id="Optimization" xmlns="http://www.w3.org/2000/svg"><g clip-path="url(#afclip0_1452_3636)"><path d="M24.5 4.5h2v2h-2v-2zM10.5 4.5h2v2h-2v-2zM14.5 4.5h8v2h-8v-2zM18.5 60.5a4 4 0 100-8 4 4 0 000 8zm0-6a2 2 0 110 4 2 2 0 010-4z" fill="#9397AD"/><path d="M43.5 21.5a9 9 0 00-9 9 9 9 0 009 9 9 9 0 009-9 9.01 9.01 0 00-9-9zm0 16a7 7 0 117-7 7.008 7.008 0 01-7 7z" fill="#2E90FA"/><path d="M43.5 26.5a4 4 0 100 8 4 4 0 000-8zm0 6a2 2 0 110-4 2 2 0 010 4z" fill="#2E90FA"/><path d="M64.426 28.741l-.06-.717-4.233-1.04a17.152 17.152 0 00-.47-1.755l3.143-3.021-.306-.65a21.042 21.042 0 00-1.767-3.046l-.411-.59-4.183 1.22a17.222 17.222 0 00-1.28-1.28l1.22-4.183-.59-.41a21.059 21.059 0 00-3.047-1.769l-.65-.307-3.021 3.143a17.152 17.152 0 00-1.755-.47l-1.04-4.233-.717-.06a21.05 21.05 0 00-3.518 0l-.717.06-1.04 4.233c-.593.126-1.179.282-1.755.47L36.5 12.538V3.5a3 3 0 00-3-3h-30a3 3 0 00-3 3v58a3 3 0 003 3h30a3 3 0 003-3V48.46l1.729-1.799c.576.189 1.162.345 1.755.47l1.04 4.23.715.062a20.722 20.722 0 003.522 0l.715-.061 1.04-4.231a16.676 16.676 0 001.755-.47l3.021 3.142.65-.307a21.119 21.119 0 003.046-1.766l.59-.411-1.22-4.183c.449-.404.876-.831 1.28-1.28l4.183 1.22.41-.59a21.095 21.095 0 001.769-3.044l.307-.65-3.143-3.021c.188-.576.345-1.162.47-1.755l4.233-1.04.06-.717a21.318 21.318 0 00-.001-3.518zM2.5 3.5a1 1 0 011-1h30a1 1 0 011 1v5h-32v-5zm0 7h32v1.032a20.892 20.892 0 00-2.988 1.736l-.59.411 1.22 4.183c-.449.404-.876.831-1.28 1.28l-4.183-1.22-.41.59a21.048 21.048 0 00-1.769 3.046l-.307.65 3.143 3.021a16.898 16.898 0 00-.47 1.755l-4.233 1.04-.06.717a21.318 21.318 0 00.001 3.518l.06.717 4.233 1.041c.125.593.282 1.178.47 1.754l-3.143 3.021.307.65a21.116 21.116 0 001.767 3.046l.411.59 4.183-1.22c.404.449.831.876 1.28 1.28l-1.22 4.183.59.41c.39.274.8.524 1.206.769H2.5v-38zm32 51a1 1 0 01-1 1h-30a1 1 0 01-1-1v-11h32v11zm27.979-30.12l-4.083 1-.11.646c-.155.91-.395 1.804-.716 2.67l-.23.615 3.033 2.914a19.129 19.129 0 01-.884 1.523l-4.037-1.176-.419.5c-.59.71-1.244 1.363-1.953 1.954l-.5.419 1.176 4.037c-.494.318-1.002.612-1.523.883l-2.913-3.03-.614.228c-.866.32-1.76.56-2.67.716l-.647.11-1 4.083c-.59.028-1.171.028-1.76 0l-1-4.083-.646-.11a14.892 14.892 0 01-2.683-.71l-.614-.226-2.913 3.03c-.52-.27-1.028-.565-1.523-.884l1.176-4.037-.5-.419a15.256 15.256 0 01-1.953-1.954l-.419-.5-4.037 1.176c-.318-.493-.613-1-.884-1.523l3.032-2.914-.235-.618a14.842 14.842 0 01-.716-2.67l-.11-.645-4.083-1a18.527 18.527 0 010-1.76l4.083-1 .11-.646c.155-.913.394-1.81.716-2.68l.228-.614-3.031-2.913c.271-.52.566-1.028.884-1.523l4.037 1.176.419-.5c.59-.71 1.244-1.364 1.953-1.954l.5-.42-1.176-4.036a18.972 18.972 0 011.523-.884l2.913 3.031.615-.228c.866-.32 1.76-.56 2.67-.716l.646-.11 1-4.083a18.587 18.587 0 011.76 0l1 4.083.646.11c.91.155 1.804.395 2.67.716l.615.228 2.913-3.031c.52.27 1.028.565 1.523.884l-1.176 4.037.5.42c.71.589 1.363 1.243 1.954 1.952l.42.5 4.036-1.176c.318.494.612 1.002.884 1.523l-3.03 2.913.227.615c.321.866.56 1.76.716 2.67l.11.646 4.083 1c.014.3.02.591.02.88 0 .29.011.588-.003.885z" fill="#9397AD"/></g><defs><clipPath id="afclip0_1452_3636"><path fill="#fff" transform="translate(.5 .5)" d="M0 0h64v64H0z"/></clipPath></defs></svg><svg fill="none" viewBox="0 0 65 65" id="Seo" xmlns="http://www.w3.org/2000/svg"><g clip-path="url(#agclip0_1452_3035)"><path d="M23.105 35.167a2.004 2.004 0 01-1.421-.592l-7.272-7.334a2 2 0 112.842-2.816l5.755 5.803 11.315-13.04a2 2 0 013.021 2.621L24.617 34.477c-.365.421-.89.672-1.445.69h-.067z" fill="#2E90FA"/><path d="M25.833 51.167C11.865 51.167.5 39.8.5 25.833S11.865.5 25.833.5c13.968 0 25.334 11.365 25.334 25.333 0 13.968-11.366 25.334-25.334 25.334zm0-46.667C14.071 4.5 4.5 14.07 4.5 25.833c0 11.763 9.57 21.334 21.333 21.334 11.763 0 21.334-9.571 21.334-21.334 0-11.762-9.571-21.333-21.334-21.333z" fill="#9397AD"/><path d="M62.5 64.5a1.984 1.984 0 01-1.413-.587L41.593 44.42a2 2 0 012.83-2.83l19.493 19.494A2 2 0 0162.5 64.5z" fill="#9397AD"/></g><defs><clipPath id="agclip0_1452_3035"><path fill="#fff" transform="translate(.5 .5)" d="M0 0h64v64H0z"/></clipPath></defs></svg><svg fill="none" viewBox="0 0 65 65" id="Server-Side-Renderd" xmlns="http://www.w3.org/2000/svg"><g clip-path="url(#ahclip0_1452_3042)"><path d="M50.048 45.92h-2.064V35.596H37.66v-2.065h18.58c4.554 0 8.259-3.704 8.259-8.258 0-4.203-3.159-7.676-7.226-8.187v-.07C57.274 7.91 49.864.5 40.758.5c-5.583 0-10.795 2.854-13.833 7.51a13.392 13.392 0 00-5.78-1.316A13.361 13.361 0 008.093 17.042C3.85 17.382.5 20.945.5 25.274c0 3.777 2.607 7.063 6.194 7.992v3.363c0 1.344.866 2.48 2.064 2.907v2.445a3.09 3.09 0 00-2.064 2.906v4.13c0 1.343.866 2.479 2.064 2.906v2.445a3.09 3.09 0 00-2.064 2.906v4.13A3.1 3.1 0 009.79 64.5h24.775a3.1 3.1 0 003.096-3.097v-3.097h10.323V47.984h2.064v10.322H64.5v-22.71H50.048V45.92zM33.532 35.596v10.322h-2.064V35.597h-4.13v-4.13h7.227c.568 0 1.032.463 1.032 1.033v3.097h-2.065zM17.016 52.113v2.064h-6.193v-2.064h6.193zm2.065-16.516v-4.13h6.193v4.13h-6.193zm-2.065 2.064H9.79a1.033 1.033 0 01-1.032-1.032V32.5c0-.57.464-1.032 1.032-1.032h7.226v6.193zm0 2.065v2.064h-6.193v-2.064h6.193zm2.065 18.58h6.193v4.13h-6.193v-4.13zm0-2.064v-18.58h10.322v18.58H19.081zM2.565 25.274c0-3.415 2.775-6.191 6.215-6.191h.004l1.03.021.147-.876a11.306 11.306 0 0111.184-9.47c1.972 0 3.923.522 5.643 1.511l.899.516.513-.9c2.569-4.516 7.381-7.32 12.558-7.32 7.97 0 14.452 6.482 14.452 14.451v.071c-4.067.511-7.226 3.984-7.226 8.187h2.064a6.2 6.2 0 016.194-6.193 6.2 6.2 0 016.194 6.193 6.2 6.2 0 01-6.194 6.194h-18.77a3.093 3.093 0 00-2.907-2.065H9.79c-1.24 0-2.304.737-2.798 1.792-2.575-.77-4.427-3.166-4.427-5.92zm6.193 19.613c0-.57.464-1.032 1.032-1.032h7.226v6.193H9.79a1.033 1.033 0 01-1.032-1.032v-4.129zm0 16.516v-4.129c0-.57.464-1.032 1.032-1.032h7.226v6.194H9.79a1.033 1.033 0 01-1.032-1.033zm26.839 0c0 .57-.464 1.032-1.032 1.032h-7.226v-4.129h4.129V47.984h2.064v10.322h2.065v3.097zm10.322-5.161H35.597v-18.58h10.322v18.58zm6.194-18.58h10.322v18.58H52.114v-18.58z" fill="#9397AD"/><path d="M21.145 39.726h6.194v2.064h-6.194v-2.064zM21.145 43.855h6.194v2.064h-6.194v-2.064zM21.145 47.984h6.194v2.064h-6.194v-2.064zM37.661 39.726h6.194v2.064H37.66v-2.064zM37.661 43.855h6.194v2.064H37.66v-2.064zM37.661 47.984h6.194v2.064H37.66v-2.064zM54.177 39.726h6.194v2.064h-6.194v-2.064zM54.177 43.855h6.194v2.064h-6.194v-2.064zM54.177 47.984h6.194v2.064h-6.194v-2.064zM21.145 52.113h6.194v2.065h-6.194v-2.065zM37.661 52.113h6.194v2.065H37.66v-2.065zM54.177 52.113h6.194v2.065h-6.194v-2.065z" fill="#2E90FA"/><path d="M40.758 6.693V4.63a12.344 12.344 0 00-11.036 6.756l1.839.94a10.287 10.287 0 019.197-5.632zM21.145 12.887c1.27 0 2.52.333 3.613.966l1.033-1.786a9.284 9.284 0 00-4.646-1.245 9.324 9.324 0 00-8.046 4.645l1.787 1.034a7.254 7.254 0 016.26-3.614zM21.145 22.177a3.1 3.1 0 003.097 3.097 3.1 3.1 0 003.097-3.097 3.1 3.1 0 00-3.097-3.096 3.1 3.1 0 00-3.097 3.096zm4.13 0a1.033 1.033 0 01-2.066 0 1.033 1.033 0 012.065 0zM32.5 25.274a3.1 3.1 0 003.097-3.097 3.1 3.1 0 00-3.097-3.096 3.1 3.1 0 00-3.097 3.096 3.1 3.1 0 003.097 3.097zm0-4.129a1.033 1.033 0 010 2.065 1.033 1.033 0 010-2.065zM37.661 22.177a3.1 3.1 0 003.097 3.097 3.1 3.1 0 003.097-3.097 3.1 3.1 0 00-3.097-3.096 3.1 3.1 0 00-3.097 3.096zm4.13 0a1.033 1.033 0 01-2.065 0 1.033 1.033 0 012.064 0z" fill="#9397AD"/></g><defs><clipPath id="ahclip0_1452_3042"><path fill="#fff" transform="translate(.5 .5)" d="M0 0h64v64H0z"/></clipPath></defs></svg><svg fill="currentColor" viewBox="0 0 32 33" id="active-content" xmlns="http://www.w3.org/2000/svg"><path d="M4.622 12.553v10.155c0 .802.637 1.45 1.422 1.45h9.387c.258.517.573 1.007.933 1.451H6.044c-1.57 0-2.844-1.3-2.844-2.901V12.445c0-.409.084-.807.245-1.18l1.849-4.242a2.842 2.842 0 012.6-1.723h10.524c1.124 0 2.142.675 2.6 1.723l1.849 4.243c.16.372.244.77.244 1.178v.11H4.622zm9.245-1.45h7.373l-1.52-3.491a1.426 1.426 0 00-1.302-.861h-4.551v4.352zM12.444 6.75h-4.55c-.563 0-1.072.337-1.3.861l-1.522 3.49h7.372V6.752zm12.947 11.818a.73.73 0 010 1.025l-3.2 3.264a.696.696 0 01-1.004 0l-1.778-1.814a.73.73 0 010-1.024.696.696 0 011.004 0l1.276 1.3 2.698-2.75a.696.696 0 011.004 0zM16 20.532c0-3.604 2.867-6.528 6.4-6.528 3.533 0 6.4 2.924 6.4 6.528 0 3.604-2.867 6.528-6.4 6.528-3.533 0-6.4-2.924-6.4-6.528zm6.4 5.077c2.751 0 4.978-2.27 4.978-5.077 0-2.806-2.227-5.077-4.978-5.077s-4.978 2.27-4.978 5.077c0 2.806 2.227 5.077 4.978 5.077z"/></svg><svg viewBox="0 0 448 512" id="agent-list" xmlns="http://www.w3.org/2000/svg"><path d="M377.7 338.8l37.15-92.87C419 235.4 411.3 224 399.1 224h-57.48c6.88-14.8 10.38-31 10.38-48 0-4.117-.836-8.057-1.217-12.08C390.7 155.1 416 142.3 416 128c0-16.08-31.75-30.28-80.31-38.99C323.8 45.15 304.9 0 277.4 0c-10.38 0-19.62 4.5-27.38 10.5-15.25 11.88-36.75 11.88-52 0C190.3 4.5 181.1 0 170.7 0c-27.5 0-46.3 45.16-58.2 88.98C63.83 97.68 32 111.9 32 128c0 14.34 25.31 27.13 65.22 35.92C96.84 167.9 96 171.9 96 176c0 17 3.47 33.2 9.5 48H48.02c-11.32 0-19.06 11.4-14.86 21.9l37.15 92.87C27.87 370.4 0 420.4 0 477.3 0 496.5 15.52 512 34.66 512H413.3c19.2 0 34.7-15.5 34.7-34.7 0-56.9-27.9-106.9-70.3-138.5zM176 479.1L128 288l64 32 16 32-32 127.1zm95.1 0L240 352l16-32 64-32-48.9 191.1zM320 186c0 21-17.2 38-38.4 38h-12.33c-16.46 0-30.29-10.39-35.63-24.99-1.54-4.11-5.24-7.01-9.64-7.01s-8.1 2.9-9.6 7c-5.4 14.6-19.2 25-35.6 25h-12.33C145.2 224 128 207 128 186v-16.5c28.3 4.1 60.1 6.5 96 6.5s67.74-2.383 96-6.473V186z" fill="currentColor"/></svg><svg viewBox="0 0 11 10" fill="none" id="apartment" xmlns="http://www.w3.org/2000/svg"><path d="M7.62.2c.53 0 .96.403.96.9v7.8c0 .497-.43.9-.96.9H5.7V8.3c0-.497-.43-.9-.96-.9s-.96.403-.96.9v1.5H1.86c-.53 0-.96-.403-.96-.9V1.1c0-.497.43-.9.96-.9h5.76zM2.18 5.3c0 .165.143.3.32.3h.64c.176 0 .32-.135.32-.3v-.6c0-.165-.144-.3-.32-.3H2.5c-.177 0-.32.135-.32.3v.6zm2.24-.9c-.176 0-.32.135-.32.3v.6c0 .165.144.3.32.3h.64c.176 0 .32-.135.32-.3v-.6c0-.165-.144-.3-.32-.3h-.64zm1.6.9c0 .165.144.3.32.3h.64c.176 0 .32-.135.32-.3v-.6c0-.165-.144-.3-.32-.3h-.64c-.176 0-.32.135-.32.3v.6zM2.5 2c-.177 0-.32.135-.32.3v.6c0 .165.143.3.32.3h.64c.176 0 .32-.135.32-.3v-.6c0-.165-.144-.3-.32-.3H2.5zm1.6.9c0 .165.144.3.32.3h.64c.176 0 .32-.135.32-.3v-.6c0-.165-.144-.3-.32-.3h-.64c-.176 0-.32.135-.32.3v.6zM6.34 2c-.176 0-.32.135-.32.3v.6c0 .165.144.3.32.3h.64c.176 0 .32-.135.32-.3v-.6c0-.165-.144-.3-.32-.3h-.64z" fill="currentColor"/></svg><svg fill="currentColor" viewBox="0 0 10 6" id="arrow-down" xmlns="http://www.w3.org/2000/svg"><path d="M5 6a.812.812 0 01-.566-.226l-4-3.857a.752.752 0 010-1.091.82.82 0 011.132 0L5 4.139 8.435.827a.82.82 0 011.13 0 .752.752 0 010 1.09L5.567 5.775A.813.813 0 015 6z"/></svg><svg fill="none" viewBox="0 0 24 24" stroke="currentColor" stroke-width="2" id="arrow-left" xmlns="http://www.w3.org/2000/svg"><path stroke-linecap="round" stroke-linejoin="round" d="M15 19l-7-7 7-7"/></svg><svg fill="none" viewBox="0 0 24 24" stroke="currentColor" id="arrow-left-long" xmlns="http://www.w3.org/2000/svg"><path stroke-linecap="round" stroke-linejoin="round" stroke-width="2" d="M10 19l-7-7m0 0l7-7m-7 7h18"/></svg><svg fill="none" viewBox="0 0 24 24" stroke="currentColor" stroke-width="2" id="arrow-right" xmlns="http://www.w3.org/2000/svg"><path stroke-linecap="round" stroke-linejoin="round" d="M9 5l7 7-7 7"/></svg><svg fill="none" viewBox="0 0 24 24" stroke="currentColor" stroke-width="2" id="arrow-right-long" xmlns="http://www.w3.org/2000/svg"><path stroke-linecap="round" stroke-linejoin="round" d="M14 5l7 7m0 0l-7 7m7-7H3"/></svg><svg fill="none" viewBox="0 0 12 12" id="auditorium" xmlns="http://www.w3.org/2000/svg"><path d="M1.2 8.925V6.297c0-.189.085-.37.234-.498l2.16-1.856a.755.755 0 01.972 0l2.16 1.856c.15.128.234.31.234.498v2.628c0 .373-.322.675-.72.675H1.92c-.397 0-.72-.302-.72-.675zm2.52-2.7c-.2 0-.36.15-.36.338v.675c0 .187.16.337.36.337h.72c.2 0 .36-.15.36-.337v-.675c0-.187-.16-.338-.36-.338h-.72z" fill="#9E77ED"/><path d="M6 3.075c0-.373.322-.675.72-.675h3.36c.397 0 .72.302.72.675v5.85c0 .373-.323.675-.72.675H7.2c.15-.188.24-.422.24-.675V7.35h.24c.132 0 .24-.101.24-.225v-.45c0-.124-.108-.225-.24-.225h-.24v-.153c0-.102-.015-.201-.042-.297h.282c.132 0 .24-.101.24-.225v-.45c0-.124-.108-.225-.24-.225H7.2c-.132 0-.24.101-.24.225v.065L6 4.564V3.075zM9.12 5.1c-.132 0-.24.101-.24.225v.45c0 .124.108.225.24.225h.48c.132 0 .24-.101.24-.225v-.45c0-.124-.108-.225-.24-.225h-.48zm-.24 2.025c0 .124.108.225.24.225h.48c.132 0 .24-.101.24-.225v-.45c0-.124-.108-.225-.24-.225h-.48c-.132 0-.24.101-.24.225v.45zm-1.92-2.7c0 .124.108.225.24.225h.48c.132 0 .24-.101.24-.225v-.45c0-.124-.108-.225-.24-.225H7.2c-.132 0-.24.101-.24.225v.45zm2.16-.675c-.132 0-.24.101-.24.225v.45c0 .124.108.225.24.225h.48c.132 0 .24-.101.24-.225v-.45c0-.124-.108-.225-.24-.225h-.48z" fill="#9E77ED"/></svg><svg fill="none" viewBox="0 0 38 47" id="award" xmlns="http://www.w3.org/2000/svg"><path d="M18.654 9.801c-4.672 0-8.46 3.542-8.46 7.931 0 4.378 3.787 7.931 8.373 7.931 4.587 0 8.46-3.55 8.46-7.93 0-4.39-3.701-7.932-8.373-7.932zm0 12.978c-2.97 0-5.384-2.262-5.384-5.047 0-2.783 2.415-5.047 5.297-5.047 2.882 0 5.384 2.262 5.384 5.047 0 2.785-2.327 5.047-5.297 5.047zm18.457-5.047c0-1.487-1.66-2.75-2.051-4.121-.404-1.42.347-3.29-.42-4.533-.777-1.26-2.887-1.579-3.977-2.601-1.091-1.023-1.43-3-2.775-3.73-1.323-.718-3.329-.018-4.835-.395-1.467-.367-2.813-1.924-4.4-1.924-1.585 0-2.931 1.557-4.392 1.923-1.52.379-3.519-.324-4.838.394-1.43.729-1.684 2.707-2.775 3.729-1.09 1.023-3.2 1.34-3.978 2.602-.768 1.239-.018 3.114-.421 4.528-.392 1.38-2.053 2.641-2.053 4.128s1.66 2.75 2.052 4.122c.404 1.42-.347 3.29.42 4.532.778 1.26 2.887 1.575 3.977 2.603 1.091 1.023 1.43 3 2.774 3.73 1.321.717 3.329.016 4.835.395 1.468.363 2.814 1.922 4.4 1.922 1.586 0 2.934-1.556 4.397-1.923 1.511-.38 3.509.325 4.835-.394 1.344-.729 1.684-2.706 2.775-3.73 1.091-1.022 3.2-1.34 3.979-2.6.767-1.243.016-3.113.42-4.532.388-1.376 2.051-2.638 2.051-4.125zm-5.027 3.38c-.424 1.486-.13 2.893-.163 3.81-.756.447-2.273.935-3.44 2.03-1.156 1.083-1.69 2.522-2.163 3.221-.884.037-2.455-.25-4.064.154-1.607.402-2.827 1.42-3.604 1.783-.771-.36-1.999-1.382-3.603-1.783-1.606-.404-3.176-.118-4.065-.155-.47-.706-1-2.13-2.162-3.22-1.164-1.1-2.677-1.577-3.438-2.037-.034-.829.265-2.307-.163-3.803-.429-1.506-1.516-2.649-1.903-3.378.384-.723 1.474-1.872 1.903-3.38.427-1.496.128-2.963.163-3.81.755-.447 2.273-.934 3.44-2.029 1.16-1.086 1.69-2.524 2.16-3.225.884-.034 2.465.247 4.065-.153 1.61-.403 2.82-1.418 3.603-1.783.772.36 1.997 1.381 3.604 1.784 1.61.403 3.173.117 4.065.154.465.69 1.004 2.137 2.164 3.223 1.156 1.085 2.691 1.587 3.438 2.03.034.835-.264 2.31.163 3.81.43 1.506 1.516 2.648 1.902 3.377-.374.721-1.47 1.875-1.902 3.38zm-2.692 15.34c-.174-.78-.977-1.283-1.82-1.117-.83.161-1.365.925-1.19 1.705l1.678 6.654-8.715-4.085a1.631 1.631 0 00-1.376 0l-8.544 4.21 1.508-6.78c.175-.78-.36-1.542-1.19-1.705-.835-.166-1.65.337-1.82 1.117l-1.509 6.782c-.234 1.05.187 2.107 1.09 2.76.908.652 2.1.76 3.125.281l8.025-3.839 8.027 3.763c.423.275.875.374 1.327.374.637 0 1.265-.196 1.796-.577.905-.653 1.325-1.71 1.09-2.761l-1.502-6.783z" fill="currentColor"/></svg><svg fill="none" viewBox="0 0 16 16" id="basketball" xmlns="http://www.w3.org/2000/svg"><path d="M8 .8A7.2 7.2 0 00.8 8 7.2 7.2 0 008 15.2 7.2 7.2 0 0015.2 8 7.2 7.2 0 008 .8zM13.85 8v.015C13.773 8.011 13.7 8 13.624 8a5.6 5.6 0 00-3.468 1.204L8.953 8l3.603-3.603A5.585 5.585 0 0113.85 8zm-4.5 5.625c0-.935.31-1.794.822-2.499l1.455 1.455a5.828 5.828 0 01-2.273 1.104c-.001-.02-.004-.04-.004-.06zm2.253-10.206L8 7.047 6.796 5.843A5.605 5.605 0 008 2.375c0-.076-.012-.149-.015-.224L8 2.15c1.37 0 2.63.477 3.603 1.269zm-7.231 0a5.828 5.828 0 012.273-1.104c.002.02.005.04.005.06 0 .935-.31 1.794-.822 2.499L4.372 3.419zm-.953.953l1.454 1.457c-.704.486-1.563.821-2.498.821-.02 0-.04-.004-.06-.004a5.83 5.83 0 011.104-2.274zM2.15 8v-.015c.076.004.149.015.225.015a5.6 5.6 0 003.468-1.204L7.047 8l-3.603 3.603A5.577 5.577 0 012.15 8zm2.222 4.582L8 8.953l1.204 1.205A5.602 5.602 0 008 13.625c0 .076.012.149.015.224-.004-.024-.01.001-.015.001a5.83 5.83 0 01-3.628-1.268zm8.21-.98l-1.455-1.454a4.375 4.375 0 012.498-.798c.02 0 .04.004.06.004a5.555 5.555 0 01-1.103 2.249z" fill="currentColor"/></svg><svg fill="none" viewBox="0 0 20 20" id="bathroom" xmlns="http://www.w3.org/2000/svg"><path d="M17.25 10.003H4.5V4.168a.665.665 0 011.133-.47l.098.1c-.406.847-.265 1.861.438 2.593l.464.464a.739.739 0 00.088.927.75.75 0 001.06-.002l3-3a.75.75 0 000-1.06.717.717 0 00-.512-.212.774.774 0 00-.416.123l-.462-.464c-.732-.703-1.75-.841-2.597-.433l-.047-.046c-.484-.484-1.16-.76-1.84-.672A2.17 2.17 0 003 4.168v5.834l-.25.001a.75.75 0 100 1.5H3V14c0 .848.367 1.656 1 2.222v1.028a.749.749 0 101.5 0v-.301c.164.03.332.046.5.05h8a3.05 3.05 0 00.5-.05v.3c0 .416.334.75.75.75s.75-.334.75-.75v-1.028c.633-.566 1-1.374 1-2.222v-2.497h.25a.75.75 0 000-1.5zM8.328 4.228l.442.441-1.101 1.1-.44-.44a.777.777 0 111.1-1.1zM15.5 14a1.5 1.5 0 01-1.5 1.5H6A1.5 1.5 0 014.5 14v-2.497h11V14z" fill="currentColor"/></svg><svg fill="none" viewBox="0 0 21 20" id="bedroom" xmlns="http://www.w3.org/2000/svg"><path d="M6.533 11.286c1.213 0 2.2-1.058 2.2-2.357 0-1.3-.987-2.358-2.2-2.358-1.212 0-2.2 1.058-2.2 2.358 0 1.299.988 2.357 2.2 2.357zm0-3.429c.528 0 1 .482 1 1.072 0 .589-.472 1.071-1 1.071-.572 0-1-.482-1-1.071 0-.59.428-1.072 1-1.072zm9-1.286h-5.6c-.22 0-.4.193-.4.429v5.143h-6v-7.5c0-.355-.268-.643-.6-.643-.331 0-.6.288-.6.619v10.738c0 .356.269.643.578.643.308 0 .622-.287.622-.643V13.43h13.6v1.928c0 .356.268.643.6.643.333 0 .6-.287.6-.643V9.571c0-1.658-1.252-3-2.8-3zm1.6 5.572h-6.4V7.857h4.8c.882 0 1.6.77 1.6 1.714v2.572z" fill="currentColor"/></svg><svg viewBox="0 0 512 512" id="blog-list" xmlns="http://www.w3.org/2000/svg"><path d="M72 48c13.25 0 24 10.75 24 24v48c0 13.3-10.75 24-24 24v88h56c0-13.3 10.7-24 24-24h48c13.3 0 24 10.7 24 24v48c0 13.3-10.7 24-24 24h-48c-13.3 0-24-10.7-24-24H72v104c0 4.4 3.58 8 8 8h48c0-13.3 10.7-24 24-24h48c13.3 0 24 10.7 24 24v48c0 13.3-10.7 24-24 24h-48c-13.3 0-24-10.7-24-24H80c-30.93 0-56-25.1-56-56V144c-13.25 0-24-10.7-24-24V72c0-13.25 10.75-24 24-24h48zm88 48c0-17.67 14.3-32 32-32h288c17.7 0 32 14.33 32 32 0 17.7-14.3 32-32 32H192c-17.7 0-32-14.3-32-32zm128 160c0-17.7 14.3-32 32-32h160c17.7 0 32 14.3 32 32s-14.3 32-32 32H320c-17.7 0-32-14.3-32-32zm0 160c0-17.7 14.3-32 32-32h160c17.7 0 32 14.3 32 32s-14.3 32-32 32H320c-17.7 0-32-14.3-32-32z" fill="currentColor"/></svg><svg fill="none" viewBox="0 0 27 36" id="bolt" xmlns="http://www.w3.org/2000/svg"><g clip-path="url(#awclip0_2076_33008)"><path d="M19.322.442A1.767 1.767 0 0120.489 0a1.749 1.749 0 011.645 2.34l-4.788 13.41h7.692c1.111 0 1.962.85 1.962 1.898 0 .549-.232 1.07-.64 1.428L7.671 35.564a1.753 1.753 0 01-2.807-1.906l4.79-13.408h-7.84A1.817 1.817 0 01.61 17.079L19.322.442zm.042 2.979L2.96 18h8.291c.366 0 .71.176.921.478.211.295.26.682.14 1.027L7.637 32.597 24.173 18H15.75a1.12 1.12 0 01-.921-.478c-.211-.359-.26-.682-.14-1.027l4.675-13.074z" fill="#98A2B3"/><path d="M20.579 12.958l4.735-3.768M1.357 27.07l5.112-4.289" stroke="#2E90FA" stroke-width="2.3" stroke-linecap="round"/></g><defs><clipPath id="awclip0_2076_33008"><path fill="#fff" d="M0 0h27v36H0z"/></clipPath></defs></svg><svg fill="none" viewBox="0 0 20 20" id="booking" xmlns="http://www.w3.org/2000/svg"><path d="M10 12.715c0-2.497 2.016-4.522 4.5-4.522s4.5 2.025 4.5 4.522c0 2.497-2.016 4.523-4.5 4.523S10 15.212 10 12.715zm6.603-.65a.5.5 0 000-.71.494.494 0 00-.706 0L14 13.261l-.897-.9a.494.494 0 00-.706 0 .5.5 0 000 .709l1.25 1.256a.494.494 0 00.706 0l2.25-2.261z" fill="#98A2B3"/><path d="M2.585 2.996a1.5 1.5 0 011.342-.833H7.5v4.02H1l1.585-3.187zM8.5 6.183v-4.02h3.572c.569 0 1.087.322 1.344.833L15 6.183H8.5zM14 7.208c-2.803.255-5 2.623-5 5.506 0 1.335.472 2.563 1.256 3.518H3c-1.105 0-2-.902-2-2.01V7.187h13v.022z" fill="currentColor"/></svg><svg fill="none" viewBox="0 0 24 24" stroke="currentColor" stroke-width="2" id="bookmark" xmlns="http://www.w3.org/2000/svg"><path stroke-linecap="round" stroke-linejoin="round" d="M5 5a2 2 0 012-2h10a2 2 0 012 2v16l-7-3.5L5 21V5z"/></svg><svg fill="none" viewBox="0 0 20 20" id="bookmarks" xmlns="http://www.w3.org/2000/svg"><path d="M19 13.5a4.501 4.501 0 01-9 0 4.501 4.501 0 019 0zm-5-2.028v1.5h-1.5a.52.52 0 00-.5.5c0 .303.225.5.5.5H14v1.5c0 .303.225.5.5.5s.5-.197.5-.5v-1.5h1.5c.275 0 .5-.197.5-.5a.52.52 0 00-.5-.5H15v-1.5a.52.52 0 00-.5-.5.52.52 0 00-.5.5z" fill="#D0D5DD"/><path d="M16.844 8.522a5.5 5.5 0 00-6.94 7.997l-.173.178c-.406.403-1.06.403-1.434 0L2.24 10.453C.493 8.641.587 5.643 2.553 3.96c1.685-1.468 4.275-1.187 5.838.406l.622.655.593-.655c1.563-1.593 4.122-1.874 5.869-.406 1.34 1.17 1.797 2.966 1.369 4.563z" fill="currentColor"/></svg><svg fill="none" viewBox="0 0 40 40" id="buy-sell" xmlns="http://www.w3.org/2000/svg"><mask id="baa" maskUnits="userSpaceOnUse" x="3" y="3" width="34" height="34" fill="#000"><path fill="#fff" d="M3 3h34v34H3z"/><path d="M35.077 25.49a2.038 2.038 0 00-.677-.283V11.263L22.667 4l-5.748 3.558a7.113 7.113 0 00-1.112-1.428 6.877 6.877 0 00-4.874-2.036h-.035A6.925 6.925 0 006.04 15.928a6.893 6.893 0 004.77 2.031h.123v8.313a2.648 2.648 0 01-1.858.755H4v1.067h5.075A3.71 3.71 0 0011.715 27l.258-.259a2.65 2.65 0 011.886-.78h6.408a.8.8 0 010 1.6H13.6v1.066h1.501l6.02 2.316a2.651 2.651 0 002.032-.048l10.422-4.586a.968.968 0 01.847 1.74l-11.443 6.13a7.068 7.068 0 01-5.252.582l-6.51-1.809a1.597 1.597 0 00-.429-.058H4v1.066h6.788c.048 0 .096.007.143.02l6.51 1.809a8.133 8.133 0 006.042-.67l11.443-6.13a2.035 2.035 0 00.151-3.498zM6.794 15.174a5.861 5.861 0 014.11-10.012h.029a5.868 5.868 0 015 8.937 1.612 1.612 0 00-.181 1.278l.442 1.572a.533.533 0 01-.736.628l-1.793-.825c-.347-.16-.74-.19-1.108-.085a5.856 5.856 0 01-5.763-1.493zm15.93 14.745a1.59 1.59 0 01-1.22.03l-3.431-1.32h2.194a1.867 1.867 0 100-3.734h-.8v-3.2h1.6v-1.067h-1.6V16.36h6.4v12.175l-3.144 1.383zm4.21-1.852V15.294H18.4v9.6H13.86a3.711 3.711 0 00-1.859.495v-7.511c.288-.044.572-.107.852-.186a.53.53 0 01.367.028l1.793.825c.21.098.44.15.673.15a1.603 1.603 0 001.536-2.037l-.443-1.57a.542.542 0 01.063-.43 6.92 6.92 0 001.026-3.63 6.8 6.8 0 00-.477-2.507l5.277-3.266 10.666 6.603v13.404a2.06 2.06 0 00-.187.07l-6.213 2.734z"/></mask><path d="M35.077 25.49a2.038 2.038 0 00-.677-.283V11.263L22.667 4l-5.748 3.558a7.113 7.113 0 00-1.112-1.428 6.877 6.877 0 00-4.874-2.036h-.035A6.925 6.925 0 006.04 15.928a6.893 6.893 0 004.77 2.031h.123v8.313a2.648 2.648 0 01-1.858.755H4v1.067h5.075A3.71 3.71 0 0011.715 27l.258-.259a2.65 2.65 0 011.886-.78h6.408a.8.8 0 010 1.6H13.6v1.066h1.501l6.02 2.316a2.651 2.651 0 002.032-.048l10.422-4.586a.968.968 0 01.847 1.74l-11.443 6.13a7.068 7.068 0 01-5.252.582l-6.51-1.809a1.597 1.597 0 00-.429-.058H4v1.066h6.788c.048 0 .096.007.143.02l6.51 1.809a8.133 8.133 0 006.042-.67l11.443-6.13a2.035 2.035 0 00.151-3.498zM6.794 15.174a5.861 5.861 0 014.11-10.012h.029a5.868 5.868 0 015 8.937 1.612 1.612 0 00-.181 1.278l.442 1.572a.533.533 0 01-.736.628l-1.793-.825c-.347-.16-.74-.19-1.108-.085a5.856 5.856 0 01-5.763-1.493zm15.93 14.745a1.59 1.59 0 01-1.22.03l-3.431-1.32h2.194a1.867 1.867 0 100-3.734h-.8v-3.2h1.6v-1.067h-1.6V16.36h6.4v12.175l-3.144 1.383zm4.21-1.852V15.294H18.4v9.6H13.86a3.711 3.711 0 00-1.859.495v-7.511c.288-.044.572-.107.852-.186a.53.53 0 01.367.028l1.793.825c.21.098.44.15.673.15a1.603 1.603 0 001.536-2.037l-.443-1.57a.542.542 0 01.063-.43 6.92 6.92 0 001.026-3.63 6.8 6.8 0 00-.477-2.507l5.277-3.266 10.666 6.603v13.404a2.06 2.06 0 00-.187.07l-6.213 2.734z" fill="currentColor"/><path d="M35.077 25.49a2.038 2.038 0 00-.677-.283V11.263L22.667 4l-5.748 3.558a7.113 7.113 0 00-1.112-1.428 6.877 6.877 0 00-4.874-2.036h-.035A6.925 6.925 0 006.04 15.928a6.893 6.893 0 004.77 2.031h.123v8.313a2.648 2.648 0 01-1.858.755H4v1.067h5.075A3.71 3.71 0 0011.715 27l.258-.259a2.65 2.65 0 011.886-.78h6.408a.8.8 0 010 1.6H13.6v1.066h1.501l6.02 2.316a2.651 2.651 0 002.032-.048l10.422-4.586a.968.968 0 01.847 1.74l-11.443 6.13a7.068 7.068 0 01-5.252.582l-6.51-1.809a1.597 1.597 0 00-.429-.058H4v1.066h6.788c.048 0 .096.007.143.02l6.51 1.809a8.133 8.133 0 006.042-.67l11.443-6.13a2.035 2.035 0 00.151-3.498h0zM6.794 15.174a5.861 5.861 0 014.11-10.012h.029a5.868 5.868 0 015 8.937 1.612 1.612 0 00-.181 1.278l.442 1.572a.533.533 0 01-.736.628l-1.793-.825c-.347-.16-.74-.19-1.108-.085h0a5.856 5.856 0 01-5.763-1.493h0zm15.93 14.745a1.59 1.59 0 01-1.22.03l-3.431-1.32h2.194a1.867 1.867 0 100-3.734h-.8v-3.2h1.6v-1.067h-1.6V16.36h6.4v12.175l-3.144 1.383zm4.21-1.852V15.294H18.4v9.6H13.86a3.711 3.711 0 00-1.859.495v-7.511c.288-.044.572-.107.852-.186a.53.53 0 01.367.028l1.793.825c.21.098.44.15.673.15a1.603 1.603 0 001.536-2.037l-.443-1.57a.542.542 0 01.063-.43 6.92 6.92 0 001.026-3.63 6.8 6.8 0 00-.477-2.507l5.277-3.266 10.666 6.603v13.404a2.06 2.06 0 00-.187.07l-6.213 2.734z" stroke="currentColor" stroke-width=".2" mask="url(#baa)"/><path d="M14.627 7.671l-.035.035-.942.942v1.937h0m.977-2.914l-1.495 4.046a1.59 1.59 0 00.468-1.132h.05m.977-2.914l-.035-.035-.754-.755-.036-.035-.035.035-.896.896m1.756-.106l-1.735.156m.758 2.758a1.638 1.638 0 01-.483 1.167l.483-1.167zm-2.808-2.808a1.64 1.64 0 00-1.167.484s0 0 0 0L7.01 10.927h0a1.652 1.652 0 000 2.334h0l1.158 1.158h0a1.652 1.652 0 002.333 0h0l2.667-2.667-2.325-3.925m0-.05s0 0 0 0v.05m0-.05h0v.05m0-.05h2.029m-2.029.05h2.05m-.021-.05l-.015.015.036.035m-.021-.05h.02v.05m-.549 3.1h0a.478.478 0 00.142-.341h0v-.771l-1.115 1.114-.035.036-.036-.036-.754-.754-.035-.035.035-.036 1.16-1.16h-.862 0a.48.48 0 00-.342.141h0l-2.666 2.667 4.508-.825zm0 0l-2.667 2.667m2.667-2.667l-2.667 2.667m0 0s0 0 0 0h0zm-1.983-1.5c0 .128.051.25.142.342l-.142-.342zm0 0c0-.128.051-.251.142-.342l-.142.342zm11.75-3.012l-.025.015V13.744h6.5V9.097l-.025-.015-3.2-1.92-.025-.015-.026.015-3.2 1.92zm9.041 14.745v.05h3.3V15.244h-3.3v8.583zM8.992 13.594l-1.158-1.158 1.158 1.158zm11.591-1.017v-2.82l2.084-1.25 2.083 1.25v2.82h-4.166zM29.65 22.71v-2.566h.967v2.567h-.967zm.967-6.3v2.567h-.967V16.41h.967z" fill="currentColor" stroke="currentColor" stroke-width=".1"/></svg><svg fill="currentColor" viewBox="0 0 448 512" id="calendar-duotone" xmlns="http://www.w3.org/2000/svg"><path class="bbfa-primary" d="M160 32v32h128V32c0-17.67 14.3-32 32-32s32 14.33 32 32v32h48c26.5 0 48 21.49 48 48v80H0v-80c0-26.51 21.49-48 48-48h48V32c0-17.67 14.3-32 32-32s32 14.33 32 32zm56.1 384.1c-8.5 10.2-23.7 10.2-33.1 0l-64-64c-9.3-8.5-9.3-23.7 0-33.1 9.4-9.3 24.6-9.3 33.1 0l47.9 47.1 95-95.1c9.4-9.3 24.6-9.3 33.1 0 10.2 9.4 10.2 24.6 0 33.1l-112 112z"/><path class="bbfa-secondary" d="M448 464c0 26.5-21.5 48-48 48H48c-26.51 0-48-21.5-48-48V192h448v272zM328.1 304.1c10.2-8.5 10.2-23.7 0-33.1-8.5-9.3-23.7-9.3-33.1 0l-95 95.1-47.9-47.1c-8.5-9.3-23.7-9.3-33.1 0-9.3 9.4-9.3 24.6 0 33.1l64 64c9.4 10.2 24.6 10.2 33.1 0l112-112z" opacity=".4"/></svg><svg fill="none" viewBox="0 0 12 12" id="calender" xmlns="http://www.w3.org/2000/svg"><path d="M4.65 2.4h2.7v-.75a.45.45 0 11.9 0v.75H9a1.2 1.2 0 011.2 1.2v6c0 .662-.538 1.2-1.2 1.2H3a1.2 1.2 0 01-1.2-1.2v-6A1.2 1.2 0 013 2.4h.75v-.75a.45.45 0 11.9 0v.75zM2.7 9.6a.3.3 0 00.3.3h6a.3.3 0 00.3-.3V4.8H2.7v4.8z" fill="currentColor"/></svg><svg fill="none" viewBox="0 0 14 16" id="calender-fill" xmlns="http://www.w3.org/2000/svg"><path d="M5 1v1h4V1a1 1 0 112 0v1h1.5A1.5 1.5 0 0114 3.5V6H0V3.5A1.5 1.5 0 011.5 2H3V1a1 1 0 112 0zm1.753 12.003c-.266.319-.74.319-1.034 0l-2-2c-.29-.265-.29-.74 0-1.034.294-.29.768-.29 1.034 0L6.25 11.44l2.969-2.972c.293-.29.769-.29 1.034 0 .319.293.319.769 0 1.034l-3.5 3.5z" fill="#344054"/><path d="M14 14.5a1.5 1.5 0 01-1.5 1.5h-11A1.5 1.5 0 010 14.5V6h14v8.5zm-3.747-4.997c.319-.265.319-.74 0-1.034-.265-.29-.74-.29-1.034 0L6.25 11.44 4.753 9.969c-.266-.29-.74-.29-1.034 0-.29.293-.29.769 0 1.034l2 2c.293.319.768.319 1.034 0l3.5-3.5z" fill="#98A2B3"/></svg><svg fill="none" viewBox="0 0 24 24" stroke="currentColor" stroke-width="2" id="calender-outline" xmlns="http://www.w3.org/2000/svg"><path stroke-linecap="round" stroke-linejoin="round" d="M8 7V3m8 4V3m-9 8h10M5 21h14a2 2 0 002-2V7a2 2 0 00-2-2H5a2 2 0 00-2 2v12a2 2 0 002 2z"/></svg><svg fill="none" viewBox="0 0 24 24" stroke="currentColor" stroke-width="2" id="call" xmlns="http://www.w3.org/2000/svg"><path stroke-linecap="round" stroke-linejoin="round" d="M3 5a2 2 0 012-2h3.28a1 1 0 01.948.684l1.498 4.493a1 1 0 01-.502 1.21l-2.257 1.13a11.042 11.042 0 005.516 5.516l1.13-2.257a1 1 0 011.21-.502l4.493 1.498a1 1 0 01.684.949V19a2 2 0 01-2 2h-1C9.716 21 3 14.284 3 6V5z"/></svg><svg fill="none" viewBox="0 0 24 24" stroke="currentColor" stroke-width="2" id="camera" xmlns="http://www.w3.org/2000/svg"><path stroke-linecap="round" stroke-linejoin="round" d="M3 9a2 2 0 012-2h.93a2 2 0 001.664-.89l.812-1.22A2 2 0 0110.07 4h3.86a2 2 0 011.664.89l.812 1.22A2 2 0 0018.07 7H19a2 2 0 012 2v9a2 2 0 01-2 2H5a2 2 0 01-2-2V9z"/><path stroke-linecap="round" stroke-linejoin="round" d="M15 13a3 3 0 11-6 0 3 3 0 016 0z"/></svg><svg fill="none" viewBox="0 0 32 33" id="chart" xmlns="http://www.w3.org/2000/svg"><path d="M4.8 23.7a2.4 2.4 0 002.4 2.4H28c.44 0 .8.36.8.8 0 .44-.36.8-.8.8H7.2a4 4 0 01-4-4V6.1a.8.8 0 111.6 0v17.6zm14.965-5.035a.794.794 0 01-1.13 0l-4.28-4.235-4.99 5.035a.794.794 0 01-1.13 0 .797.797 0 010-1.13l5.6-5.6a.794.794 0 011.13 0L19.2 16.97l6.635-6.635a.794.794 0 011.13 0c.315.31.315.82 0 1.13l-7.2 7.2z" fill="currentColor"/></svg><svg viewBox="0 0 20 20" fill="currentColor" id="check" xmlns="http://www.w3.org/2000/svg"><path fill-rule="evenodd" d="M16.707 5.293a1 1 0 010 1.414l-8 8a1 1 0 01-1.414 0l-4-4a1 1 0 011.414-1.414L8 12.586l7.293-7.293a1 1 0 011.414 0z" clip-rule="evenodd"/></svg><svg fill="currentColor" viewBox="0 0 31 31" id="check-fill-circle" xmlns="http://www.w3.org/2000/svg"><path d="M3.1 15.5c0-6.85 5.551-12.4 12.4-12.4 6.85 0 12.4 5.55 12.4 12.4 0 6.849-5.55 12.4-12.4 12.4-6.849 0-12.4-5.551-12.4-12.4zm18.01-2.141a1.36 1.36 0 000-1.918 1.36 1.36 0 00-1.919 0l-5.24 5.24-2.142-2.14a1.36 1.36 0 00-1.918 0 1.36 1.36 0 000 1.918l3.1 3.1a1.36 1.36 0 001.918 0l6.2-6.2z"/></svg><svg fill="none" viewBox="0 0 16 16" id="check-outline-circle" xmlns="http://www.w3.org/2000/svg"><path d="M7.418 10.118a.447.447 0 01-.636 0l-1.8-1.8a.446.446 0 010-.636.446.446 0 01.636 0L7.1 9.164l3.282-3.282a.446.446 0 01.636 0 .446.446 0 010 .636l-3.6 3.6zM15.2 8A7.2 7.2 0 018 15.2 7.2 7.2 0 01.8 8 7.2 7.2 0 018 .8 7.2 7.2 0 0115.2 8zM8 1.7a6.3 6.3 0 100 12.6A6.3 6.3 0 008 1.7z" fill="currentColor"/></svg><svg fill="none" viewBox="0 0 24 24" stroke="currentColor" stroke-width="2" id="clock" xmlns="http://www.w3.org/2000/svg"><path stroke-linecap="round" stroke-linejoin="round" d="M12 8v4l3 3m6-3a9 9 0 11-18 0 9 9 0 0118 0z"/></svg><svg fill="none" viewBox="0 0 24 24" stroke="currentColor" stroke-width="2" id="close" xmlns="http://www.w3.org/2000/svg"><path stroke-linecap="round" stroke-linejoin="round" d="M6 18L18 6M6 6l12 12"/></svg><svg fill="currentColor" viewBox="0 0 448 512" id="coach-duotone" xmlns="http://www.w3.org/2000/svg"><path class="bnfa-primary" d="M223.1 132.6c53.24 0 91.02-8.625 117.1-18.5C330 64.5 309.5 0 276.6 0c-10.37 0-19.62 4.5-27.37 10.5-7.43 5.78-16.33 8.63-25.23 8.79-8.9-.16-17.8-3.01-25.2-8.79-7.8-6-17-10.5-27.4-10.5-32.8 0-53.4 64.5-64.5 114.1 26.1 9.9 63.8 18.5 116.2 18.5zM224 256c106.7 0 196.3-67.43 223.1-138.9 2.75-7.625-.938-15.94-8.686-19.44-7.623-3.5-16.81-1.312-21.93 5.312-.875 1.25-45.63 61.63-192.5 61.63S32.39 104.3 31.52 103c-5.13-6.62-14.25-8.87-21.873-5.37-7.75 3.5-11.5 11.88-8.749 19.5C27.66 188.6 117.3 256 224 256zm110 128H114c-53.44 0-100.1 36.38-113 88.24C-4.044 492.4 11.19 512 32 512h383.1c20.81 0 36.09-19.56 31.04-39.76C434.1 420.4 387.5 384 334 384z"/><path class="bnfa-secondary" d="M351.1 224c0 70.69-57.3 128-127.1 128S96 294.8 96 224.1c0-.977.265-1.986.286-2.957C132.9 242.2 176.6 256 224 256s91.05-13.78 127.7-34.85c0 .95-.6 1.85-.6 2.85z" opacity=".4"/></svg><svg fill="none" viewBox="0 0 36 36" id="code-regular" xmlns="http://www.w3.org/2000/svg"><path d="M28.372 10.48l7.2 6.563c.276.247.428.597.428.908 0 .41-.152.711-.428 1.006l-7.2 6.563a1.372 1.372 0 01-1.906-.06 1.283 1.283 0 01.061-1.854l6.149-5.655-6.149-5.556a1.283 1.283 0 01-.061-1.854 1.372 1.372 0 011.906-.06zm-18.9 1.915L3.325 17.95l6.149 5.655c.545.498.573 1.323.061 1.854a1.372 1.372 0 01-1.907.06l-7.2-6.563C.154 18.662 0 18.361 0 17.951c0-.311.154-.662.427-.908l7.2-6.562a1.372 1.372 0 011.907.06c.512.53.484 1.356-.062 1.854z" fill="#98A2B3"/><path d="M15.639 31.077l8.1-25.375c.225-.693-.174-1.428-.889-1.643-.709-.215-1.468.173-1.687.865l-8.1 25.376c-.225.69.174 1.378.888 1.641.71.213 1.418-.17 1.688-.864z" fill="#2E90FA"/></svg><svg fill="none" viewBox="0 0 24 24" stroke="currentColor" stroke-width="2" id="comment" xmlns="http://www.w3.org/2000/svg"><path stroke-linecap="round" stroke-linejoin="round" d="M8 10h.01M12 10h.01M16 10h.01M9 16H5a2 2 0 01-2-2V6a2 2 0 012-2h14a2 2 0 012 2v8a2 2 0 01-2 2h-5l-5 5v-5z"/></svg><svg fill="currentColor" viewBox="0 0 20 20" id="compare" xmlns="http://www.w3.org/2000/svg"><path d="M12 17.25a.748.748 0 01-.444.684c-.272.122-.615.072-.81-.128l-2.5-2.25a.75.75 0 010-1.112l2.5-2.25c.194-.2.538-.25.81-.129a.748.748 0 01.444.685v1.5h.5A2.249 2.249 0 0014.75 12V6.884A2.499 2.499 0 0115.5 2a2.5 2.5 0 01.75 4.884V12a3.749 3.749 0 01-3.75 3.75H12v1.5zm4.5-12.778c0-.524-.447-1-1-1-.553 0-1 .476-1 1 0 .58.447 1 1 1 .553 0 1-.42 1-1zM8 2.75a.752.752 0 011.253-.557l2.5 2.25a.75.75 0 010 1.114l-2.5 2.25A.748.748 0 018 7.25v-1.5h-.5A2.249 2.249 0 005.25 8v5.116A2.499 2.499 0 014.5 18a2.5 2.5 0 01-.75-4.884V8A3.749 3.749 0 017.5 4.25H8v-1.5zM3.5 15.5a1 1 0 101.999 0 1 1 0 00-1.999 0z"/></svg><svg fill="none" viewBox="0 0 28 28" id="customize" xmlns="http://www.w3.org/2000/svg"><path d="M2.951 22.925l1.564.653V13.044L1.68 19.88a2.355 2.355 0 001.271 3.045zm22.75-4.317L19.916 4.643a2.348 2.348 0 00-2.112-1.434 2.35 2.35 0 00-.922.175L8.283 6.941a2.332 2.332 0 00-1.435 2.1c-.011.315.047.63.175.933L12.81 23.94a2.33 2.33 0 002.135 1.435c.303 0 .607-.058.898-.175l8.587-3.558c1.19-.49 1.762-1.855 1.271-3.034zm-10.733 4.434L9.181 9.088l8.575-3.546h.012l5.775 13.941-8.575 3.559z" fill="#2E90FA"/><path d="M12.833 11.667a1.167 1.167 0 100-2.333 1.167 1.167 0 000 2.333zM6.86 23.042a2.34 2.34 0 002.333 2.333h1.692l-4.025-9.73v7.397z" fill="#2E90FA"/></svg><svg fill="none" viewBox="0 0 20 20" id="dashboard" xmlns="http://www.w3.org/2000/svg"><path d="M7.143 2c.946 0 1.714.746 1.714 1.667v5.555c0 .92-.768 1.667-1.714 1.667H3.714C2.768 10.889 2 10.142 2 9.222V3.667C2 2.747 2.768 2 3.714 2h3.429zm0 11.111c.946 0 1.714.747 1.714 1.667v1.11c0 .921-.768 1.668-1.714 1.668H3.714c-.946 0-1.714-.747-1.714-1.667v-1.111c0-.92.768-1.667 1.714-1.667h3.429z" fill="currentColor"/><path d="M16.286 2C17.232 2 18 2.746 18 3.667v1.11c0 .92-.768 1.667-1.714 1.667h-3.429c-.946 0-1.714-.746-1.714-1.666V3.667c0-.92.768-1.667 1.714-1.667h3.429zm0 6.667c.946 0 1.714.746 1.714 1.666v5.556c0 .92-.768 1.667-1.714 1.667h-3.429c-.946 0-1.714-.747-1.714-1.667v-5.556c0-.92.768-1.666 1.714-1.666h3.429z" fill="#B2DDFF"/></svg><svg fill="none" viewBox="0 0 20 20" id="delete" xmlns="http://www.w3.org/2000/svg"><path d="M7.5 14.5c0 .275-.225.5-.5.5a.501.501 0 01-.5-.5v-7c0-.275.225-.5.5-.5s.5.225.5.5v7zm3 0c0 .275-.225.5-.5.5a.501.501 0 01-.5-.5v-7c0-.275.225-.5.5-.5s.5.225.5.5v7zm3 0c0 .275-.225.5-.5.5a.501.501 0 01-.5-.5v-7c0-.275.225-.5.5-.5s.5.225.5.5v7zm-.81-11.795L13.529 4H16.5a.5.5 0 010 1H16v10.5a2.5 2.5 0 01-2.5 2.5h-7A2.5 2.5 0 014 15.5V5h-.5a.5.5 0 110-1h2.972l.81-1.295A1.503 1.503 0 018.552 2h2.894c.516 0 .997.266 1.244.705zM7.654 4h4.694l-.478-.765A.496.496 0 0011.447 3H8.553a.496.496 0 00-.422.235L7.653 4zM5 15.5A1.5 1.5 0 006.5 17h7a1.5 1.5 0 001.5-1.5V5H5v10.5z" fill="currentColor"/></svg><svg fill="none" viewBox="0 0 12 12" id="dollar" xmlns="http://www.w3.org/2000/svg"><path d="M7.2 3H4.8L3.91 1.666a.3.3 0 01.25-.466h3.678a.3.3 0 01.25.466L7.199 3zm-2.4.6h2.4c.071.047.152.1.227.157C8.507 4.438 10.8 5.904 10.8 9A1.8 1.8 0 019 10.8H3A1.8 1.8 0 011.2 9c0-3.096 2.293-4.562 3.356-5.243.092-.058.173-.11.244-.157zm1.577 1.8a.38.38 0 00-.394-.377.374.374 0 00-.36.377v.112a1.238 1.238 0 00-.298.096c-.28.128-.523.364-.583.707a.893.893 0 00.064.544c.078.165.2.28.324.365.217.148.504.235.724.3l.04.012c.263.08.44.138.55.219.047.034.064.06.07.077.007.015.018.049.005.124-.01.065-.047.121-.15.165-.114.048-.3.073-.54.035a4.162 4.162 0 01-.49-.146l-.12-.041a.375.375 0 00-.475.238.35.35 0 00.238.457c.022.025.05.034.082.045.132.051.381.13.56.17V9c0 .208.168.377.36.377A.38.38 0 006.376 9v-.103c.1-.019.197-.064.287-.086a.957.957 0 00.594-.726.952.952 0 00-.056-.553.923.923 0 00-.317-.383c-.227-.167-.53-.257-.758-.326l-.031-.004c-.25-.08-.43-.137-.544-.215-.049-.034-.064-.057-.068-.066-.003-.007-.015-.03-.003-.094.007-.037.035-.1.153-.152.105-.054.308-.084.537-.065.082.03.335.079.408.097a.373.373 0 00.458-.266.373.373 0 00-.266-.457 6.343 6.343 0 00-.394-.083V5.4z" fill="currentColor"/></svg><svg fill="none" viewBox="0 0 54 41" id="double-quotes" xmlns="http://www.w3.org/2000/svg"><path d="M29.992 10.432c0-3.151 1.032-5.65 3.097-7.498C35.154.978 37.762 0 40.913 0c3.803 0 6.9 1.25 9.291 3.749 2.5 2.5 3.749 6.085 3.749 10.758 0 4.999-1.467 9.943-4.401 14.833-2.825 4.781-6.846 8.585-12.062 11.41l-3.749-5.705c2.825-1.956 5.053-4.13 6.683-6.52 1.739-2.39 2.88-5.162 3.423-8.313-.978.435-2.119.652-3.423.652-3.043 0-5.542-.978-7.498-2.934-1.956-1.956-2.934-4.455-2.934-7.498zM0 10.432c0-3.151 1.032-5.65 3.097-7.498C5.162.978 7.77 0 10.921 0c3.803 0 6.9 1.25 9.291 3.749 2.5 2.5 3.749 6.085 3.749 10.758 0 4.999-1.467 9.943-4.401 14.833-2.825 4.781-6.846 8.585-12.062 11.41l-3.749-5.705c2.825-1.956 5.053-4.13 6.683-6.52 1.739-2.39 2.88-5.162 3.423-8.313-.978.435-2.119.652-3.423.652-3.043 0-5.542-.978-7.498-2.934C.978 15.974 0 13.475 0 10.432z" fill="currentColor"/></svg><svg fill="none" viewBox="0 0 13 12" id="drink" xmlns="http://www.w3.org/2000/svg"><path d="M7.683 3.6H2.301a.61.61 0 00-.446.197.606.606 0 00-.152.461l.6 5.984c.03.324.288.558.598.558h4.183a.6.6 0 00.597-.541l.6-5.983a.606.606 0 00-.152-.462.547.547 0 00-.446-.214zM6.907 6H3.094l-.119-1.2h4.05L6.907 6zM8.6 1.2A2.689 2.689 0 006.067 3h.984c.312-.534.886-.9 1.55-.9.976 0 1.8.806 1.8 1.8 0 .94-.725 1.704-1.643 1.784l-.092.91A2.694 2.694 0 0011.3 3.9a2.7 2.7 0 00-2.7-2.7z" fill="#667085"/></svg><svg fill="none" viewBox="0 0 20 20" id="edit" xmlns="http://www.w3.org/2000/svg"><path d="M14.177 2.59a2.019 2.019 0 012.853 0l.38.382a2.017 2.017 0 010 2.851l-6.94 6.937c-.264.268-.6.425-.97.539l-2.852.658a.506.506 0 01-.605-.605l.658-2.853c.085-.368.271-.705.539-.998l6.937-6.91zm2.138.713a1.005 1.005 0 00-1.424 0l-.843.842 1.807 1.807.84-.844a1.007 1.007 0 000-1.424l-.38-.381zm-8.631 7.423l-.479 2.069 2.04-.479a.845.845 0 00.514-.296l5.384-5.356-1.807-1.806-5.385 5.383a1 1 0 00-.267.485zm.866-6.833a.504.504 0 010 1.008H4.52c-.836 0-1.512.677-1.512 1.511v9.069c0 .834.676 1.511 1.511 1.511h9.069c.834 0 1.511-.677 1.511-1.511v-4.03c0-.278.227-.505.504-.505s.504.227.504.504v4.03a2.518 2.518 0 01-2.52 2.52H4.52A2.519 2.519 0 012 15.48V6.413a2.52 2.52 0 012.52-2.519h4.03z" fill="currentColor"/></svg><svg viewBox="0 0 576 512" id="edit-page" xmlns="http://www.w3.org/2000/svg"><path d="M0 64C0 28.65 28.65 0 64 0h160v128c0 17.7 14.3 32 32 32h128v139.6l-94.7 94.7c-8.2 8.2-14 18.5-16.8 29.8l-15.1 60.1c-2.3 9.4-1.7 19 1.4 27.8H64c-35.35 0-64-28.7-64-64V64zm256 64V0l128 128H256zm308.1 122.1c15.7 15.6 15.7 40.9 0 56.6l-29.4 29.4-70.9-71 29.4-29.4c15.6-15.6 40.9-15.6 56.6 0l14.3 14.4zm-252.2 166l129.2-128.3 71 70.9-129.2 129.2c-4.1 4.1-9.3 7-14.9 8.4l-60.1 15.1c-5.5 1.3-11.2-.3-15.2-4.2-4-4-5.6-9.8-4.2-16.1l15-59.3c1.4-5.6 4.3-10.7 8.4-15.7z" fill="currentColor"/></svg><svg fill="none" viewBox="0 0 13 16" id="electricity" xmlns="http://www.w3.org/2000/svg"><path d="M9.291.8c.573 0 .987.514.831 1.03L8.514 7.1h2.56c.578 0 1.046.439 1.046.982 0 .29-.135.562-.369.75L3.987 15.01a.9.9 0 01-.559.191c-.572 0-.986-.515-.829-1.03L4.206 8.9H1.612C1.053 8.9.6 8.475.6 7.952c0-.278.13-.543.354-.723L8.734.994A.894.894 0 019.29.8zM8.208 3.19L2.771 7.55h2.39c.224 0 .437.098.575.267.135.172.177.391.117.594L4.51 12.823l5.496-4.373H7.56a.744.744 0 01-.576-.267.655.655 0 01-.117-.594L8.208 3.19z" fill="currentColor"/></svg><svg fill="none" viewBox="0 0 13 12" id="event" xmlns="http://www.w3.org/2000/svg"><path d="M1.7 9.771A1.01 1.01 0 002.73 10.8h7.543A1.01 1.01 0 0011.3 9.771V4.63H1.7V9.77zm8.572-7.885h-.343v-.343c0-.206-.137-.343-.343-.343-.206 0-.343.137-.343.343v.343H7.872v-.343c0-.206-.138-.343-.343-.343-.206 0-.343.137-.343.343v.343H5.814v-.343c0-.206-.137-.343-.342-.343-.206 0-.343.137-.343.343v.343H3.757v-.343c0-.206-.137-.343-.343-.343-.205 0-.342.137-.342.343v.343h-.343A1.01 1.01 0 001.7 2.914v1.029h9.6V2.914a1.01 1.01 0 00-1.028-1.028zM8.557 3.257H4.443c-.206 0-.343-.137-.343-.343 0-.205.137-.343.343-.343h4.114c.206 0 .343.138.343.343 0 .206-.137.343-.343.343z" fill="#667085"/></svg><svg fill="none" viewBox="0 0 20 21" id="facebook" xmlns="http://www.w3.org/2000/svg"><path d="M18 10.563a8 8 0 10-9.25 7.902v-5.59H6.719v-2.313H8.75V8.8c0-2.005 1.194-3.113 3.022-3.113.875 0 1.79.157 1.79.157v1.968h-1.008c-.994 0-1.304.617-1.304 1.25v1.5h2.219l-.355 2.313H11.25v5.59A8.002 8.002 0 0018 10.563z" fill="currentColor"/></svg><svg fill="none" viewBox="0 0 24 24" stroke="currentColor" stroke-width="2" id="filter" xmlns="http://www.w3.org/2000/svg"><path stroke-linecap="round" stroke-linejoin="round" d="M12 6V4m0 2a2 2 0 100 4m0-4a2 2 0 110 4m-6 8a2 2 0 100-4m0 4a2 2 0 110-4m0 4v2m0-6V4m6 6v10m6-2a2 2 0 100-4m0 4a2 2 0 110-4m0 4v2m0-6V4"/></svg><svg viewBox="0 0 10 12" fill="none" id="fitness" xmlns="http://www.w3.org/2000/svg"><path d="M3.26 3.823h-.72c-.199 0-.36.139-.36.308V5.47c-.265 0-.48.183-.48.411 0 .227.215.411.467.411L2.18 7.63c0 .17.161.308.36.308h.72c.2 0 .36-.137.36-.308V4.13c0-.17-.16-.308-.36-.308zM8.54 3h-.72c-.198 0-.36.138-.36.309v2.16H5.54v-2.16c0-.17-.16-.309-.36-.309h-.72c-.198 0-.36.138-.36.309V8.45c0 .171.162.309.36.309h.72c.2 0 .36-.138.36-.309v-2.16h1.92v2.16c0 .17.161.309.36.309h.72c.199 0 .36-.138.36-.309V3.31c0-.17-.16-.309-.36-.309zm2.28 2.469V4.13c0-.17-.16-.308-.36-.308h-.72c-.198 0-.36.139-.36.308V7.63c0 .17.161.308.36.308h.72c.199 0 .36-.138.36-.308V6.29c.265 0 .48-.184.48-.411 0-.228-.214-.411-.48-.411z" fill="#667085"/></svg><svg fill="currentColor" viewBox="0 0 576 512" id="fork-knife-duotone" xmlns="http://www.w3.org/2000/svg"><path class="cefa-primary" d="M573.5 114.9l-75 117.7c-8.4 12.5-18.2 22.9-30.9 30.1-12.8 7.2-27.1 10.9-41.7 10.9-18.4-.1-36.3-5.7-51.5-16-1.3.4-.5 1-1 1.4L132.3 500.3c-7.5 7.5-17.7 11.7-28.3 11.7-10.61 0-20.78-4.2-28.29-11.7-7.5-7.5-12.61-17.7-12.61-28.3 0-10.6 5.11-20.8 12.61-28.3L316.8 202.6c.5-.5 1.1-1.5 1.6-1.1a91.554 91.554 0 01-15.6-60.7c1.5-13 5.9-25.4 13-36.4 7-11 16.4-20.24 27.6-27.02L461.1 2.528c3.3-2.104 7.3-2.91 11.2-2.263 3.9.646 7.4 2.699 9.9 5.767 2.4 3.068 3.7 6.938 3.5 10.868-.3 3.92-1.9 7.64-4.7 10.43L379.2 129.2l12.3 12.2 113.2-92.6c3.1-2.31 6.9-3.43 10.7-3.16 3.9.27 7.5 1.92 10.2 4.65 2.7 2.72 3.5 6.33 4.7 10.18.2 3.84-.9 7.65-3.2 10.73l-92.8 113.2 12.3 12.3L548.5 94.88c2.7-2.77 5.6-4.42 10.4-4.63 3.9-.21 7.8 1.04 10.8 3.5 3.1 2.46 5.2 5.97 5.8 9.85.7 3.9-.1 7.9-2.2 11.2l.2.1z"/><path class="cefa-secondary" d="M24.28 7.083a31.994 31.994 0 0129.45-5.669c5 1.533 9.55 4.266 13.25 7.963L265.9 208.3 152.8 321.4l-98.69-98.6c-26.1-26.1-43.79-59.5-50.769-95.7A184.785 184.785 0 0114.94 19.39c2.06-4.8 5.27-9.03 9.34-12.307zM512 472c0 10.6-4.2 20.8-11.7 28.3-7.5 7.5-17.7 11.7-28.3 11.7-10.6 0-20.8-4.2-28.3-11.7L310.6 367.2l56.6-56.6 133.1 133.1c7.5 7.5 11.7 17.7 11.7 28.3z" opacity=".4"/></svg><svg fill="none" viewBox="0 0 21 20" id="garage" xmlns="http://www.w3.org/2000/svg"><path d="M18.352 7.818c.292.148.4.49.242.762a.62.62 0 01-.812.227l-7.138-3.605-7.092 3.605a.62.62 0 01-.813-.227.545.545 0 01.243-.762l7.4-3.75a.634.634 0 01.57 0l7.4 3.75zm-10.685 4.62c0-.312.267-.563.6-.563.332 0 .6.25.6.563 0 .311-.268.562-.6.562-.333 0-.6-.25-.6-.563zm6 0c0 .311-.268.562-.6.562-.333 0-.6-.25-.6-.563 0-.311.267-.562.6-.562.332 0 .6.25.6.563zM7.217 8.87c.257-.672.935-1.12 1.695-1.12h3.51c.76 0 1.437.448 1.672 1.12l.738 1.878c.005.011.007.023.012.033.618.407 1.023 1.082 1.023 1.844v2.813c0 .311-.268.562-.6.562-.333 0-.6-.25-.6-.563V14.5h-8v.938c0 .311-.268.562-.6.562-.333 0-.6-.25-.6-.563v-2.812c0-.762.405-1.437 1.022-1.845.005-.009.008-.02.013-.032l.715-1.878zm1.695.005c-.253 0-.48.15-.565.373l-.428 1.127h5.495l-.427-1.127a.601.601 0 00-.565-.373h-3.51zm4.555 2.625h-5.6c-.663 0-1.2.504-1.2 1.125v.75h8v-.75c0-.621-.538-1.125-1.2-1.125z" fill="currentColor"/></svg><svg fill="none" viewBox="0 0 16 13" id="garage2" xmlns="http://www.w3.org/2000/svg"><path d="M8.068 1.699a.232.232 0 00-.156 0L2.217 4.027a.544.544 0 00-.337.502v7.048a.54.54 0 11-1.08 0V4.53c0-.662.4-1.26 1.011-1.508L7.507.693c.324-.124.662-.124.966 0l5.714 2.328A1.627 1.627 0 0115.2 4.53v7.048a.54.54 0 11-1.08 0V4.53a.543.543 0 00-.337-.502L8.068 1.7zM4.02 5.969v5.608c0 .301-.22.543-.54.543a.553.553 0 01-.54-.543V5.79c0-.5.423-.905.9-.905h8.3c.497 0 .9.405.9.905v5.788a.54.54 0 11-1.08 0V5.97H4.02zm1.555 2.762l.301-1.102a1.236 1.236 0 011.215-.936h1.807c.562 0 1.055.376 1.21.918l.326 1.144a1.5 1.5 0 01.626 1.194v1.628a.54.54 0 11-1.08 0v-.18H6v.18c0 .301-.22.543-.54.543a.553.553 0 01-.54-.543V9.95c0-.5.272-.938.655-1.218zm1.185-.229h2.478L9.07 7.91a.183.183 0 00-.173-.131H7.09a.178.178 0 00-.173.133l-.158.59zm2.86 1.086H6.36a.376.376 0 00-.36.361v.362h3.98V9.95a.362.362 0 00-.36-.361z" fill="currentColor"/></svg><svg fill="currentColor" viewBox="0 0 512 512" id="glass-duotone" xmlns="http://www.w3.org/2000/svg"><path class="chfa-primary" d="M368 0c-62.62 0-115.4 40.25-135.1 96h52.5c16.62-28.5 47.25-48 82.62-48 52.1 0 95.99 43 95.99 96 0 50.13-38.62 90.88-87.62 95.13l-4.875 48.5C449.4 285.8 512 222.4 512 144 512 64.5 447.5 0 368 0zM92.95 448h166.1l19.2-192H73.75l19.2 192z"/><path class="chfa-secondary" d="M343.7 138.5c-6.125-6.625-14.75-10.5-23.75-10.5H32.02c-8.998 0-17.62 3.875-23.75 10.5-6 6.75-8.998 15.62-8.123 24.62l31.99 319.1C33.77 499.5 47.52 512 64.02 512h223.1c16.5 0 30.25-12.5 31.87-28.87l32-319.1c1.71-9.93-1.29-18.73-7.29-25.53zM259 448H92.95L67.36 192h217.3L259 448z" opacity=".4"/></svg><svg viewBox="0 0 20 20" fill="currentColor" id="grid-view" xmlns="http://www.w3.org/2000/svg"><path d="M5 3a2 2 0 00-2 2v2a2 2 0 002 2h2a2 2 0 002-2V5a2 2 0 00-2-2H5zm0 8a2 2 0 00-2 2v2a2 2 0 002 2h2a2 2 0 002-2v-2a2 2 0 00-2-2H5zm6-6a2 2 0 012-2h2a2 2 0 012 2v2a2 2 0 01-2 2h-2a2 2 0 01-2-2V5zm0 8a2 2 0 012-2h2a2 2 0 012 2v2a2 2 0 01-2 2h-2a2 2 0 01-2-2v-2z"/></svg><svg fill="none" viewBox="0 0 40 24" id="gym" xmlns="http://www.w3.org/2000/svg"><path d="M38.24 10.634h-.96v-4.43c0-1.47-1.29-2.66-2.88-2.66h-1.92c-.337 0-.66.07-.96.16V2.658C31.52 1.19 30.23 0 28.64 0h-1.92c-1.59 0-2.88 1.19-2.88 2.658v7.976h-7.68V2.658C16.16 1.19 14.87 0 13.28 0h-1.92C9.77 0 8.48 1.19 8.48 2.658v1.046a3.08 3.08 0 00-.96-.16H5.6c-1.59 0-2.88 1.191-2.88 2.66v4.43h-.96c-.528 0-.96.399-.96.886s.432.886.96.886h.96v4.43c0 1.47 1.29 2.66 2.88 2.66h1.92c.338 0 .66-.07.96-.16v1.046c0 1.468 1.29 2.658 2.88 2.658h1.92c1.59 0 2.88-1.19 2.88-2.659v-7.975h7.68v7.975c0 1.469 1.29 2.659 2.88 2.659h1.92c1.59 0 2.88-1.19 2.88-2.659v-1.045c.3.099.624.16.96.16h1.92c1.59 0 2.88-1.19 2.88-2.66v-4.43h.96c.528 0 .96-.399.96-.886s-.432-.886-.96-.886zM8.48 16.837c0 .485-.435.886-.96.886H5.6c-.525 0-.96-.399-.96-.886V6.203c0-.485.435-.886.96-.886h1.92c.528 0 .96.404.96.886v10.634zm5.76 3.544c0 .485-.435.887-.96.887h-1.92c-.522 0-.96-.4-.96-.887V2.659c0-.484.435-.886.96-.886h1.92c.528 0 .96.402.96.886v17.723zm15.36 0c0 .485-.435.887-.96.887h-1.92c-.525 0-.96-.402-.96-.887V2.659c0-.484.435-.886.96-.886h1.92c.528 0 .96.402.96.886v17.723zm5.76-3.544c0 .485-.435.886-.96.886h-1.92c-.525 0-.96-.401-.96-.886V6.203c0-.485.435-.886.96-.886h1.92c.528 0 .96.404.96.886v10.634z" fill="currentColor"/></svg><svg viewBox="0 0 20 20" fill="currentColor" id="heart" xmlns="http://www.w3.org/2000/svg"><path fill-rule="evenodd" d="M3.172 5.172a4 4 0 015.656 0L10 6.343l1.172-1.171a4 4 0 115.656 5.656L10 17.657l-6.828-6.829a4 4 0 010-5.656z" clip-rule="evenodd"/></svg><svg fill="none" viewBox="0 0 24 24" stroke="currentColor" stroke-width="2" id="heart-outline" xmlns="http://www.w3.org/2000/svg"><path stroke-linecap="round" stroke-linejoin="round" d="M4.318 6.318a4.5 4.5 0 000 6.364L12 20.364l7.682-7.682a4.5 4.5 0 00-6.364-6.364L12 7.636l-1.318-1.318a4.5 4.5 0 00-6.364 0z"/></svg><svg fill="none" viewBox="0 0 24 24" stroke="currentColor" stroke-width="2" id="help" xmlns="http://www.w3.org/2000/svg"><path stroke-linecap="round" stroke-linejoin="round" d="M8.228 9c.549-1.165 2.03-2 3.772-2 2.21 0 4 1.343 4 3 0 1.4-1.278 2.575-3.006 2.907-.542.104-.994.54-.994 1.093m0 3h.01M21 12a9 9 0 11-18 0 9 9 0 0118 0z"/></svg><svg fill="currentColor" viewBox="0 0 640 512" id="house-building-duotone" xmlns="http://www.w3.org/2000/svg"><path class="cnfa-primary" d="M0 464V277.1c0-13.4 5.647-26.3 15.57-35.4l144.03-132c18.3-16.79 46.5-16.79 64.8 0l144 132c10 9.1 15.6 22 15.6 35.4V464c0 26.5-21.5 48-48 48H48c-26.51 0-48-21.5-48-48zm168-192c-13.3 0-24 10.7-24 24v48c0 13.3 10.7 24 24 24h48c13.3 0 24-10.7 24-24v-48c0-13.3-10.7-24-24-24h-48z"/><path class="cnfa-secondary" d="M320 48c0-26.51 21.5-48 48-48h224c26.5 0 48 21.49 48 48v416c0 26.5-21.5 48-48 48H400c10-13.4 16-30 16-48V352h16c8.8 0 16-7.2 16-16v-32c0-8.8-7.2-16-16-16h-16v-10.9c0-7.2-1-14.3-2.8-21.1H432c8.8 0 16-7.2 16-16v-32c0-8.8-7.2-16-16-16h-32c-8.8 0-16 7.2-16 16v4.6l-64-58.7V48zm208 144c-8.8 0-16 7.2-16 16v32c0 8.8 7.2 16 16 16h32c8.8 0 16-7.2 16-16v-32c0-8.8-7.2-16-16-16h-32zm-16 144c0 8.8 7.2 16 16 16h32c8.8 0 16-7.2 16-16v-32c0-8.8-7.2-16-16-16h-32c-8.8 0-16 7.2-16 16v32zM384 144c0 8.8 7.2 16 16 16h32c8.8 0 16-7.2 16-16v-32c0-8.8-7.2-16-16-16h-32c-8.8 0-16 7.2-16 16v32zm144-48c-8.8 0-16 7.2-16 16v32c0 8.8 7.2 16 16 16h32c8.8 0 16-7.2 16-16v-32c0-8.8-7.2-16-16-16h-32z" opacity=".4"/></svg><svg fill="none" viewBox="0 0 20 20" id="invoice" xmlns="http://www.w3.org/2000/svg"><path d="M15.416 5.916l-3.329-3.329A2.002 2.002 0 0010.672 2H6a2 2 0 00-2 2v12a2 2 0 002 2h8a2 2 0 002-2V7.328c0-.531-.21-1.037-.584-1.412zM11 3.065c.14.049.27.12.379.228l3.328 3.328c.109.107.18.238.227.379H11.5a.501.501 0 01-.5-.5V3.065zM15 16c0 .551-.449 1-1 1H6c-.551 0-1-.449-1-1V4c0-.551.449-1 1-1h4v3.5A1.5 1.5 0 0011.5 8H15v8zm-8-5.5c0 .275.225.5.5.5h5c.275 0 .5-.225.5-.5s-.225-.5-.5-.5h-5c-.275 0-.5.225-.5.5zm5.5 1.5h-5c-.275 0-.5.225-.5.5s.225.5.5.5h5a.5.5 0 100-1zm0 2h-5c-.275 0-.5.225-.5.5s.225.5.5.5h5a.5.5 0 100-1z" fill="currentColor"/></svg><svg fill="none" viewBox="0 0 16 16" id="kitchen" xmlns="http://www.w3.org/2000/svg"><path d="M14.525 8.875L12.05 8.9V8h1.575c.373 0 .675-.302.675-.65a.692.692 0 00-.675-.675L11.6 6.65a.9.9 0 00-.9.9v1.325H8.675V3.25c0-.66.57-1.188 1.242-1.12.586.06 1.008.597 1.008 1.186v.409c0 .373.302.65.65.65.347 0 .675-.303.675-.65v-.45A2.477 2.477 0 009.528.812C8.242.937 7.3 2.092 7.3 3.385l.025 5.49L5.3 8.9V7.55a.9.9 0 00-.9-.9l-2.05-.025c-.348 0-.65.326-.65.675 0 .348.302.675.65.675L3.95 8v.9l-2.5-.025c-.348 0-.65.326-.65.675 0 .348.302.675.65.675l.25.025v2.25a2.7 2.7 0 002.7 2.7h7.2a2.7 2.7 0 002.7-2.7v-2.25h.225c.373 0 .675-.302.675-.65 0-.347-.3-.725-.675-.725zm-1.575 3.6c0 .744-.605 1.35-1.35 1.35H4.4c-.744 0-1.35-.606-1.35-1.35v-2.25h9.9v2.25z" fill="currentColor"/></svg><svg fill="none" viewBox="0 0 18 18" id="laundry" xmlns="http://www.w3.org/2000/svg"><path d="M12.754 1.8H4.886C3.679 1.8 2.7 2.807 2.7 4.05V14.4c0 .994.783 1.8 1.749 1.8h8.742c.966 0 1.749-.806 1.749-1.8V4.05c0-1.243-.978-2.25-2.186-2.25zm.875 12.6c0 .248-.197.45-.438.45H4.45a.444.444 0 01-.438-.45V4.05c0-.496.393-.9.875-.9h7.868c.482 0 .875.404.875.9V14.4zm-7.43-9.675a.667.667 0 00-.655-.675.665.665 0 00-.657.675c0 .373.292.675.654.675.361 0 .659-.3.659-.675zm1.53.675c.361 0 .654-.302.654-.675a.666.666 0 00-.653-.675.665.665 0 00-.656.675c0 .373.29.675.656.675zm1.091.9c-2.055 0-3.716 1.713-3.716 3.825S6.765 13.95 8.82 13.95c2.054 0 3.716-1.712 3.716-3.825 0-2.113-1.662-3.825-3.716-3.825zm0 6.3c-1.097 0-2.015-.764-2.302-1.8h.99a.666.666 0 00.656-.675.665.665 0 00-.655-.675h-.992c.29-1.035 1.205-1.8 2.303-1.8 1.326 0 2.405 1.11 2.405 2.475S10.145 12.6 8.82 12.6z" fill="currentColor"/></svg><svg fill="none" viewBox="0 0 20 21" id="linkedin" xmlns="http://www.w3.org/2000/svg"><path d="M16.816 2.563H3.18C2.528 2.563 2 3.078 2 3.716v13.69a1.17 1.17 0 001.181 1.157h13.635c.653 0 1.184-.52 1.184-1.154V3.716c0-.638-.531-1.154-1.184-1.154zM6.746 16.197H4.373V8.559h2.375v7.638zM5.56 7.519a1.376 1.376 0 11-.004-2.752 1.376 1.376 0 01.004 2.752zm10.075 8.678h-2.372v-3.713c0-.884-.015-2.025-1.234-2.025-1.234 0-1.422.966-1.422 1.963v3.775H8.238V8.559h2.274v1.044h.032c.315-.6 1.09-1.234 2.243-1.234 2.404 0 2.847 1.581 2.847 3.637v4.19z" fill="currentColor"/></svg><svg fill="none" viewBox="0 0 24 24" stroke="currentColor" stroke-width="2" id="list-doc" xmlns="http://www.w3.org/2000/svg"><path stroke-linecap="round" stroke-linejoin="round" d="M9 5H7a2 2 0 00-2 2v12a2 2 0 002 2h10a2 2 0 002-2V7a2 2 0 00-2-2h-2M9 5a2 2 0 002 2h2a2 2 0 002-2M9 5a2 2 0 012-2h2a2 2 0 012 2m-3 7h3m-3 4h3m-6-4h.01M9 16h.01"/></svg><svg fill="none" viewBox="0 0 24 24" stroke="currentColor" stroke-width="2" id="list-view" xmlns="http://www.w3.org/2000/svg"><path stroke-linecap="round" stroke-linejoin="round" d="M4 6h16M4 12h16M4 18h16"/></svg><svg viewBox="0 0 512 512" id="listing" xmlns="http://www.w3.org/2000/svg"><path d="M152.1 38.16c9.8 8.87 10.6 24.04 1.7 33.9L81.84 152.1c-4.41 4.8-10.63 7.7-17.21 7-6.58 1.1-12.94-1.5-17.6-7l-40.001-40c-9.372-8.5-9.372-23.7 0-33.07 9.371-9.37 24.571-9.37 33.941 0l22.11 22.07 55.12-61.16c8.8-9.85 24-10.65 33.9-1.78zm0 160.04c9.8 8.8 10.6 24 1.7 33.9l-71.96 80c-4.41 4.8-10.63 7.7-17.21 7-6.58 1.1-12.94-1.5-17.6-7l-40.001-40c-9.372-8.5-9.372-23.7 0-33.1 9.371-9.3 24.571-9.3 33.941 0l22.11 22.1 55.12-61.2c8.8-9.8 24-10.6 33.9-1.7zM224 96c0-17.67 14.3-32 32-32h224c17.7 0 32 14.33 32 32 0 17.7-14.3 32-32 32H256c-17.7 0-32-14.3-32-32zm0 160c0-17.7 14.3-32 32-32h224c17.7 0 32 14.3 32 32s-14.3 32-32 32H256c-17.7 0-32-14.3-32-32zm-64 160c0-17.7 14.3-32 32-32h288c17.7 0 32 14.3 32 32s-14.3 32-32 32H192c-17.7 0-32-14.3-32-32zM0 416c0-26.5 21.49-48 48-48s48 21.5 48 48-21.49 48-48 48-48-21.5-48-48z" fill="currentColor"/></svg><svg fill="none" viewBox="0 0 20 20" id="listing-grid" xmlns="http://www.w3.org/2000/svg"><path d="M9.266 2.161a1.75 1.75 0 011.469 0l6.831 3.158a.738.738 0 01.435.653.765.765 0 01-.435.71l-6.831 3.156a1.748 1.748 0 01-1.469 0L2.436 6.68A.766.766 0 012 5.972a.74.74 0 01.435-.653L9.266 2.16zm8.3 11.158a.738.738 0 01.435.653.765.765 0 01-.435.71l-6.831 3.156a1.749 1.749 0 01-1.469 0l-6.83-3.156a.766.766 0 01-.436-.71.74.74 0 01.435-.653l1.663-.769 4.75 2.194a2.73 2.73 0 002.306 0l4.75-2.194 1.662.77z" fill="currentColor"/><path d="M11.154 10.744l4.75-2.194 1.662.77a.738.738 0 01.435.652.765.765 0 01-.435.71l-6.831 3.156a1.749 1.749 0 01-1.469 0l-6.83-3.156A.766.766 0 012 9.972a.74.74 0 01.435-.653l1.663-.769 4.75 2.194a2.73 2.73 0 002.306 0z" fill="#D0D5DD"/></svg><svg viewBox="0 0 384 512" id="listing2" xmlns="http://www.w3.org/2000/svg"><path d="M336 64h-53.88C268.9 26.8 233.7 0 192 0s-76.9 26.8-90.1 64H48C21.5 64 0 85.48 0 112v352c0 26.5 21.5 48 48 48h288c26.5 0 48-21.48 48-48V112c0-26.52-21.5-48-48-48zm-144 0c17.67 0 32 14.33 32 32s-14.33 32-32 32-32-14.3-32-32c0-17.67 14.3-32 32-32zM96 392c-13.25 0-24-10.75-24-24s10.75-24 24-24 24 10.75 24 24-10.7 24-24 24zm16-104c-4.1 0-8.2-1.6-11.3-4.7l-32-32c-6.25-6.25-6.25-16.38 0-22.62s16.38-6.25 22.62 0L112 249.4l52.69-52.69c6.25-6.25 16.38-6.25 22.62 0s6.25 16.38 0 22.62l-64 64A16.12 16.12 0 01112 288zm192 96H176c-8.8 0-16-7.2-16-16s7.2-16 16-16h128c8.801 0 16 7.199 16 16 0 8.8-7.2 16-16 16zm0-96h-96c-8.8 0-16-7.2-16-16s7.2-16 16-16h96c8.8 0 16 7.2 16 16s-7.2 16-16 16z" fill="currentColor"/></svg><svg viewBox="0 0 20 20" fill="currentColor" id="location" xmlns="http://www.w3.org/2000/svg"><path fill-rule="evenodd" d="M5.05 4.05a7 7 0 119.9 9.9L10 18.9l-4.95-4.95a7 7 0 010-9.9zM10 11a2 2 0 100-4 2 2 0 000 4z" clip-rule="evenodd"/></svg><svg fill="none" viewBox="0 0 24 24" stroke="currentColor" stroke-width="2" id="location-outline" xmlns="http://www.w3.org/2000/svg"><path stroke-linecap="round" stroke-linejoin="round" d="M17.657 16.657L13.414 20.9a1.998 1.998 0 01-2.827 0l-4.244-4.243a8 8 0 1111.314 0z"/><path stroke-linecap="round" stroke-linejoin="round" d="M15 11a3 3 0 11-6 0 3 3 0 016 0z"/></svg><svg fill="none" viewBox="0 0 20 20" id="logout" xmlns="http://www.w3.org/2000/svg"><path d="M18.755 10.64l-4.914 5.114a.764.764 0 01-.887.173c-.3-.143-.494-.47-.494-.83l-.004-2.673H8.092c-.603 0-1.092-.54-1.092-1.204V8.814c0-.665.489-1.204 1.092-1.204h4.364l.004-2.707c0-.36.194-.687.494-.83a.764.764 0 01.887.173l4.914 5.114c.327.306.327.937 0 1.28z" fill="currentColor"/><path d="M4.5 18h2.333C7.48 18 8 17.49 8 16.857c0-.632-.521-1.143-1.167-1.143H4.5a1.155 1.155 0 01-1.167-1.143V5.43c0-.631.523-1.143 1.167-1.143h2.333C7.48 4.286 8 3.774 8 3.143S7.479 2 6.833 2H4.5C2.567 2 1 3.535 1 5.429v9.142C1 16.464 2.567 18 4.5 18z" fill="#D0D5DD"/></svg><svg fill="none" viewBox="0 0 24 24" stroke="currentColor" stroke-width="2" id="logout-regular" xmlns="http://www.w3.org/2000/svg"><path stroke-linecap="round" stroke-linejoin="round" d="M17 16l4-4m0 0l-4-4m4 4H7m6 4v1a3 3 0 01-3 3H6a3 3 0 01-3-3V7a3 3 0 013-3h4a3 3 0 013 3v1"/></svg><svg fill="none" viewBox="0 0 16 16" id="map" xmlns="http://www.w3.org/2000/svg"><path d="M10.667 4.989c0 1.178-1.625 3.277-2.338 4.123a.403.403 0 01-.658 0c-.713-.846-2.338-2.945-2.338-4.123C5.333 3.559 6.527 2.4 8 2.4c1.473 0 2.667 1.16 2.667 2.589zM8 5.679a.876.876 0 00.889-.863A.876.876 0 008 3.953a.876.876 0 00-.889.863c0 .477.398.863.89.863zm3.058.6l.033-.08 2.578-1c.351-.137.731.114.731.48v5.843a.52.52 0 01-.335.48l-3.22 1.25V6.724a6.76 6.76 0 00.213-.445zm-6.116 0c.065.149.136.296.214.445v5.423L2.33 13.245c-.35.117-.73-.114-.73-.48V6.921c0-.211.132-.42.334-.481l2.723-1.057c.053.306.162.61.284.895zm3.943 3.264c.308-.356.793-.966 1.248-1.641v5.378l-4.266-1.184V7.902c.455.675.94 1.285 1.249 1.641a1.126 1.126 0 001.769 0z" fill="currentColor"/></svg><svg fill="none" viewBox="0 0 16 13" id="media" xmlns="http://www.w3.org/2000/svg"><path d="M12.32 10.68H3.66a.71.71 0 00-.7.7c0 .378.322.74.7.74h8.64a.72.72 0 10.02-1.44zM14.12.6H1.88A1.08 1.08 0 00.8 1.68v7.2c0 .596.484 1.08 1.08 1.08h12.24a1.08 1.08 0 001.08-1.08v-7.2A1.08 1.08 0 0014.12.6zm-.36 7.92H2.24V2.04h11.52v6.48z" fill="currentColor"/></svg><svg fill="none" viewBox="0 0 20 20" id="message" xmlns="http://www.w3.org/2000/svg"><path d="M10.9 12.404c0-2.365 1.814-4.284 4.05-4.284 2.236 0 4.05 1.919 4.05 4.284 0 2.365-1.814 4.284-4.05 4.284-2.236 0-4.05-1.92-4.05-4.284zm5.943-.616a.492.492 0 000-.672.43.43 0 00-.636 0L14.5 12.922l-.807-.854a.43.43 0 00-.636 0 .492.492 0 000 .672l1.125 1.19a.43.43 0 00.636 0l2.025-2.142z" fill="currentColor"/><path d="M1 5.74c0-.788.604-1.428 1.35-1.428h11.7c.745 0 1.35.64 1.35 1.428 0 .45-.2.872-.54 1.143l-.39.31c-1.874.19-3.443 1.486-4.116 3.265l-1.614 1.28a.864.864 0 01-1.08 0L1.54 6.883C1.2 6.612 1 6.19 1 5.74zm9 6.664c0 1.264.425 2.427 1.13 3.332H2.8c-.994 0-1.8-.854-1.8-1.904V7.644L7.12 12.5a1.72 1.72 0 002.16 0l.743-.589a5.731 5.731 0 00-.023.494z" fill="#D0D5DD"/></svg><svg fill="none" viewBox="0 0 24 24" stroke="currentColor" stroke-width="2" id="message-outline" xmlns="http://www.w3.org/2000/svg"><path stroke-linecap="round" stroke-linejoin="round" d="M3 8l7.89 5.26a2 2 0 002.22 0L21 8M5 19h14a2 2 0 002-2V7a2 2 0 00-2-2H5a2 2 0 00-2 2v10a2 2 0 002 2z"/></svg><svg fill="none" viewBox="0 0 24 24" stroke="currentColor" stroke-width="2" id="more-dots" xmlns="http://www.w3.org/2000/svg"><path stroke-linecap="round" stroke-linejoin="round" d="M12 5v.01M12 12v.01M12 19v.01M12 6a1 1 0 110-2 1 1 0 010 2zm0 7a1 1 0 110-2 1 1 0 010 2zm0 7a1 1 0 110-2 1 1 0 010 2z"/></svg><svg fill="none" viewBox="0 0 36 36" id="optimize" xmlns="http://www.w3.org/2000/svg"><g clip-path="url(#dgclip0_2076_33004)"><path d="M34.875 21.375c.619 0 1.125-.506 1.125-1.125s-.503-1.125-1.125-1.125c-8.684 0-15.75 7.066-15.75 15.75a1.124 1.124 0 102.25 0c0-7.446 6.054-13.5 13.5-13.5zM33.75 31.5a2.25 2.25 0 100 4.5 2.25 2.25 0 000-4.5zm1.125-6.75c-5.584 0-10.125 4.541-10.125 10.125a1.124 1.124 0 102.25 0C27 30.533 30.533 27 34.875 27a1.124 1.124 0 100-2.25z" fill="#2E90FA"/><path d="M20.25 21.375V4.5A2.249 2.249 0 0018 2.25H4.5A2.25 2.25 0 002.25 4.5v27a2.25 2.25 0 002.25 2.25h10.125c.619 0 1.125.506 1.125 1.125S15.244 36 14.625 36H4.5A4.5 4.5 0 010 31.5v-27A4.5 4.5 0 014.5 0H18a4.5 4.5 0 014.5 4.5v16.875a1.125 1.125 0 01-2.25 0z" fill="#98A2B3"/><path d="M7.875 29.25c0-.621.504-1.125 1.125-1.125h4.5a1.125 1.125 0 110 2.25H9a1.125 1.125 0 01-1.125-1.125z" fill="#98A2B3"/></g><defs><clipPath id="dgclip0_2076_33004"><path fill="#fff" d="M0 0h36v36H0z"/></clipPath></defs></svg><svg viewBox="0 0 448 512" id="package" xmlns="http://www.w3.org/2000/svg"><path d="M50.73 58.53A48 48 0 0193.67 32H208v128H0L50.73 58.53zM240 160V32h114.3c18.2 0 34.8 10.27 43 26.53L448 160H240zm208 256c0 35.3-28.7 64-64 64H64c-35.35 0-64-28.7-64-64V192h448v224z" fill="currentColor"/></svg><svg fill="none" viewBox="0 0 24 24" stroke="currentColor" stroke-width="2" id="plus" xmlns="http://www.w3.org/2000/svg"><path stroke-linecap="round" stroke-linejoin="round" d="M12 4v16m8-8H4"/></svg><svg fill="none" viewBox="0 0 20 20" id="profile" xmlns="http://www.w3.org/2000/svg"><path d="M11.83 11.6H8.57C5.495 11.6 3 13.988 3 16.933 3 17.523 3.499 18 4.114 18h12.173c.615 0 1.113-.476 1.113-1.067 0-2.945-2.494-5.333-5.57-5.333z" fill="currentColor"/><path d="M14.2 6a4 4 0 11-8 0 4 4 0 018 0z" fill="#D0D5DD"/></svg><svg viewBox="0 0 512 512" id="purchase" xmlns="http://www.w3.org/2000/svg"><path d="M512 448c0 35.3-28.7 64-64 64H64c-35.35 0-64-28.7-64-64V224c0-35.3 28.65-64 64-64h384c35.3 0 64 28.7 64 64v224zM440 80c13.3 0 24 10.75 24 24 0 13.3-10.7 24-24 24H72c-13.25 0-24-10.7-24-24 0-13.25 10.75-24 24-24h368zM392 0c13.3 0 24 10.75 24 24s-10.7 24-24 24H120c-13.3 0-24-10.75-24-24s10.7-24 24-24h272z" fill="currentColor"/></svg><svg viewBox="0 0 20 20" fill="currentColor" id="rating-star" xmlns="http://www.w3.org/2000/svg"><path d="M9.049 2.927c.3-.921 1.603-.921 1.902 0l1.07 3.292a1 1 0 00.95.69h3.462c.969 0 1.371 1.24.588 1.81l-2.8 2.034a1 1 0 00-.364 1.118l1.07 3.292c.3.921-.755 1.688-1.54 1.118l-2.8-2.034a1 1 0 00-1.175 0l-2.8 2.034c-.784.57-1.838-.197-1.539-1.118l1.07-3.292a1 1 0 00-.364-1.118L2.98 8.72c-.783-.57-.38-1.81.588-1.81h3.461a1 1 0 00.951-.69l1.07-3.292z"/></svg><svg fill="none" viewBox="0 0 34 34" id="rent-house" xmlns="http://www.w3.org/2000/svg"><mask id="dma" maskUnits="userSpaceOnUse" x="0" y="0" width="34" height="34" fill="#000"><path fill="#fff" d="M0 0h34v34H0z"/><path d="M31.502 14.999a1.5 1.5 0 001.5-1.5v-1a1.5 1.5 0 00-1.5-1.5h-.835L17.3 1.099a.5.5 0 00-.595 0l-13.37 9.9H2.5a1.5 1.5 0 00-1.5 1.5v1a1.5 1.5 0 001.5 1.5H3v12.5a.5.5 0 001 0V15h20.501a.5.5 0 100-1h-22a.5.5 0 01-.5-.5v-1a.5.5 0 01.5-.5h29a.5.5 0 01.5.5v1a.5.5 0 01-.5.5h-5a.5.5 0 000 1h3.5v3h-4v-.5a1.5 1.5 0 00-3 0v.5h-5.5a1.5 1.5 0 00-1.408 1H14.5a1.5 1.5 0 00-1.5 1.5V32H9.723A1.98 1.98 0 0010 31a2 2 0 00-2.463-1.942 2.49 2.49 0 00-4.073 0A2 2 0 103 33h27.502a.5.5 0 00.5-.5V25h.5a1.5 1.5 0 001.5-1.5v-4a1.5 1.5 0 00-1.5-1.5h-.5v-3.001h.5zm-26.487-4L17.001 2.12l11.986 8.878H5.015zm18.986 6.5a.5.5 0 011 0v.5h-1v-.5zm-21 14.5a1 1 0 110-2 .984.984 0 01.454.117.498.498 0 00.684-.236 1.493 1.493 0 012.723 0 .5.5 0 00.684.236A.999.999 0 118 32H3zm11 0V20.5a.5.5 0 01.5-.5H16v3.5a1.5 1.5 0 001.5 1.5h5.5v7h-2v-5.5a.5.5 0 00-1 0V32h-6zm10 0v-7h1v7h-1zm6 0h-4v-7h4v7zm2-12.5v4a.5.5 0 01-.5.5h-14a.5.5 0 01-.5-.5v-4a.5.5 0 01.5-.5h14a.5.5 0 01.5.5z"/></mask><path d="M31.502 14.999a1.5 1.5 0 001.5-1.5v-1a1.5 1.5 0 00-1.5-1.5h-.835L17.3 1.099a.5.5 0 00-.595 0l-13.37 9.9H2.5a1.5 1.5 0 00-1.5 1.5v1a1.5 1.5 0 001.5 1.5H3v12.5a.5.5 0 001 0V15h20.501a.5.5 0 100-1h-22a.5.5 0 01-.5-.5v-1a.5.5 0 01.5-.5h29a.5.5 0 01.5.5v1a.5.5 0 01-.5.5h-5a.5.5 0 000 1h3.5v3h-4v-.5a1.5 1.5 0 00-3 0v.5h-5.5a1.5 1.5 0 00-1.408 1H14.5a1.5 1.5 0 00-1.5 1.5V32H9.723A1.98 1.98 0 0010 31a2 2 0 00-2.463-1.942 2.49 2.49 0 00-4.073 0A2 2 0 103 33h27.502a.5.5 0 00.5-.5V25h.5a1.5 1.5 0 001.5-1.5v-4a1.5 1.5 0 00-1.5-1.5h-.5v-3.001h.5zm-26.487-4L17.001 2.12l11.986 8.878H5.015zm18.986 6.5a.5.5 0 011 0v.5h-1v-.5zm-21 14.5a1 1 0 110-2 .984.984 0 01.454.117.498.498 0 00.684-.236 1.493 1.493 0 012.723 0 .5.5 0 00.684.236A.999.999 0 118 32H3zm11 0V20.5a.5.5 0 01.5-.5H16v3.5a1.5 1.5 0 001.5 1.5h5.5v7h-2v-5.5a.5.5 0 00-1 0V32h-6zm10 0v-7h1v7h-1zm6 0h-4v-7h4v7zm2-12.5v4a.5.5 0 01-.5.5h-14a.5.5 0 01-.5-.5v-4a.5.5 0 01.5-.5h14a.5.5 0 01.5.5z" fill="currentColor"/><path d="M31.502 14.999a1.5 1.5 0 001.5-1.5v-1a1.5 1.5 0 00-1.5-1.5h-.835L17.3 1.099a.5.5 0 00-.595 0l-13.37 9.9H2.5a1.5 1.5 0 00-1.5 1.5v1a1.5 1.5 0 001.5 1.5H3v12.5a.5.5 0 001 0V15h20.501a.5.5 0 100-1h-22a.5.5 0 01-.5-.5v-1a.5.5 0 01.5-.5h29a.5.5 0 01.5.5v1a.5.5 0 01-.5.5h-5a.5.5 0 000 1h3.5v3h-4v-.5a1.5 1.5 0 00-3 0v.5h-5.5a1.5 1.5 0 00-1.408 1H14.5a1.5 1.5 0 00-1.5 1.5V32H9.723A1.98 1.98 0 0010 31a2 2 0 00-2.463-1.942 2.49 2.49 0 00-4.073 0A2 2 0 103 33h27.502a.5.5 0 00.5-.5V25h.5a1.5 1.5 0 001.5-1.5v-4a1.5 1.5 0 00-1.5-1.5h-.5v-3.001h.5zm-26.487-4L17.001 2.12l11.986 8.878H5.015zm18.986 6.5a.5.5 0 011 0v.5h-1v-.5zm-21 14.5a1 1 0 110-2 .984.984 0 01.454.117.498.498 0 00.684-.236 1.493 1.493 0 012.723 0 .5.5 0 00.684.236A.999.999 0 118 32H3zm11 0V20.5a.5.5 0 01.5-.5H16v3.5a1.5 1.5 0 001.5 1.5h5.5v7h-2v-5.5a.5.5 0 00-1 0V32h-6zm10 0v-7h1v7h-1zm6 0h-4v-7h4v7zm2-12.5v4a.5.5 0 01-.5.5h-14a.5.5 0 01-.5-.5v-4a.5.5 0 01.5-.5h14a.5.5 0 01.5.5z" stroke="#2E90FA" stroke-width=".2" mask="url(#dma)"/><mask id="dmb" maskUnits="userSpaceOnUse" x="4" y="17.999" width="28" height="9" fill="#000"><path fill="#fff" d="M4 17.999h28v9H4z"/><path d="M19.501 19.5h-1a.5.5 0 00-.5.5v3a.5.5 0 001 0v-.5h.5c.06-.003.121-.01.182-.019l.37.742a.5.5 0 00.896-.447l-.37-.738a1.497 1.497 0 00-1.078-2.539zm-.5 2v-1h.5a.5.5 0 110 1h-.5zm4.5-1a.5.5 0 000-1h-1.5a.5.5 0 00-.5.5v3a.5.5 0 00.5.5h1.5a.5.5 0 000-1h-1V22h.5a.5.5 0 100-1h-.5v-.5h1zm3.5-1a.5.5 0 00-.5.5v1.35l-1.084-1.627a.5.5 0 00-.916.276v3a.5.5 0 001 0v-1.35l1.084 1.627a.5.5 0 00.917-.276v-3a.5.5 0 00-.5-.5zm1.5 0a.5.5 0 000 1h.5V23a.5.5 0 001 0v-2.5h.5a.5.5 0 000-1h-2zm-20 6.5h3a.5.5 0 00.5-.5v-6a.5.5 0 00-.5-.5h-6a.5.5 0 00-.5.5v6a.5.5 0 00.5.5h3zM6 23h2v2H6v-2zm5 2H9v-2h2v2zm0-3H9v-2h2v2zm-5-2h2v2H6v-2z"/></mask><path d="M19.501 19.5h-1a.5.5 0 00-.5.5v3a.5.5 0 001 0v-.5h.5c.06-.003.121-.01.182-.019l.37.742a.5.5 0 00.896-.447l-.37-.738a1.497 1.497 0 00-1.078-2.539zm-.5 2v-1h.5a.5.5 0 110 1h-.5zm4.5-1a.5.5 0 000-1h-1.5a.5.5 0 00-.5.5v3a.5.5 0 00.5.5h1.5a.5.5 0 000-1h-1V22h.5a.5.5 0 100-1h-.5v-.5h1zm3.5-1a.5.5 0 00-.5.5v1.35l-1.084-1.627a.5.5 0 00-.916.276v3a.5.5 0 001 0v-1.35l1.084 1.627a.5.5 0 00.917-.276v-3a.5.5 0 00-.5-.5zm1.5 0a.5.5 0 000 1h.5V23a.5.5 0 001 0v-2.5h.5a.5.5 0 000-1h-2zm-20 6.5h3a.5.5 0 00.5-.5v-6a.5.5 0 00-.5-.5h-6a.5.5 0 00-.5.5v6a.5.5 0 00.5.5h3zM6 23h2v2H6v-2zm5 2H9v-2h2v2zm0-3H9v-2h2v2zm-5-2h2v2H6v-2z" fill="currentColor"/><path d="M19.501 19.5h-1a.5.5 0 00-.5.5v3a.5.5 0 001 0v-.5h.5c.06-.003.121-.01.182-.019l.37.742a.5.5 0 00.896-.447l-.37-.738a1.497 1.497 0 00-1.078-2.539v0zm-.5 2v-1h.5a.5.5 0 110 1h-.5zm4.5-1a.5.5 0 000-1h-1.5a.5.5 0 00-.5.5v3a.5.5 0 00.5.5h1.5a.5.5 0 000-1h-1V22h.5a.5.5 0 100-1h-.5v-.5h1zm3.5-1a.5.5 0 00-.5.5v1.35l-1.084-1.627a.5.5 0 00-.916.276v3a.5.5 0 001 0v-1.35l1.084 1.627a.5.5 0 00.917-.276v-3a.5.5 0 00-.5-.5zm1.5 0a.5.5 0 000 1h.5V23a.5.5 0 001 0v-2.5h.5a.5.5 0 000-1h-2zm-20 6.5h3a.5.5 0 00.5-.5v-6a.5.5 0 00-.5-.5h-6a.5.5 0 00-.5.5v6a.5.5 0 00.5.5h3zM6 23h2v2H6v-2zm5 2H9v-2h2v2zm0-3H9v-2h2v2zm-5-2h2v2H6v-2z" stroke="#2E90FA" stroke-width=".2" mask="url(#dmb)"/><path d="M19.001 27.05a.55.55 0 100-1.1.55.55 0 000 1.1z"/></svg><svg fill="none" viewBox="0 0 13 14" id="reset" xmlns="http://www.w3.org/2000/svg"><path d="M12.903 1.262v4.415a.66.66 0 01-.662.662H7.826a.662.662 0 010-1.324h2.773c-.82-1.592-2.483-2.65-4.318-2.65a4.832 4.832 0 00-4.856 4.857 4.847 4.847 0 004.856 4.856 4.86 4.86 0 003.107-1.124.661.661 0 11.848 1.018A6.183 6.183 0 01.1 7.222a6.184 6.184 0 016.178-6.178c2.203 0 4.205 1.2 5.3 3.01V1.263a.662.662 0 011.325 0z" fill="currentColor"/></svg><svg fill="none" viewBox="0 0 20 20" id="review" xmlns="http://www.w3.org/2000/svg"><path d="M9.99 15.743l-3.881 2.14a.95.95 0 01-1.024-.071 1.01 1.01 0 01-.387-.978l.745-4.581L2.287 9.06a1.027 1.027 0 01-.239-1.025.972.972 0 01.78-.675l4.347-.663 1.95-4.134c.16-.343.496-.561.838-.563l.027 13.743zM14.387 18a.521.521 0 01-.1 0h.1z" fill="currentColor"/><path d="M5.7 18a.49.49 0 01-.097 0H5.7zm4.29-2.257V2h.003c.373 0 .712.219.872.563l1.947 4.134 4.351.663c.36.053.663.315.778.675.115.362.021.756-.239 1.025l-3.155 3.193.745 4.58c.06.376-.09.757-.39.979a.946.946 0 01-1.021.072l-3.888-2.14H9.99z" fill="#D0D5DD"/></svg><svg fill="currentColor" viewBox="0 0 32 33" id="review-star" xmlns="http://www.w3.org/2000/svg"><mask id="dpa" maskUnits="userSpaceOnUse" x="2.2" y="7.5" width="27" height="17" fill="#000"><path fill="#fff" d="M2.2 7.5h27v17h-27z"/><path d="M28.763 12.66a.73.73 0 00-.593-.5l-1.78-.258a.381.381 0 00-.035-.007l-1.265-.184-1.383-2.802a.745.745 0 00-1.33 0l-1.382 2.802-1.265.184a.357.357 0 00-.035.007l-1.466.213-1.5-3.038a.872.872 0 00-1.562 0l-1.493 3.024-1.37-.2a.381.381 0 00-.035-.006l-1.265-.184L9.621 8.91a.745.745 0 00-1.33 0L6.91 11.711l-1.265.184a.355.355 0 00-.035.007l-1.78.258a.735.735 0 00-.407 1.253l2.237 2.181-.528 3.08a.733.733 0 001.066.774l2.76-1.45 2.403 1.263-.556 3.245a.872.872 0 001.264.918l3.822-2.01a.124.124 0 01.116 0l3.822 2.01a.872.872 0 001.265-.918l-.548-3.195 2.498-1.313 2.76 1.45a.734.734 0 001.065-.774l-.528-3.08 2.238-2.18a.73.73 0 00.185-.754zm-17.23 5.59l-.04.237-2.2-1.157a.737.737 0 00-.343-.084.738.738 0 00-.33.084l-2.748 1.446.525-3.062a.734.734 0 00-.212-.65l-2.224-2.168 1.791-.26a.355.355 0 00.036-.007l1.235-.18a.734.734 0 00.553-.402l1.38-2.797 1.381 2.797a.734.734 0 00.553.402l1.235.18a.384.384 0 00.036.007l1.166.17-.071.143a.125.125 0 01-.094.069l-4.274.62a.87.87 0 00-.483 1.487l3.093 3.014a.125.125 0 01.036.11zm8.774 4.504a.119.119 0 01-.13.01l-3.823-2.01a.873.873 0 00-.811 0l-3.822 2.01a.125.125 0 01-.181-.132l.73-4.256a.87.87 0 00-.25-.772L8.926 14.59a.125.125 0 01.069-.212l4.273-.621a.87.87 0 00.656-.477l1.912-3.872a.124.124 0 01.223 0l1.911 3.872a.871.871 0 00.656.477l4.274.62a.124.124 0 01.069.213l-3.093 3.014a.87.87 0 00-.25.772l.136.796v.003l.594 3.457a.12.12 0 01-.05.122zm5.507-7.69a.734.734 0 00-.211.65l.525 3.062-2.75-1.446a.737.737 0 00-.341-.084.738.738 0 00-.33.084l-2.295 1.206-.049-.286a.125.125 0 01.036-.11l3.092-3.015a.872.872 0 00-.483-1.486l-4.273-.621a.124.124 0 01-.094-.069l-.064-.13 1.261-.183a.357.357 0 00.036-.007l1.235-.18a.734.734 0 00.553-.402l1.38-2.797 1.381 2.797a.733.733 0 00.554.402l1.234.18a.39.39 0 00.036.007l1.791.26-2.224 2.168z"/></mask><path d="M28.763 12.66a.73.73 0 00-.593-.5l-1.78-.258a.381.381 0 00-.035-.007l-1.265-.184-1.383-2.802a.745.745 0 00-1.33 0l-1.382 2.802-1.265.184a.357.357 0 00-.035.007l-1.466.213-1.5-3.038a.872.872 0 00-1.562 0l-1.493 3.024-1.37-.2a.381.381 0 00-.035-.006l-1.265-.184L9.621 8.91a.745.745 0 00-1.33 0L6.91 11.711l-1.265.184a.355.355 0 00-.035.007l-1.78.258a.735.735 0 00-.407 1.253l2.237 2.181-.528 3.08a.733.733 0 001.066.774l2.76-1.45 2.403 1.263-.556 3.245a.872.872 0 001.264.918l3.822-2.01a.124.124 0 01.116 0l3.822 2.01a.872.872 0 001.265-.918l-.548-3.195 2.498-1.313 2.76 1.45a.734.734 0 001.065-.774l-.528-3.08 2.238-2.18a.73.73 0 00.185-.754zm-17.23 5.59l-.04.237-2.2-1.157a.737.737 0 00-.343-.084.738.738 0 00-.33.084l-2.748 1.446.525-3.062a.734.734 0 00-.212-.65l-2.224-2.168 1.791-.26a.355.355 0 00.036-.007l1.235-.18a.734.734 0 00.553-.402l1.38-2.797 1.381 2.797a.734.734 0 00.553.402l1.235.18a.384.384 0 00.036.007l1.166.17-.071.143a.125.125 0 01-.094.069l-4.274.62a.87.87 0 00-.483 1.487l3.093 3.014a.125.125 0 01.036.11zm8.774 4.504a.119.119 0 01-.13.01l-3.823-2.01a.873.873 0 00-.811 0l-3.822 2.01a.125.125 0 01-.181-.132l.73-4.256a.87.87 0 00-.25-.772L8.926 14.59a.125.125 0 01.069-.212l4.273-.621a.87.87 0 00.656-.477l1.912-3.872a.124.124 0 01.223 0l1.911 3.872a.871.871 0 00.656.477l4.274.62a.124.124 0 01.069.213l-3.093 3.014a.87.87 0 00-.25.772l.136.796v.003l.594 3.457a.12.12 0 01-.05.122zm5.507-7.69a.734.734 0 00-.211.65l.525 3.062-2.75-1.446a.737.737 0 00-.341-.084.738.738 0 00-.33.084l-2.295 1.206-.049-.286a.125.125 0 01.036-.11l3.092-3.015a.872.872 0 00-.483-1.486l-4.273-.621a.124.124 0 01-.094-.069l-.064-.13 1.261-.183a.357.357 0 00.036-.007l1.235-.18a.734.734 0 00.553-.402l1.38-2.797 1.381 2.797a.733.733 0 00.554.402l1.234.18a.39.39 0 00.036.007l1.791.26-2.224 2.168z"/><path d="M28.763 12.66a.73.73 0 00-.593-.5l-1.78-.258a.381.381 0 00-.035-.007l-1.265-.184-1.383-2.802a.745.745 0 00-1.33 0l-1.382 2.802-1.265.184a.357.357 0 00-.035.007l-1.466.213-1.5-3.038a.872.872 0 00-1.562 0l-1.493 3.024-1.37-.2a.381.381 0 00-.035-.006l-1.265-.184L9.621 8.91a.745.745 0 00-1.33 0L6.91 11.711l-1.265.184a.355.355 0 00-.035.007l-1.78.258a.735.735 0 00-.407 1.253l2.237 2.181-.528 3.08a.733.733 0 001.066.774l2.76-1.45 2.403 1.263-.556 3.245a.872.872 0 001.264.918l3.822-2.01a.124.124 0 01.116 0l3.822 2.01a.872.872 0 001.265-.918l-.548-3.195 2.498-1.313 2.76 1.45a.734.734 0 001.065-.774l-.528-3.08 2.238-2.18a.73.73 0 00.185-.754v0zm-17.23 5.59l-.04.237-2.2-1.157a.737.737 0 00-.343-.084.738.738 0 00-.33.084l-2.748 1.446.525-3.062a.734.734 0 00-.212-.65l-2.224-2.168 1.791-.26a.355.355 0 00.036-.007l1.235-.18a.734.734 0 00.553-.402l1.38-2.797 1.381 2.797a.734.734 0 00.553.402l1.235.18a.384.384 0 00.036.007l1.166.17-.071.143a.125.125 0 01-.094.069l-4.274.62a.87.87 0 00-.483 1.487l3.093 3.014a.125.125 0 01.036.11v0zm8.774 4.504a.119.119 0 01-.13.01l-3.823-2.01a.873.873 0 00-.811 0l-3.822 2.01a.125.125 0 01-.181-.132l.73-4.256a.87.87 0 00-.25-.772L8.926 14.59a.125.125 0 01.069-.212l4.273-.621a.87.87 0 00.656-.477l1.912-3.872a.124.124 0 01.223 0l1.911 3.872a.871.871 0 00.656.477l4.274.62a.124.124 0 01.069.213l-3.093 3.014a.87.87 0 00-.25.772l.136.796v.003l.594 3.457a.12.12 0 01-.05.122v0zm5.507-7.69a.734.734 0 00-.211.65l.525 3.062-2.75-1.446a.737.737 0 00-.341-.084.738.738 0 00-.33.084l-2.295 1.206-.049-.286a.125.125 0 01.036-.11l3.092-3.015a.872.872 0 00-.483-1.486l-4.273-.621a.124.124 0 01-.094-.069l-.064-.13 1.261-.183a.357.357 0 00.036-.007l1.235-.18a.734.734 0 00.553-.402l1.38-2.797 1.381 2.797a.733.733 0 00.554.402l1.234.18a.39.39 0 00.036.007l1.791.26-2.224 2.168z" stroke="#667085" stroke-width=".2" mask="url(#dpa)"/></svg><svg fill="none" viewBox="0 0 13 14" id="send" xmlns="http://www.w3.org/2000/svg"><path d="M12.89 1.521L11.29 11.9a.8.8 0 01-1.098.617l-3.065-1.278-1.272 1.908a.496.496 0 01-.435.254.52.52 0 01-.52-.52v-2.405a.8.8 0 01.169-.49L10.5 3 3.158 9.607.592 8.537a.803.803 0 01-.49-.71.778.778 0 01.401-.744l11.2-6.377a.8.8 0 011.187.815z" fill="currentColor"/></svg><svg fill="none" viewBox="0 0 36 36" id="seo-search" xmlns="http://www.w3.org/2000/svg"><g clip-path="url(#drclip0_2076_32917)"><path d="M35.67 34.08l-9.95-9.949a14.55 14.55 0 003.53-9.506C29.25 6.548 22.704 0 14.625 0S0 6.548 0 14.625 6.548 29.25 14.625 29.25c3.634 0 6.95-1.333 9.506-3.526l9.95 9.949c.217.215.506.327.794.327.288 0 .576-.11.795-.33a1.118 1.118 0 000-1.59zM14.624 27A12.353 12.353 0 012.25 14.625c0-6.82 5.491-12.375 12.375-12.375A12.313 12.313 0 0127 14.625 12.353 12.353 0 0114.625 27z" fill="#98A2B3"/><path d="M15.875 13.625h4.5a1.124 1.124 0 110 2.25h-4.5v4.5a1.124 1.124 0 11-2.25 0v-4.5h-4.5A1.128 1.128 0 018 14.75c0-.619.506-1.125 1.125-1.125h4.5v-4.5a1.124 1.124 0 112.25 0v4.5z" fill="#2E90FA"/></g><defs><clipPath id="drclip0_2076_32917"><path fill="#fff" d="M0 0h36v36H0z"/></clipPath></defs></svg><svg fill="none" viewBox="0 0 36 36" id="server" xmlns="http://www.w3.org/2000/svg"><path d="M31.5 2.25h-27A4.5 4.5 0 000 6.75v4.5a4.5 4.5 0 004.5 4.5h27a4.5 4.5 0 004.5-4.5v-4.5c0-2.486-2.018-4.5-4.5-4.5zm2.25 9c0 1.24-1.01 2.25-2.25 2.25h-27a2.255 2.255 0 01-2.25-2.25v-4.5c0-1.24 1.01-2.25 2.25-2.25h27c1.24 0 2.25 1.01 2.25 2.25v4.5zm-2.25 9h-27a4.5 4.5 0 00-4.5 4.5v4.5a4.5 4.5 0 004.5 4.5h27a4.5 4.5 0 004.5-4.5v-4.5c0-2.482-2.018-4.5-4.5-4.5zm2.25 9c0 1.24-1.01 2.25-2.25 2.25h-27c-1.24 0-2.25-1.01-2.25-2.25v-4.5c0-1.24 1.01-2.25 2.25-2.25h27c1.24 0 2.25 1.01 2.25 2.25v4.5z" fill="#98A2B3"/><path d="M27.563 9a1.688 1.688 0 113.375 0 1.688 1.688 0 01-3.375 0zM20.813 9a1.688 1.688 0 113.375 0 1.688 1.688 0 01-3.375 0zM27.563 27a1.688 1.688 0 113.375 0 1.688 1.688 0 01-3.375 0zM20.813 27a1.688 1.688 0 113.375 0 1.688 1.688 0 01-3.375 0z" fill="#2E90FA"/></svg><svg fill="none" viewBox="0 0 24 24" stroke="currentColor" stroke-width="2" id="settings" xmlns="http://www.w3.org/2000/svg"><path stroke-linecap="round" stroke-linejoin="round" d="M12 6V4m0 2a2 2 0 100 4m0-4a2 2 0 110 4m-6 8a2 2 0 100-4m0 4a2 2 0 110-4m0 4v2m0-6V4m6 6v10m6-2a2 2 0 100-4m0 4a2 2 0 110-4m0 4v2m0-6V4"/></svg><svg fill="none" viewBox="0 0 24 24" stroke="currentColor" stroke-width="2" id="share" xmlns="http://www.w3.org/2000/svg"><path stroke-linecap="round" stroke-linejoin="round" d="M8.684 13.342C8.886 12.938 9 12.482 9 12c0-.482-.114-.938-.316-1.342m0 2.684a3 3 0 110-2.684m0 2.684l6.632 3.316m-6.632-6l6.632-3.316m0 0a3 3 0 105.367-2.684 3 3 0 00-5.367 2.684zm0 9.316a3 3 0 105.368 2.684 3 3 0 00-5.368-2.684z"/></svg><svg fill="currentColor" viewBox="0 0 20 20" id="squar" xmlns="http://www.w3.org/2000/svg"><path d="M2.727 8.545A.727.727 0 012 7.818V3.72A1.721 1.721 0 013.72 2h4.098a.727.727 0 110 1.455H3.72a.265.265 0 00-.265.264v4.1a.727.727 0 01-.728.726zm14.546 0a.727.727 0 01-.727-.727V3.72a.265.265 0 00-.266-.264h-4.098a.727.727 0 110-1.455h4.098A1.721 1.721 0 0118 3.72v4.098a.727.727 0 01-.727.727zM7.818 18H3.72A1.722 1.722 0 012 16.28v-4.098a.727.727 0 111.455 0v4.099a.266.266 0 00.265.265h4.098a.727.727 0 110 1.454zm8.462 0h-4.098a.727.727 0 110-1.454h4.098a.265.265 0 00.265-.265v-4.1a.727.727 0 111.455 0v4.1A1.722 1.722 0 0116.28 18z"/></svg><svg fill="none" viewBox="0 0 36 36" id="support" xmlns="http://www.w3.org/2000/svg"><g clip-path="url(#dwclip0_2076_32991)"><path d="M19.703.08C8.91-.925.283 7.68 0 18.002L0 19.122a1.127 1.127 0 001.126 1.128 1.13 1.13 0 001.125-1.12L2.257 18C2.5 9.043 10.021 1.451 19.471 2.318c8.177.75 14.28 7.896 14.28 16.108v11.89a3.375 3.375 0 01-3.375 3.375H24.54a3.063 3.063 0 00-.16-2.58c-.64-1.22-1.972-1.92-3.348-1.92l-4.028.06c-1.632 0-3.128 1.102-3.436 2.705C13.15 34.116 14.795 36 16.813 36H30.25c3.107 0 5.625-2.519 5.625-5.562V18.485C36.001 9.113 29.033.95 19.703.08zm1.61 33.67h-4.5a1.122 1.122 0 01-1.125-1.125c0-.624.501-1.125 1.125-1.125h4.5c.625 0 1.126.501 1.126 1.125s-.437 1.125-1.126 1.125z" fill="#98A2B3"/><path fill-rule="evenodd" clip-rule="evenodd" d="M13.502 15.753a2.257 2.257 0 00-2.25-2.253h-2.25c-2.488 0-4.5 2.013-4.5 4.437l.06 4.538c0 2.487 2.014 4.5 4.501 4.5h2.25c1.24 0 2.25-1.011 2.25-2.25l-.06-8.972zm-2.189 8.972h-2.25a2.254 2.254 0 01-2.25-2.25v-4.472a2.255 2.255 0 012.25-2.25h2.252l-.002 8.972zM22.562 15.753a2.257 2.257 0 012.25-2.253h2.251c2.488 0 4.5 2.013 4.5 4.437l-.061 4.538c0 2.487-2.013 4.5-4.5 4.5h-2.25a2.254 2.254 0 01-2.25-2.25l.06-8.972zm2.19 8.972h2.25c1.239 0 2.25-1.011 2.25-2.25v-4.472a2.255 2.255 0 00-2.25-2.25H24.75l.001 8.972z" fill="#2E90FA"/></g><defs><clipPath id="dwclip0_2076_32991"><path fill="#fff" d="M0 0h36v36H0z"/></clipPath></defs></svg><svg fill="none" viewBox="0 0 32 32" id="support-2" xmlns="http://www.w3.org/2000/svg"><path d="M21.052 30.816a6.395 6.395 0 005.783-3.654l.339-.715h-1.069a2.027 2.027 0 01-2.026-2.026V14.318a2.028 2.028 0 012.648-1.91l.71.23-.059-.745a11.447 11.447 0 00-22.824 0l-.06.768.725-.257a2.026 2.026 0 012.702 1.912v10.103a2.026 2.026 0 01-3.931.674l-.12-.33h-.502A2.869 2.869 0 01.5 21.895v-5.053a2.869 2.869 0 012.868-2.868h.5v-1.342a12.132 12.132 0 1124.264 0v1.342h.5a2.869 2.869 0 012.868 2.868v5.053a2.868 2.868 0 01-2.868 2.868h-.498l-.05.445a7.08 7.08 0 01-7.031 6.292v.498-.498H16a2.026 2.026 0 112.026-2.026v1.342h3.026zm0 0v-.499.499h0zM8.422 24.42V14.316L3.519 25.263a2.526 2.526 0 004.901-.842zm-4.554-9.263v-.5h-.5a2.184 2.184 0 00-2.184 2.184v5.053a2.184 2.184 0 002.184 2.184h.5v-8.921zm12.974 15.658h.5v-1.342A1.342 1.342 0 1016 30.816h.842zm11.29-7.237v.5h.5a2.184 2.184 0 002.184-2.184v-5.053a2.184 2.184 0 00-2.184-2.184h-.5v8.92zM6.844 13.367a1.342 1.342 0 00-2.291.949V24.42a1.342 1.342 0 002.684 0V14.316c0-.356-.142-.698-.393-.95zM25.156 25.37a1.342 1.342 0 002.291-.949V14.316a1.342 1.342 0 10-2.684 0V24.42c0 .356.142.697.393.95z" fill="currentColor" stroke="currentColor"/></svg><svg fill="currentColor" viewBox="0 0 512 512" id="table-duotone" xmlns="http://www.w3.org/2000/svg"><path class="dyfa-primary" d="M448 32c35.3 0 64 28.65 64 64v320c0 35.3-28.7 64-64 64H64c-35.35 0-64-28.7-64-64V96c0-35.35 28.65-64 64-64h384zm0 64H64v320h384V96z"/><path class="dyfa-secondary" d="M64 288v-64h160V96h64v128h160v64H288v128h-64V288H64z" opacity=".4"/></svg><svg fill="none" viewBox="0 0 36 36" id="table-rows" xmlns="http://www.w3.org/2000/svg"><g clip-path="url(#dzclip0_2076_33011)"><path d="M10 2v33m25-17H9" stroke="#2E90FA" stroke-width="2.3"/><path d="M1.3 4A2.7 2.7 0 014 1.3h28A2.7 2.7 0 0134.7 4v28a2.7 2.7 0 01-2.7 2.7H4A2.7 2.7 0 011.3 32V4z" stroke="#98A2B3" stroke-width="2.6"/></g><defs><clipPath id="dzclip0_2076_33011"><path fill="#fff" d="M0 0h36v36H0z"/></clipPath></defs></svg><svg fill="none" viewBox="0 0 24 24" stroke="currentColor" stroke-width="2" id="three-dots" xmlns="http://www.w3.org/2000/svg"><path stroke-linecap="round" stroke-linejoin="round" d="M12 5v.01M12 12v.01M12 19v.01M12 6a1 1 0 110-2 1 1 0 010 2zm0 7a1 1 0 110-2 1 1 0 010 2zm0 7a1 1 0 110-2 1 1 0 010 2z"/></svg><svg fill="none" viewBox="0 0 14 16" id="tree" xmlns="http://www.w3.org/2000/svg"><path d="M12.925 10.866l-1.005-1.16c.188-.138.342-.324.445-.547a1.398 1.398 0 00-.205-1.505l-.872-1.025a1.25 1.25 0 00.304-.423 1.195 1.195 0 00-.223-1.304l-3.385-3.68A1.342 1.342 0 007 .8c-.377 0-.734.155-.981.423L2.635 4.9a1.198 1.198 0 00-.222 1.305c.071.163.175.306.304.422L1.84 7.657a1.395 1.395 0 00-.203 1.502c.104.225.258.41.445.548l-1.003 1.16c-.4.46-.49 1.092-.237 1.648.25.545.773.885 1.366.885h4.125l.001 1.126a.67.67 0 00.669.674.68.68 0 00.68-.676V13.4h4.108a1.49 1.49 0 001.367-.885 1.53 1.53 0 00-.233-1.649zm-.996 1.088c-.028.062-.076.096-.138.096h-4.11l-.001-.626 1.147-1.147a.675.675 0 00-.955-.954l-.194.194-.003-3.567A.675.675 0 007 5.276a.64.64 0 00-.65.676l.002 1.296-.249-.176a.675.675 0 10-.954.954l1.18 1.155.002 2.869H2.208c-.063 0-.109-.032-.138-.095a.183.183 0 01.028-.205l2.7-3.116h-1.86L5.347 5.62H3.806l3.183-3.482 3.205 3.485H8.656l2.406 3.015h-1.86l2.7 3.116c.07.075.047.16.027.201z" fill="currentColor"/></svg><svg fill="none" viewBox="0 0 20 21" id="twitter" xmlns="http://www.w3.org/2000/svg"><path d="M7.033 16.563c6.037 0 9.34-5.002 9.34-9.339 0-.14-.004-.284-.01-.425A6.667 6.667 0 0018 5.1a6.472 6.472 0 01-1.884.516A3.3 3.3 0 0017.559 3.8a6.599 6.599 0 01-2.083.797A3.287 3.287 0 009.88 7.59a9.323 9.323 0 01-6.765-3.427 3.286 3.286 0 001.016 4.38 3.287 3.287 0 01-1.487-.41v.041a3.281 3.281 0 002.633 3.219c-.482.132-.989.151-1.48.056a3.289 3.289 0 003.065 2.281A6.583 6.583 0 012 15.09a9.312 9.312 0 005.033 1.474z" fill="currentColor"/></svg><svg fill="currentColor" viewBox="0 0 42 42" id="upload" xmlns="http://www.w3.org/2000/svg"><path d="M9.45 35C4.23 35 0 30.969 0 26c0-3.925 2.636-7.262 6.313-8.494A10.032 10.032 0 016.3 17c0-5.525 4.699-10 10.5-10 3.892 0 7.284 2.016 9.102 5.012C26.9 11.32 28.107 11 29.4 11c3.478 0 6.3 2.631 6.3 6 0 .762-.15 1.488-.42 2.163C39.112 19.9 42 23.13 42 27c0 4.419-3.76 8-8.4 8H9.45zm5.184-13.563c-.61.588-.61 1.538 0 2.07.617.637 1.615.637 2.173 0l2.618-2.388V29.5c0 .831.702 1.5 1.575 1.5s1.575-.669 1.575-1.5v-8.381l2.56 2.387c.616.638 1.614.638 2.172 0 .669-.531.669-1.481 0-2.069l-5.25-5c-.558-.58-1.556-.58-2.173 0l-5.25 5z"/></svg><svg fill="none" viewBox="0 0 17 18" id="user" xmlns="http://www.w3.org/2000/svg"><path d="M15.123 17v-1.778c0-.943-.371-1.847-1.034-2.514a3.518 3.518 0 00-2.496-1.041H4.53c-.937 0-1.835.374-2.497 1.041A3.568 3.568 0 001 15.222V17M8.062 8.111c1.95 0 3.53-1.592 3.53-3.555 0-1.964-1.58-3.556-3.53-3.556C6.112 1 4.53 2.592 4.53 4.556c0 1.963 1.58 3.555 3.53 3.555z" stroke="currentColor" stroke-width="2" stroke-linecap="round" stroke-linejoin="round"/></svg><svg viewBox="0 0 20 20" fill="currentColor" id="verify" xmlns="http://www.w3.org/2000/svg"><path fill-rule="evenodd" d="M6.267 3.455a3.066 3.066 0 001.745-.723 3.066 3.066 0 013.976 0 3.066 3.066 0 001.745.723 3.066 3.066 0 012.812 2.812c.051.643.304 1.254.723 1.745a3.066 3.066 0 010 3.976 3.066 3.066 0 00-.723 1.745 3.066 3.066 0 01-2.812 2.812 3.066 3.066 0 00-1.745.723 3.066 3.066 0 01-3.976 0 3.066 3.066 0 00-1.745-.723 3.066 3.066 0 01-2.812-2.812 3.066 3.066 0 00-.723-1.745 3.066 3.066 0 010-3.976 3.066 3.066 0 00.723-1.745 3.066 3.066 0 012.812-2.812zm7.44 5.252a1 1 0 00-1.414-1.414L9 10.586 7.707 9.293a1 1 0 00-1.414 1.414l2 2a1 1 0 001.414 0l4-4z" clip-rule="evenodd"/></svg><svg fill="none" viewBox="0 0 20 20" id="verify2" xmlns="http://www.w3.org/2000/svg"><path d="M15.656 4.343c.813.813 1.035 1.976.747 3.004A3 3 0 0118 10a3 3 0 01-1.597 2.653c.316 1.028.066 2.163-.747 3.003-.84.813-1.975 1.035-3.003.747A3 3 0 0110 18a3 3 0 01-2.653-1.597 2.999 2.999 0 01-3.004-.747c-.813-.84-1.062-1.975-.746-3.003A3 3 0 012 10a3 3 0 011.597-2.653c-.344-1.028-.067-2.19.746-3.004a2.998 2.998 0 013.004-.746A3 3 0 0110 2a3 3 0 012.653 1.597c1.028-.344 2.163-.067 3.003.746z" fill="#00AB55"/><path d="M7 10l1.646 1.646a.5.5 0 00.708 0L13 8" stroke="#fff" stroke-width="1.2" stroke-linecap="round"/></svg><svg fill="none" viewBox="0 0 11 16" id="water" xmlns="http://www.w3.org/2000/svg"><path d="M5.613 11.438c.37 0 .666.315.666.706 0 .39-.297.705-.666.705-1.595 0-2.89-1.37-2.89-3.083 0-.364.297-.705.667-.705.37 0 .667.34.667.705 0 .935.697 1.672 1.556 1.672zm4.667-1.437c0 2.883-2.189 5.199-4.89 5.199-2.7 0-4.89-2.316-4.89-5.199 0-2.151 2.842-6.75 4.193-8.81a.818.818 0 011.395 0C7.438 3.25 10.28 7.85 10.28 10zM8.575 8.538a18.608 18.608 0 00-1.05-2.29c-.692-1.322-1.5-2.642-2.134-3.636-.633.994-1.442 2.314-2.134 3.636a18.864 18.864 0 00-1.05 2.29c-.27.723-.372 1.216-.372 1.463 0 2.104 1.592 3.788 3.556 3.788 1.965 0 3.557-1.684 3.557-3.788 0-.247-.103-.74-.373-1.463z" fill="currentColor"/></svg><svg fill="none" viewBox="0 0 24 24" stroke="currentColor" stroke-width="2" id="web" xmlns="http://www.w3.org/2000/svg"><path stroke-linecap="round" stroke-linejoin="round" d="M21 12a9 9 0 01-9 9m9-9a9 9 0 00-9-9m9 9H3m9 9a9 9 0 01-9-9m9 9c1.657 0 3-4.03 3-9s-1.343-9-3-9m0 18c-1.657 0-3-4.03-3-9s1.343-9 3-9m-9 9a9 9 0 019-9"/></svg></defs></svg>