<svg width="35" height="36" viewBox="0 0 35 36" fill="none" xmlns="http://www.w3.org/2000/svg">
<path d="M25.6952 16.3548C25.0681 16.3548 24.5723 15.8444 24.5723 15.2319C24.5723 14.6923 24.0327 13.5694 23.1285 12.5923C22.2389 11.6444 21.2618 11.0902 20.4452 11.0902C19.8181 11.0902 19.3223 10.5798 19.3223 9.96728C19.3223 9.35478 19.8327 8.84436 20.4452 8.84436C21.9035 8.84436 23.4348 9.63186 24.7764 11.0464C26.0306 12.3735 26.8327 14.0214 26.8327 15.2173C26.8327 15.8444 26.3223 16.3548 25.6952 16.3548Z" fill="#C10037"/>
<path d="M30.9608 16.3548C30.3337 16.3548 29.8379 15.8444 29.8379 15.2319C29.8379 10.0548 25.6233 5.85478 20.4608 5.85478C19.8337 5.85478 19.3379 5.34436 19.3379 4.73186C19.3379 4.11936 19.8337 3.59436 20.4462 3.59436C26.8629 3.59436 32.0837 8.81519 32.0837 15.2319C32.0837 15.8444 31.5733 16.3548 30.9608 16.3548Z" fill="#C10037"/>
<path d="M16.1139 22.4798L13.416 25.1777C12.8473 25.7464 11.9431 25.7464 11.3598 25.1923C11.1993 25.0319 11.0389 24.886 10.8785 24.7256C9.37643 23.2089 8.02018 21.6194 6.80977 19.9569C5.61393 18.2944 4.65143 16.6319 3.95143 14.9839C3.26602 13.3214 2.91602 11.7319 2.91602 10.2152C2.91602 9.22353 3.09102 8.27561 3.44102 7.40061C3.79102 6.51103 4.34518 5.69436 5.1181 4.96519C6.05143 4.04644 7.07227 3.59436 8.15143 3.59436C8.55977 3.59436 8.9681 3.68186 9.33268 3.85686C9.71185 4.03186 10.0473 4.29436 10.3098 4.67353L13.6931 9.44228C13.9556 9.80686 14.1452 10.1423 14.2764 10.4631C14.4077 10.7694 14.4806 11.0756 14.4806 11.3527C14.4806 11.7027 14.3785 12.0527 14.1743 12.3881C13.9848 12.7235 13.7077 13.0735 13.3577 13.4235L12.2493 14.5756C12.0889 14.736 12.016 14.9256 12.016 15.1589C12.016 15.2756 12.0306 15.3777 12.0598 15.4944C12.1035 15.611 12.1473 15.6985 12.1764 15.786C12.4389 16.2673 12.891 16.8944 13.5327 17.6527C14.1889 18.411 14.8889 19.1839 15.6473 19.9569C15.7931 20.1027 15.9535 20.2485 16.0993 20.3944C16.6827 20.9631 16.6973 21.8964 16.1139 22.4798Z" fill="#C10037"/>
<path d="M32.0396 27.409C32.0396 27.8173 31.9667 28.2402 31.8208 28.6485C31.7771 28.7652 31.7333 28.8819 31.675 28.9985C31.4271 29.5235 31.1063 30.0194 30.6833 30.486C29.9688 31.2735 29.1812 31.8423 28.2917 32.2069C28.2771 32.2069 28.2625 32.2215 28.2479 32.2215C27.3875 32.5715 26.4542 32.761 25.4479 32.761C23.9604 32.761 22.3708 32.411 20.6937 31.6965C19.0167 30.9819 17.3396 30.0194 15.6771 28.809C15.1083 28.386 14.5396 27.9631 14 27.511L18.7687 22.7423C19.1771 23.0485 19.5417 23.2819 19.8479 23.4423C19.9208 23.4715 20.0083 23.5152 20.1104 23.559C20.2271 23.6027 20.3437 23.6173 20.475 23.6173C20.7229 23.6173 20.9125 23.5298 21.0729 23.3694L22.1812 22.2756C22.5458 21.911 22.8958 21.634 23.2312 21.459C23.5667 21.2548 23.9021 21.1527 24.2667 21.1527C24.5437 21.1527 24.8354 21.211 25.1562 21.3423C25.4771 21.4735 25.8125 21.6631 26.1771 21.911L31.0042 25.3381C31.3833 25.6006 31.6458 25.9069 31.8062 26.2715C31.9521 26.636 32.0396 27.0006 32.0396 27.409Z" fill="#C10037"/>
</svg>
