<svg width="147" height="41" viewBox="0 0 147 41" fill="none" xmlns="http://www.w3.org/2000/svg">
<path d="M15.0401 39.229C16.5745 39.9681 18.3608 39.9681 19.8953 39.2291C24.1963 37.1575 28.3303 34.7506 32.2596 32.0302C33.6446 31.0713 34.5235 29.5405 34.6543 27.8611C35.0293 23.0498 35.0293 18.2162 34.6543 13.4049C34.5235 11.7255 33.6446 10.1947 32.2597 9.23583C28.3304 6.51536 24.1963 4.10838 19.8953 2.03682C18.3608 1.29777 16.5745 1.29777 15.0401 2.03682C10.7391 4.10837 6.605 6.51531 2.67575 9.23568C1.29073 10.1946 0.411857 11.7253 0.280979 13.4048C-0.0939529 18.2161 -0.0939493 23.0496 0.280989 27.861C0.411864 29.5404 1.2907 31.0711 2.67568 32.03C6.60495 34.7505 10.739 37.1575 15.0401 39.229Z" fill="#C10037"/>
<mask id="mask0_1415_3918" style="mask-type:alpha" maskUnits="userSpaceOnUse" x="0" y="1" width="35" height="39">
<path d="M15.0401 39.229C16.5745 39.9681 18.3608 39.9681 19.8953 39.2291C24.1963 37.1575 28.3303 34.7506 32.2596 32.0302C33.6446 31.0713 34.5235 29.5405 34.6543 27.8611C35.0293 23.0498 35.0293 18.2162 34.6543 13.4049C34.5235 11.7255 33.6446 10.1947 32.2597 9.23583C28.3304 6.51536 24.1963 4.10838 19.8953 2.03682C18.3608 1.29777 16.5745 1.29777 15.0401 2.03682C10.7391 4.10837 6.605 6.51531 2.67575 9.23568C1.29073 10.1946 0.411857 11.7253 0.280979 13.4048C-0.0939529 18.2161 -0.0939493 23.0496 0.280989 27.861C0.411864 29.5404 1.2907 31.0711 2.67568 32.03C6.60495 34.7505 10.739 37.1575 15.0401 39.229Z" fill="#374B5C"/>
</mask>
<g mask="url(#mask0_1415_3918)">
<path d="M16.7839 45.0969L5.25823 25.4958L21.1825 11.0355L23.9034 12.7316L26.332 9.77938L27.4345 9.867L39.4224 32.9882L16.7839 45.0969Z" fill="black" fill-opacity="0.28"/>
</g>
<path d="M7.60125 24.8302L6.25773 25.2928C5.77931 25.4575 5.24826 25.2232 5.07413 24.7707L4.56354 23.4436C4.38941 22.9911 4.63705 22.4887 5.11546 22.324L6.45899 21.8614C6.69882 21.7788 6.96351 21.8956 7.05082 22.1225L7.87724 24.2704C7.96454 24.4973 7.84111 24.7476 7.60125 24.8302Z" fill="white"/>
<path d="M12.9654 29.4168L12.3685 29.6223C11.6507 29.8694 10.8543 29.5182 10.5931 28.8391L9.21942 25.269C9.13213 25.0421 9.25554 24.7917 9.49539 24.7092L11.8279 23.9061C12.0677 23.8235 12.3324 23.9402 12.4197 24.1671L13.7933 27.7373C14.0546 28.4163 13.6832 29.1696 12.9654 29.4168Z" fill="white"/>
<path d="M13.8553 24.1341L8.96953 25.8163C8.25176 26.0634 7.45537 25.7121 7.1941 25.0331L6.00911 21.9533C5.74786 21.2743 6.11919 20.5209 6.83701 20.2738L11.7227 18.5916C11.9626 18.509 12.2273 18.6258 12.3146 18.8527L14.1312 23.5742C14.2186 23.8013 14.0951 24.0515 13.8553 24.1341Z" fill="white"/>
<path d="M6.87966 21.6548C6.79253 21.4284 6.91627 21.1774 7.15563 21.095L11.6075 19.5623L13.1083 23.4629L8.65648 24.9957C8.4171 25.0781 8.15178 24.9611 8.06465 24.7347L6.87966 21.6548Z" fill="white"/>
<path d="M24.7294 25.8223C24.5023 25.9005 24.2563 25.9307 24.0063 25.906C23.9948 25.9049 23.9837 25.9034 23.9726 25.9018L13.6178 24.1558C13.4556 24.1285 13.3213 24.0213 13.2651 23.8751L11.4484 19.1535C11.3921 19.0072 11.4221 18.8434 11.5279 18.724L18.2737 11.0902C18.6892 10.6838 19.251 10.5227 19.8005 10.6339C20.3505 10.745 20.7937 11.11 20.9862 11.6102L25.6973 23.8546C25.8898 24.3548 25.7982 24.9037 25.4524 25.3234C25.2609 25.5552 25.0099 25.7257 24.7294 25.8223Z" fill="white"/>
<path d="M23.6281 13.8218C23.2708 13.5382 23.2211 13.0379 23.517 12.7044L25.733 10.2061C26.0289 9.87249 26.5584 9.83195 26.9157 10.1155C27.2729 10.3991 27.3227 10.8994 27.0268 11.233L24.8107 13.7313C24.5148 14.0649 23.9853 14.1054 23.6281 13.8218Z" fill="white"/>
<path d="M24.6039 17.2996C24.4444 16.8851 24.6612 16.4298 25.0882 16.2828L28.3481 15.1604C28.7751 15.0134 29.2505 15.2303 29.41 15.6448C29.5695 16.0594 29.3527 16.5146 28.9257 16.6616L25.6658 17.7841C25.2388 17.9311 24.7634 17.7142 24.6039 17.2996Z" fill="white"/>
<path d="M26.2221 20.5562C26.303 20.1217 26.7362 19.8308 27.1895 19.9064L30.5847 20.4728C31.0381 20.5484 31.3399 20.9619 31.2589 21.3963C31.1779 21.8308 30.7448 22.1217 30.2915 22.0461L26.8963 21.4798C26.4429 21.4042 26.1411 20.9907 26.2221 20.5562Z" fill="white"/>
<rect x="6.30469" y="21.1029" width="5.50631" height="5.22778" transform="rotate(-25.5034 6.30469 21.1029)" fill="white"/>
<path d="M47.9446 28.7313H57.6361V33.5225H42.9355V8.11426H47.9446V28.7313Z" fill="white"/>
<path d="M77.2875 20.528C77.2875 21.012 77.6021 21.4113 78.2312 21.7258C78.8846 22.0162 79.671 22.2824 80.5906 22.5244C81.5101 22.7422 82.4296 23.0325 83.3492 23.3955C84.2687 23.7343 85.0431 24.3151 85.6722 25.1378C86.3256 25.9605 86.6522 26.989 86.6522 28.2231C86.6522 30.0864 85.9505 31.5262 84.547 32.5425C83.1677 33.5346 81.4375 34.0307 79.3564 34.0307C75.6299 34.0307 73.0891 32.5909 71.734 29.7113L75.7993 27.4245C76.3316 28.9974 77.5174 29.7839 79.3564 29.7839C81.0261 29.7839 81.861 29.2636 81.861 28.2231C81.861 27.7391 81.5343 27.352 80.8809 27.0616C80.2518 26.747 79.4774 26.4687 78.5579 26.2267C77.6384 25.9847 76.7188 25.6823 75.7993 25.3193C74.8797 24.9563 74.0933 24.3877 73.4399 23.6133C72.8108 22.8148 72.4962 21.8226 72.4962 20.6369C72.4962 18.8462 73.1496 17.4427 74.4563 16.4264C75.7872 15.3859 77.4327 14.8656 79.3927 14.8656C80.8688 14.8656 82.2118 15.2044 83.4218 15.8819C84.6317 16.5353 85.5875 17.479 86.2893 18.7131L82.2965 20.891C81.7158 19.6569 80.7478 19.0398 79.3927 19.0398C78.7878 19.0398 78.2796 19.1729 77.8682 19.4391C77.4811 19.7053 77.2875 20.0682 77.2875 20.528Z" fill="white"/>
<path d="M101.328 19.8747H97.2262V27.4245C97.2262 28.0537 97.3835 28.5135 97.698 28.8039C98.0126 29.0942 98.4724 29.2636 99.0773 29.312C99.6823 29.3362 100.432 29.3241 101.328 29.2757V33.5225C98.1094 33.8855 95.8348 33.583 94.5039 32.6151C93.1971 31.6472 92.5438 29.917 92.5438 27.4245V19.8747H89.3859V15.3738H92.5438V11.7077L97.2262 10.2921V15.3738H101.328V19.8747Z" fill="white"/>
<path d="M109.833 26.3719C110.462 28.6466 112.168 29.7839 114.951 29.7839C116.742 29.7839 118.097 29.1789 119.017 27.969L122.792 30.1469C121.001 32.7361 118.363 34.0307 114.879 34.0307C111.878 34.0307 109.47 33.1233 107.655 31.3084C105.841 29.4935 104.933 27.2068 104.933 24.4482C104.933 21.7137 105.828 19.4391 107.619 17.6242C109.41 15.7851 111.709 14.8656 114.516 14.8656C117.178 14.8656 119.367 15.7851 121.086 17.6242C122.828 19.4633 123.699 21.7379 123.699 24.4482C123.699 25.0531 123.638 25.6944 123.517 26.3719H109.833ZM109.761 22.7422H119.017C118.75 21.508 118.194 20.5885 117.347 19.9836C116.524 19.3786 115.58 19.0761 114.516 19.0761C113.257 19.0761 112.217 19.4028 111.394 20.0561C110.571 20.6853 110.027 21.5806 109.761 22.7422Z" fill="white"/>
<path d="M132.597 26.3719C133.226 28.6466 134.932 29.7839 137.715 29.7839C139.506 29.7839 140.861 29.1789 141.781 27.969L145.555 30.1469C143.765 32.7361 141.127 34.0307 137.643 34.0307C134.642 34.0307 132.234 33.1233 130.419 31.3084C128.605 29.4935 127.697 27.2068 127.697 24.4482C127.697 21.7137 128.592 19.4391 130.383 17.6242C132.174 15.7851 134.473 14.8656 137.28 14.8656C139.941 14.8656 142.131 15.7851 143.849 17.6242C145.592 19.4633 146.463 21.7379 146.463 24.4482C146.463 25.0531 146.402 25.6944 146.281 26.3719H132.597ZM132.525 22.7422H141.781C141.514 21.508 140.958 20.5885 140.111 19.9836C139.288 19.3786 138.344 19.0761 137.28 19.0761C136.021 19.0761 134.981 19.4028 134.158 20.0561C133.335 20.6853 132.791 21.5806 132.525 22.7422Z" fill="white"/>
<circle cx="65.0192" cy="10.2817" r="3.04656" fill="#C10037"/>
<circle cx="75.1442" cy="10.2817" r="3.04656" fill="#C10037" fill-opacity="0.6"/>
<circle cx="85.2712" cy="10.2817" r="3.04656" fill="#C10037" fill-opacity="0.3"/>
<rect x="62.6387" y="15.6144" width="4.75834" height="18.0348" fill="#C10037"/>
</svg>
