<svg width="131" height="35" viewBox="0 0 131 35" fill="none" xmlns="http://www.w3.org/2000/svg">
<path d="M13.0745 33.8698C14.6062 34.6146 16.3938 34.6146 17.9255 33.8698C21.5553 32.1048 25.0499 30.0701 28.3803 27.7824C29.7688 26.8286 30.6483 25.2968 30.7731 23.6168C31.0756 19.5447 31.0756 15.4554 30.7731 11.3833C30.6483 9.70335 29.7688 8.17157 28.3804 7.21775C25.05 4.92997 21.5554 2.89518 17.9255 1.13019C16.3938 0.385434 14.6062 0.385434 13.0745 1.13019C9.44467 2.89516 5.95005 4.92993 2.61972 7.21762C1.23119 8.17143 0.351728 9.70324 0.226911 11.3832C-0.0756385 15.4553 -0.0756368 19.5446 0.22692 23.6167C0.351733 25.2966 1.23116 26.8284 2.61965 27.7822C5.95 30.07 9.44464 32.1048 13.0745 33.8698Z" fill="#374B5C"/>
<mask id="mask0_1420_1911" style="mask-type:alpha" maskUnits="userSpaceOnUse" x="0" y="0" width="31" height="35">
<path d="M13.0745 33.8698C14.6062 34.6146 16.3938 34.6146 17.9255 33.8698C21.5553 32.1048 25.0499 30.0701 28.3803 27.7824C29.7688 26.8286 30.6483 25.2968 30.7731 23.6168C31.0756 19.5447 31.0756 15.4554 30.7731 11.3833C30.6483 9.70335 29.7688 8.17157 28.3804 7.21775C25.05 4.92997 21.5554 2.89518 17.9255 1.13019C16.3938 0.385434 14.6062 0.385434 13.0745 1.13019C9.44467 2.89516 5.95005 4.92993 2.61972 7.21762C1.23119 8.17143 0.351728 9.70324 0.226911 11.3832C-0.0756385 15.4553 -0.0756368 19.5446 0.22692 23.6167C0.351733 25.2966 1.23116 26.8284 2.61965 27.7822C5.95 30.07 9.44464 32.1048 13.0745 33.8698Z" fill="#374B5C"/>
</mask>
<g mask="url(#mask0_1420_1911)">
<path d="M14.8931 39.208L4.66591 21.815L18.7962 8.98383L21.2105 10.4888L23.3656 7.86921L24.3439 7.94696L34.9812 28.4634L14.8931 39.208Z" fill="#233B4F"/>
</g>
<path d="M6.74494 21.2245L5.55278 21.6349C5.12825 21.7811 4.65703 21.5732 4.50252 21.1716L4.04945 19.9941C3.89494 19.5925 4.11468 19.1468 4.5392 19.0006L5.73136 18.5901C5.94418 18.5169 6.17905 18.6204 6.25652 18.8218L6.98984 20.7277C7.0673 20.929 6.95778 21.1512 6.74494 21.2245Z" fill="white"/>
<path d="M11.5048 25.2943L10.9751 25.4767C10.3382 25.696 9.63153 25.3843 9.3997 24.7818L8.18081 21.6138C8.10335 21.4125 8.21286 21.1903 8.4257 21.1171L10.4954 20.4045C10.7082 20.3312 10.9431 20.4348 11.0206 20.6361L12.2394 23.804C12.4713 24.4065 12.1417 25.075 11.5048 25.2943Z" fill="white"/>
<path d="M12.2944 20.6068L7.95908 22.0995C7.32217 22.3187 6.61549 22.007 6.38366 21.4045L5.33216 18.6716C5.10035 18.0691 5.42985 17.4006 6.06679 17.1813L10.4021 15.6887C10.6149 15.6154 10.8498 15.719 10.9273 15.9203L12.5393 20.11C12.6168 20.3115 12.5072 20.5335 12.2944 20.6068Z" fill="#C10037"/>
<path d="M6.10464 18.4068C6.02733 18.2059 6.13712 17.9832 6.34952 17.91L10.2998 16.55L11.6316 20.0112L7.68129 21.3713C7.46887 21.4445 7.23345 21.3406 7.15614 21.1397L6.10464 18.4068Z" fill="#C10037"/>
<path d="M21.9435 22.1048C21.742 22.1742 21.5236 22.201 21.3019 22.1791C21.2917 22.1781 21.2818 22.1767 21.2719 22.1753L12.0837 20.626C11.9398 20.6018 11.8206 20.5067 11.7707 20.377L10.1587 16.1873C10.1087 16.0574 10.1354 15.9121 10.2292 15.8062L16.2151 9.03234C16.5838 8.67171 17.0823 8.52879 17.5699 8.62751C18.0579 8.72608 18.4512 9.04993 18.6219 9.49379L22.8023 20.3587C22.9731 20.8026 22.8918 21.2897 22.585 21.6621C22.4151 21.8678 22.1923 22.0191 21.9435 22.1048Z" fill="white"/>
<path d="M20.9662 11.4563C20.6492 11.2046 20.6051 10.7607 20.8676 10.4647L22.8341 8.24784C23.0966 7.95184 23.5664 7.91588 23.8834 8.1675C24.2004 8.41913 24.2446 8.86307 23.982 9.15906L22.0156 11.3759C21.7531 11.6719 21.2832 11.7079 20.9662 11.4563Z" fill="white"/>
<path d="M21.8321 14.5423C21.6906 14.1744 21.883 13.7705 22.2618 13.64L25.1545 12.644C25.5334 12.5136 25.9552 12.7061 26.0968 13.0739C26.2383 13.4418 26.0459 13.8457 25.6671 13.9762L22.7744 14.9721C22.3955 15.1026 21.9736 14.9101 21.8321 14.5423Z" fill="white"/>
<path d="M23.268 17.432C23.3398 17.0464 23.7242 16.7883 24.1265 16.8554L27.1392 17.3579C27.5414 17.425 27.8093 17.7919 27.7374 18.1775C27.6655 18.563 27.2812 18.8211 26.8789 18.754L23.8662 18.2515C23.464 18.1844 23.1961 17.8175 23.268 17.432Z" fill="white"/>
<rect x="5.59375" y="17.917" width="4.88598" height="4.63883" transform="rotate(-25.5034 5.59375 17.917)" fill="#C10037"/>
<path d="M43.4448 24.686H52.0444V28.9375H39V6.3916H43.4448V24.686Z" fill="#374B5C"/>
<path d="M69.4819 17.4069C69.4819 17.8363 69.7611 18.1906 70.3194 18.4697C70.8991 18.7274 71.597 18.9636 72.4129 19.1783C73.2288 19.3716 74.0448 19.6292 74.8607 19.9513C75.6767 20.2519 76.3638 20.7673 76.9221 21.4973C77.5018 22.2274 77.7917 23.1399 77.7917 24.235C77.7917 25.8884 77.169 27.166 75.9236 28.0678C74.6997 28.9482 73.1644 29.3884 71.3178 29.3884C68.0111 29.3884 65.7565 28.1108 64.5541 25.5556L68.1614 23.5264C68.6338 24.9221 69.6859 25.62 71.3178 25.62C72.7994 25.62 73.5402 25.1583 73.5402 24.235C73.5402 23.8056 73.2503 23.462 72.6706 23.2044C72.1123 22.9252 71.4252 22.6783 70.6092 22.4636C69.7933 22.2488 68.9773 21.9804 68.1614 21.6584C67.3455 21.3363 66.6476 20.8317 66.0679 20.1446C65.5096 19.436 65.2304 18.5556 65.2304 17.5035C65.2304 15.9145 65.8102 14.6692 66.9697 13.7673C68.1507 12.844 69.6108 12.3824 71.35 12.3824C72.6598 12.3824 73.8515 12.683 74.9252 13.2842C75.9988 13.8639 76.8469 14.7014 77.4696 15.7964L73.9267 17.7289C73.4114 16.6339 72.5525 16.0863 71.35 16.0863C70.8132 16.0863 70.3623 16.2044 69.9973 16.4406C69.6537 16.6768 69.4819 16.9989 69.4819 17.4069Z" fill="#374B5C"/>
<path d="M90.8139 16.8271H87.1744V23.5264C87.1744 24.0847 87.314 24.4927 87.5931 24.7504C87.8722 25.008 88.2802 25.1583 88.817 25.2013C89.3538 25.2228 90.0195 25.212 90.8139 25.1691V28.9375C87.9581 29.2595 85.9397 28.9911 84.7588 28.1322C83.5993 27.2734 83.0195 25.7381 83.0195 23.5264V16.8271H80.2174V12.8333H83.0195V9.58023L87.1744 8.3241V12.8333H90.8139V16.8271Z" fill="#374B5C"/>
<path d="M98.3613 22.5924C98.9195 24.6108 100.433 25.62 102.903 25.62C104.492 25.62 105.694 25.0832 106.51 24.0096L109.86 25.9421C108.271 28.2396 105.93 29.3884 102.838 29.3884C100.176 29.3884 98.0392 28.5832 96.4288 26.9727C94.8183 25.3623 94.0131 23.3332 94.0131 20.8854C94.0131 18.459 94.8076 16.4406 96.3966 14.8302C97.9855 13.1983 100.025 12.3824 102.516 12.3824C104.878 12.3824 106.821 13.1983 108.346 14.8302C109.892 16.4621 110.665 18.4805 110.665 20.8854C110.665 21.4222 110.611 21.9912 110.504 22.5924H98.3613ZM98.2968 19.3716H106.51C106.274 18.2765 105.78 17.4605 105.028 16.9237C104.298 16.3869 103.461 16.1185 102.516 16.1185C101.4 16.1185 100.476 16.4084 99.7462 16.9882C99.0162 17.5464 98.533 18.3409 98.2968 19.3716Z" fill="#374B5C"/>
<path d="M118.561 22.5924C119.119 24.6108 120.633 25.62 123.102 25.62C124.691 25.62 125.893 25.0832 126.709 24.0096L130.059 25.9421C128.47 28.2396 126.13 29.3884 123.038 29.3884C120.375 29.3884 118.239 28.5832 116.628 26.9727C115.018 25.3623 114.213 23.3332 114.213 20.8854C114.213 18.459 115.007 16.4406 116.596 14.8302C118.185 13.1983 120.225 12.3824 122.716 12.3824C125.078 12.3824 127.021 13.1983 128.545 14.8302C130.091 16.4621 130.864 18.4805 130.864 20.8854C130.864 21.4222 130.811 21.9912 130.703 22.5924H118.561ZM118.496 19.3716H126.709C126.473 18.2765 125.979 17.4605 125.228 16.9237C124.498 16.3869 123.66 16.1185 122.716 16.1185C121.599 16.1185 120.676 16.4084 119.946 16.9882C119.216 17.5464 118.732 18.3409 118.496 19.3716Z" fill="#374B5C"/>
<circle cx="58.5959" cy="8.31467" r="2.70334" fill="#C10037"/>
<circle cx="67.5803" cy="8.31467" r="2.70334" fill="#C10037" fill-opacity="0.6"/>
<circle cx="76.5666" cy="8.31467" r="2.70334" fill="#C10037" fill-opacity="0.3"/>
<rect x="56.4844" y="13.0469" width="4.22228" height="16.0031" fill="#C10037"/>
</svg>
