<svg width="24" height="25" viewBox="0 0 24 25" fill="none" xmlns="http://www.w3.org/2000/svg">
<path d="M4.035 16.3901C4.012 16.5641 4 16.7381 4 16.9111C4 19.2891 6.138 21.1951 8.521 20.8751C9.214 22.1091 10.534 22.9111 12 22.9111C13.466 22.9111 14.786 22.1091 15.479 20.8751C17.857 21.1951 20 19.2891 20 16.9111C20 16.7381 19.988 16.5641 19.965 16.3901C21.198 15.6971 22 14.3761 22 12.9111C22 11.4461 21.198 10.1251 19.965 9.43213C19.988 9.25813 20 9.08413 20 8.91113C20 6.53313 17.857 4.62313 15.479 4.94713C14.786 3.71313 13.466 2.91113 12 2.91113C10.534 2.91113 9.214 3.71313 8.521 4.94713C6.138 4.62313 4 6.53313 4 8.91113C4 9.08413 4.012 9.25813 4.035 9.43213C2.802 10.1251 2 11.4461 2 12.9111C2 14.3761 2.802 15.6971 4.035 16.3901ZM5.477 10.9871L6.579 10.6941L6.145 9.64113C6.05 9.41113 6 9.15813 6 8.91113C6 7.80813 6.897 6.91113 8 6.91113C8.247 6.91113 8.499 6.96113 8.73 7.05613L9.784 7.49013L10.077 6.38813C10.308 5.51813 11.099 4.91113 12 4.91113C12.901 4.91113 13.692 5.51813 13.923 6.38813L14.216 7.49013L15.27 7.05613C15.501 6.96113 15.753 6.91113 16 6.91113C17.103 6.91113 18 7.80813 18 8.91113C18 9.15813 17.95 9.41113 17.855 9.64113L17.421 10.6941L18.523 10.9871C19.393 11.2191 20 12.0101 20 12.9111C20 13.8121 19.393 14.6031 18.523 14.8351L17.421 15.1281L17.855 16.1811C17.95 16.4111 18 16.6641 18 16.9111C18 18.0141 17.103 18.9111 16 18.9111C15.753 18.9111 15.501 18.8611 15.27 18.7661L14.216 18.3321L13.923 19.4341C13.692 20.3041 12.901 20.9111 12 20.9111C11.099 20.9111 10.308 20.3041 10.077 19.4341L9.784 18.3321L8.73 18.7661C8.499 18.8611 8.247 18.9111 8 18.9111C6.897 18.9111 6 18.0141 6 16.9111C6 16.6641 6.05 16.4111 6.145 16.1811L6.579 15.1281L5.477 14.8351C4.607 14.6031 4 13.8121 4 12.9111C4 12.0101 4.607 11.2191 5.477 10.9871Z" fill="#C10037"/>
<path d="M15.742 11.6212L14.334 10.2012L11.003 13.5002L9.70697 12.2042L8.29297 13.6182L10.997 16.3222L15.742 11.6212Z" fill="#C10037"/>
</svg>
