<svg width="35" height="36" viewBox="0 0 35 36" fill="none" xmlns="http://www.w3.org/2000/svg">
<path d="M8.75065 19.6361C4.72565 19.6361 1.45898 22.8882 1.45898 26.9278C1.45898 30.9674 4.72565 34.2194 8.75065 34.2194C12.7757 34.2194 16.0423 30.9528 16.0423 26.9278C16.0423 22.9028 12.7902 19.6361 8.75065 19.6361ZM5.77565 23.9528H8.75065C9.30482 23.9528 9.74232 24.4049 9.74232 24.9444C9.74232 25.484 9.30482 25.9361 8.75065 25.9361H5.77565C5.22148 25.9361 4.78398 25.484 4.78398 24.9444C4.78398 24.4049 5.22148 23.9528 5.77565 23.9528ZM11.7257 29.9028H5.77565C5.22148 29.9028 4.78398 29.4507 4.78398 28.9111C4.78398 28.3715 5.23607 27.9194 5.77565 27.9194H11.7402C12.2944 27.9194 12.7319 28.3715 12.7319 28.9111C12.7319 29.4507 12.2798 29.9028 11.7257 29.9028Z" fill="#C10037"/>
<path d="M24.791 5.05273H10.2077C5.83268 5.05273 2.91602 7.24023 2.91602 12.3444V16.9236C2.91602 17.9882 4.00977 18.659 4.98685 18.2361C6.59102 17.5361 8.41393 17.2736 10.3243 17.5798C14.1452 18.2069 17.266 21.2257 18.0389 25.0173C18.2577 26.1257 18.2868 27.2048 18.141 28.2402C18.0243 29.1006 18.7243 29.859 19.5848 29.859H24.791C29.166 29.859 32.0827 27.6715 32.0827 22.5673V12.3444C32.0827 7.24023 29.166 5.05273 24.791 5.05273ZM25.4764 13.2048L20.9118 16.8507C19.9493 17.6236 18.7243 18.0027 17.4993 18.0027C16.2743 18.0027 15.0348 17.6236 14.0868 16.8507L9.52227 13.2048C9.0556 12.8257 8.98268 12.1257 9.34727 11.659C9.72643 11.1923 10.4118 11.1048 10.8785 11.484L15.4431 15.1298C16.5514 16.0194 18.4327 16.0194 19.541 15.1298L24.1056 11.484C24.5723 11.1048 25.2723 11.1777 25.6368 11.659C26.016 12.1257 25.9431 12.8257 25.4764 13.2048Z" fill="#C10037"/>
</svg>
