<svg width="24" height="24" viewBox="0 0 24 24" fill="none" xmlns="http://www.w3.org/2000/svg">
<path d="M3 3V20C3 20.2652 3.10536 20.5196 3.29289 20.7071C3.48043 20.8946 3.73478 21 4 21H21V19H5V3H3Z" fill="#C10037"/>
<path d="M15.293 14.707C15.3858 14.7999 15.496 14.8737 15.6173 14.924C15.7386 14.9743 15.8686 15.0002 16 15.0002C16.1313 15.0002 16.2613 14.9743 16.3827 14.924C16.504 14.8737 16.6142 14.7999 16.707 14.707L21.707 9.70697L20.293 8.29297L16 12.586L13.707 10.293C13.6142 10.2 13.504 10.1263 13.3827 10.076C13.2613 10.0257 13.1313 9.99977 13 9.99977C12.8686 9.99977 12.7386 10.0257 12.6173 10.076C12.496 10.1263 12.3858 10.2 12.293 10.293L7.29297 15.293L8.70697 16.707L13 12.414L15.293 14.707Z" fill="#C10037"/>
</svg>
